solid OpenSCAD_Model
  facet normal 0 0 1
    outer loop
      vertex -19.5 20 34.5
      vertex -24.5 13 34.5
      vertex -19.5 13 34.5
    endloop
  endfacet
  facet normal 0 0 1
    outer loop
      vertex -24.5 13 34.5
      vertex -40 20 34.5
      vertex -24.5 7 34.5
    endloop
  endfacet
  facet normal -0 0 1
    outer loop
      vertex -40 20 34.5
      vertex -24.5 13 34.5
      vertex -19.5 20 34.5
    endloop
  endfacet
  facet normal -0 0 1
    outer loop
      vertex -24.5 7 34.5
      vertex -19.5 0 34.5
      vertex -19.5 7 34.5
    endloop
  endfacet
  facet normal 0 0 1
    outer loop
      vertex -40 0 34.5
      vertex -24.5 7 34.5
      vertex -40 20 34.5
    endloop
  endfacet
  facet normal 0 0 1
    outer loop
      vertex -24.5 7 34.5
      vertex -40 0 34.5
      vertex -19.5 0 34.5
    endloop
  endfacet
  facet normal -1 0 0
    outer loop
      vertex -40 0 0
      vertex -40 20 34.5
      vertex -40 20 0
    endloop
  endfacet
  facet normal -1 -0 0
    outer loop
      vertex -40 20 34.5
      vertex -40 0 0
      vertex -40 0 34.5
    endloop
  endfacet
  facet normal 1 0 0
    outer loop
      vertex 0 3 49.5
      vertex 0 0 49.5
      vertex 0 3 32.5
    endloop
  endfacet
  facet normal 1 -0 0
    outer loop
      vertex 0 3 32.5
      vertex 0 14 22.5
      vertex 0 14 32.5
    endloop
  endfacet
  facet normal 1 0 0
    outer loop
      vertex 0 14 22.5
      vertex 0 3 32.5
      vertex 0 3.33494 3.25
    endloop
  endfacet
  facet normal 1 0 0
    outer loop
      vertex 0 14.4489 22.5
      vertex 0 14 22.5
      vertex 0 3.33494 3.25
    endloop
  endfacet
  facet normal 1 0 0
    outer loop
      vertex 0 15.799 16.8385
      vertex 0 20 22.5
      vertex 0 19.0677 22.5
    endloop
  endfacet
  facet normal 1 0 0
    outer loop
      vertex 0 20 22.5
      vertex 0 15.799 16.8385
      vertex 0 20 0
    endloop
  endfacet
  facet normal 1 0 0
    outer loop
      vertex 0 6.25 3.29904
      vertex 0 15.799 16.8385
      vertex 0 14.5 17.5885
    endloop
  endfacet
  facet normal 1 0 0
    outer loop
      vertex 0 15.799 16.8385
      vertex 0 6.25 3.29904
      vertex 0 20 0
    endloop
  endfacet
  facet normal 1 0 0
    outer loop
      vertex 0 4.26454 2.71329
      vertex 0 6.25 3.29904
      vertex 0 5.34321 3.49178
    endloop
  endfacet
  facet normal 1 0 0
    outer loop
      vertex 0 4.26454 2.71329
      vertex 0 5.34321 3.49178
      vertex 0 4.4963 3.11472
    endloop
  endfacet
  facet normal 1 0 0
    outer loop
      vertex 0 0 0
      vertex 0 6.25 3.29904
      vertex 0 4.26454 2.71329
    endloop
  endfacet
  facet normal 1 0 0
    outer loop
      vertex 0 0 0
      vertex 0 3 32.5
      vertex 0 0 49.5
    endloop
  endfacet
  facet normal 1 0 0
    outer loop
      vertex 0 6.25 3.29904
      vertex 0 0 0
      vertex 0 20 0
    endloop
  endfacet
  facet normal 1 0 0
    outer loop
      vertex 0 3.33494 3.25
      vertex 0 0 0
      vertex 0 4.26454 2.71329
    endloop
  endfacet
  facet normal 1 0 0
    outer loop
      vertex 0 3 32.5
      vertex 0 0 0
      vertex 0 3.33494 3.25
    endloop
  endfacet
  facet normal 0 0 -1
    outer loop
      vertex -40 0 0
      vertex 0 20 0
      vertex 0 0 0
    endloop
  endfacet
  facet normal -0 0 -1
    outer loop
      vertex 0 20 0
      vertex -40 0 0
      vertex -40 20 0
    endloop
  endfacet
  facet normal 0 1 0
    outer loop
      vertex 0 20 22.5
      vertex 0 20 0
      vertex -16.5 20 22.5
    endloop
  endfacet
  facet normal 0 1 0
    outer loop
      vertex -16.5 20 24.1147
      vertex -16.5 20 22.5
      vertex -25 20 24.1147
    endloop
  endfacet
  facet normal 0 1 0
    outer loop
      vertex -17.5 20 38.1147
      vertex -16.5 20 49.5
      vertex -16.5 20 38.1147
    endloop
  endfacet
  facet normal 0 1 0
    outer loop
      vertex -16.5 20 49.5
      vertex -17.5 20 38.1147
      vertex -19.5 20 49.5
    endloop
  endfacet
  facet normal 0 1 0
    outer loop
      vertex -17.5 20 38.1147
      vertex -19.5 20 34.5
      vertex -19.5 20 49.5
    endloop
  endfacet
  facet normal 0 1 -0
    outer loop
      vertex -17.5 20 32.1147
      vertex -19.5 20 34.5
      vertex -17.5 20 38.1147
    endloop
  endfacet
  facet normal 0 1 0
    outer loop
      vertex -25 20 32.1147
      vertex -19.5 20 34.5
      vertex -17.5 20 32.1147
    endloop
  endfacet
  facet normal 0 1 0
    outer loop
      vertex -19.5 20 34.5
      vertex -25 20 32.1147
      vertex -40 20 34.5
    endloop
  endfacet
  facet normal 0 1 -0
    outer loop
      vertex -25 20 24.1147
      vertex -40 20 34.5
      vertex -25 20 32.1147
    endloop
  endfacet
  facet normal 0 1 0
    outer loop
      vertex -40 20 0
      vertex -16.5 20 22.5
      vertex 0 20 0
    endloop
  endfacet
  facet normal 0 1 0
    outer loop
      vertex -16.5 20 22.5
      vertex -40 20 0
      vertex -25 20 24.1147
    endloop
  endfacet
  facet normal 0 1 0
    outer loop
      vertex -25 20 24.1147
      vertex -40 20 0
      vertex -40 20 34.5
    endloop
  endfacet
  facet normal 0 -1 0
    outer loop
      vertex -18.92 0 28.4592
      vertex -19.5 0 34.5
      vertex -40 0 34.5
    endloop
  endfacet
  facet normal 0 -1 0
    outer loop
      vertex -19.5 0 34.5
      vertex -14.7395 0 32.4624
      vertex -12.5 0 32.9493
    endloop
  endfacet
  facet normal 0 -1 0
    outer loop
      vertex -19.5 0 34.5
      vertex -15.1188 0 32.38
      vertex -14.7395 0 32.4624
    endloop
  endfacet
  facet normal 0 -1 0
    outer loop
      vertex -19.5 0 34.5
      vertex -15.464 0 32.1335
      vertex -15.1188 0 32.38
    endloop
  endfacet
  facet normal 0 -1 0
    outer loop
      vertex -19.5 0 34.5
      vertex -17.3524 0 30.7852
      vertex -15.464 0 32.1335
    endloop
  endfacet
  facet normal 0 -1 0
    outer loop
      vertex -19.5 0 34.5
      vertex -18.92 0 28.4592
      vertex -17.3524 0 30.7852
    endloop
  endfacet
  facet normal 0 -1 0
    outer loop
      vertex -40 0 34.5
      vertex -19.5083 0 26.4224
      vertex -18.92 0 28.4592
    endloop
  endfacet
  facet normal 0 -1 0
    outer loop
      vertex -40 0 34.5
      vertex -19.6958 0 25.7731
      vertex -19.5083 0 26.4224
    endloop
  endfacet
  facet normal 0 -1 0
    outer loop
      vertex -40 0 34.5
      vertex -19.6956 0 24.9929
      vertex -19.6958 0 25.7731
    endloop
  endfacet
  facet normal 0 -1 0
    outer loop
      vertex -40 0 34.5
      vertex -19.6949 0 23.0733
      vertex -19.6956 0 24.9929
    endloop
  endfacet
  facet normal 0 -1 0
    outer loop
      vertex -40 0 34.5
      vertex -19.254 0 21.4681
      vertex -19.6949 0 23.0733
    endloop
  endfacet
  facet normal 0 -1 0
    outer loop
      vertex -40 0 0
      vertex -19.254 0 21.4681
      vertex -40 0 34.5
    endloop
  endfacet
  facet normal 0 -1 -0
    outer loop
      vertex -19.254 0 21.4681
      vertex -40 0 0
      vertex -19.0228 0 20.626
    endloop
  endfacet
  facet normal 0 -1 -0
    outer loop
      vertex -19.0228 0 20.626
      vertex -40 0 0
      vertex -18.5378 0 19.8092
    endloop
  endfacet
  facet normal 0 -1 -0
    outer loop
      vertex -18.5378 0 19.8092
      vertex -40 0 0
      vertex -17.824 0 18.6068
    endloop
  endfacet
  facet normal 0 -1 0
    outer loop
      vertex -40 0 0
      vertex -15.2915 0 16.6387
      vertex -16.2477 0 17.117
    endloop
  endfacet
  facet normal 0 -1 0
    outer loop
      vertex -14.4317 0 16.2085
      vertex 0 0 0
      vertex -13.4532 0 16.0541
    endloop
  endfacet
  facet normal 0 -1 0
    outer loop
      vertex 0 0 0
      vertex -14.4317 0 16.2085
      vertex -40 0 0
    endloop
  endfacet
  facet normal 0 -1 -0
    outer loop
      vertex -15.2915 0 16.6387
      vertex -40 0 0
      vertex -14.4317 0 16.2085
    endloop
  endfacet
  facet normal 0 -1 -0
    outer loop
      vertex -17.824 0 18.6068
      vertex -40 0 0
      vertex -16.2477 0 17.117
    endloop
  endfacet
  facet normal 0 -1 0
    outer loop
      vertex -12.5 0 32.9493
      vertex -19.5 0 49.5
      vertex -19.5 0 34.5
    endloop
  endfacet
  facet normal 0 -1 0
    outer loop
      vertex -19.5 0 49.5
      vertex -12.5 0 32.9493
      vertex 0 0 49.5
    endloop
  endfacet
  facet normal 0 -1 0
    outer loop
      vertex -10.2605 0 32.4624
      vertex 0 0 49.5
      vertex -12.5 0 32.9493
    endloop
  endfacet
  facet normal 0 -1 0
    outer loop
      vertex -9.8812 0 32.38
      vertex 0 0 49.5
      vertex -10.2605 0 32.4624
    endloop
  endfacet
  facet normal 0 -1 0
    outer loop
      vertex -9.53603 0 32.1335
      vertex 0 0 49.5
      vertex -9.8812 0 32.38
    endloop
  endfacet
  facet normal 0 -1 0
    outer loop
      vertex -7.64764 0 30.7852
      vertex 0 0 49.5
      vertex -9.53603 0 32.1335
    endloop
  endfacet
  facet normal 0 -1 0
    outer loop
      vertex -6.08004 0 28.4592
      vertex 0 0 49.5
      vertex -7.64764 0 30.7852
    endloop
  endfacet
  facet normal 0 -1 0
    outer loop
      vertex -5.49171 0 26.4224
      vertex 0 0 49.5
      vertex -6.08004 0 28.4592
    endloop
  endfacet
  facet normal 0 -1 0
    outer loop
      vertex -5.30415 0 25.7731
      vertex 0 0 49.5
      vertex -5.49171 0 26.4224
    endloop
  endfacet
  facet normal 0 -1 0
    outer loop
      vertex -5.3048 0 23.8606
      vertex 0 0 49.5
      vertex -5.30415 0 25.7731
    endloop
  endfacet
  facet normal 0 -1 0
    outer loop
      vertex 0 0 0
      vertex -5.3048 0 23.8606
      vertex -5.30506 0 23.0733
    endloop
  endfacet
  facet normal 0 -1 0
    outer loop
      vertex 0 0 0
      vertex -9.70846 0 16.6387
      vertex -10.5683 0 16.2085
    endloop
  endfacet
  facet normal 0 -1 0
    outer loop
      vertex -13.4532 0 16.0541
      vertex 0 0 0
      vertex -12.5 0 15.9036
    endloop
  endfacet
  facet normal 0 -1 0
    outer loop
      vertex -12.5 0 15.9036
      vertex 0 0 0
      vertex -11.5468 0 16.0541
    endloop
  endfacet
  facet normal 0 -1 0
    outer loop
      vertex -11.5468 0 16.0541
      vertex 0 0 0
      vertex -10.5683 0 16.2085
    endloop
  endfacet
  facet normal 0 -1 0
    outer loop
      vertex -5.3048 0 23.8606
      vertex 0 0 0
      vertex 0 0 49.5
    endloop
  endfacet
  facet normal 0 -1 0
    outer loop
      vertex -5.5394 0 22.2201
      vertex 0 0 0
      vertex -5.30506 0 23.0733
    endloop
  endfacet
  facet normal 0 -1 0
    outer loop
      vertex -5.97723 0 20.626
      vertex 0 0 0
      vertex -5.5394 0 22.2201
    endloop
  endfacet
  facet normal 0 -1 0
    outer loop
      vertex -6.4622 0 19.8092
      vertex 0 0 0
      vertex -5.97723 0 20.626
    endloop
  endfacet
  facet normal 0 -1 0
    outer loop
      vertex -7.17602 0 18.6068
      vertex 0 0 0
      vertex -6.4622 0 19.8092
    endloop
  endfacet
  facet normal 0 -1 0
    outer loop
      vertex -8.75231 0 17.117
      vertex 0 0 0
      vertex -7.17602 0 18.6068
    endloop
  endfacet
  facet normal 0 -1 0
    outer loop
      vertex -9.70846 0 16.6387
      vertex 0 0 0
      vertex -8.75231 0 17.117
    endloop
  endfacet
  facet normal 0 0 1
    outer loop
      vertex -19.5 13 49.5
      vertex -16.5 20 49.5
      vertex -19.5 20 49.5
    endloop
  endfacet
  facet normal -0 0 1
    outer loop
      vertex -16.5 3 49.5
      vertex 0 0 49.5
      vertex 0 3 49.5
    endloop
  endfacet
  facet normal 0 0 1
    outer loop
      vertex -16.5 20 49.5
      vertex -19.5 13 49.5
      vertex -16.5 3 49.5
    endloop
  endfacet
  facet normal -0 0 1
    outer loop
      vertex -19.5 7 49.5
      vertex -16.5 3 49.5
      vertex -19.5 13 49.5
    endloop
  endfacet
  facet normal 0 0 1
    outer loop
      vertex -16.5 3 49.5
      vertex -19.5 0 49.5
      vertex 0 0 49.5
    endloop
  endfacet
  facet normal 0 0 1
    outer loop
      vertex -19.5 0 49.5
      vertex -16.5 3 49.5
      vertex -19.5 7 49.5
    endloop
  endfacet
  facet normal -0 0 1
    outer loop
      vertex -24.5 13 49.5
      vertex -19.5 7 49.5
      vertex -19.5 13 49.5
    endloop
  endfacet
  facet normal 0 0 1
    outer loop
      vertex -19.5 7 49.5
      vertex -24.5 13 49.5
      vertex -24.5 7 49.5
    endloop
  endfacet
  facet normal -1 0 0
    outer loop
      vertex -19.5 13 34.5
      vertex -19.5 20 49.5
      vertex -19.5 20 34.5
    endloop
  endfacet
  facet normal -1 -0 0
    outer loop
      vertex -19.5 20 49.5
      vertex -19.5 13 34.5
      vertex -19.5 13 49.5
    endloop
  endfacet
  facet normal -1 0 0
    outer loop
      vertex -19.5 0 34.5
      vertex -19.5 7 49.5
      vertex -19.5 7 34.5
    endloop
  endfacet
  facet normal -1 -0 0
    outer loop
      vertex -19.5 7 49.5
      vertex -19.5 0 34.5
      vertex -19.5 0 49.5
    endloop
  endfacet
  facet normal -1 0 0
    outer loop
      vertex -24.5 7 34.5
      vertex -24.5 13 49.5
      vertex -24.5 13 34.5
    endloop
  endfacet
  facet normal -1 -0 0
    outer loop
      vertex -24.5 13 49.5
      vertex -24.5 7 34.5
      vertex -24.5 7 49.5
    endloop
  endfacet
  facet normal 0 1 -0
    outer loop
      vertex -19.5 13 34.5
      vertex -24.5 13 49.5
      vertex -19.5 13 49.5
    endloop
  endfacet
  facet normal 0 1 0
    outer loop
      vertex -24.5 13 49.5
      vertex -19.5 13 34.5
      vertex -24.5 13 34.5
    endloop
  endfacet
  facet normal 0 -1 0
    outer loop
      vertex -24.5 7 34.5
      vertex -19.5 7 49.5
      vertex -24.5 7 49.5
    endloop
  endfacet
  facet normal 0 -1 -0
    outer loop
      vertex -19.5 7 49.5
      vertex -24.5 7 34.5
      vertex -19.5 7 34.5
    endloop
  endfacet
  facet normal 1 -0 0
    outer loop
      vertex -16.5 3 49.5
      vertex -16.5 20 38.1147
      vertex -16.5 20 49.5
    endloop
  endfacet
  facet normal 1 0 0
    outer loop
      vertex -16.5 20 38.1147
      vertex -16.5 3 49.5
      vertex -16.5 14 32.5
    endloop
  endfacet
  facet normal 1 0 0
    outer loop
      vertex -16.5 14 32.5
      vertex -16.5 3 49.5
      vertex -16.5 3 32.5
    endloop
  endfacet
  facet normal 1 0 0
    outer loop
      vertex -16.5 14 31.7224
      vertex -16.5 20 38.1147
      vertex -16.5 14 32.5
    endloop
  endfacet
  facet normal 1 -0 0
    outer loop
      vertex -16.5 14 31.7224
      vertex -16.5 9.45667 19.8532
      vertex -16.5 20 38.1147
    endloop
  endfacet
  facet normal 1 0 0
    outer loop
      vertex -16.5 14 31.7224
      vertex -16.5 8.76246 21.1
      vertex -16.5 9.45667 19.8532
    endloop
  endfacet
  facet normal 1 0 0
    outer loop
      vertex -16.5 14 31.7224
      vertex -16.5 8.54085 21.498
      vertex -16.5 8.76246 21.1
    endloop
  endfacet
  facet normal 1 0 -0
    outer loop
      vertex -16.5 8.54085 21.498
      vertex -16.5 14 31.7224
      vertex -16.5 8.28173 21.8181
    endloop
  endfacet
  facet normal 1 0 -0
    outer loop
      vertex -16.5 20 22.5
      vertex -16.5 20 24.1147
      vertex -16.5 19.0677 22.5
    endloop
  endfacet
  facet normal -0 0 1
    outer loop
      vertex -16.5 14 32.5
      vertex 0 3 32.5
      vertex 0 14 32.5
    endloop
  endfacet
  facet normal 0 0 1
    outer loop
      vertex 0 3 32.5
      vertex -16.5 14 32.5
      vertex -16.5 3 32.5
    endloop
  endfacet
  facet normal 0 1 -0
    outer loop
      vertex 0 3 32.5
      vertex -16.5 3 49.5
      vertex 0 3 49.5
    endloop
  endfacet
  facet normal 0 1 0
    outer loop
      vertex -16.5 3 49.5
      vertex 0 3 32.5
      vertex -16.5 3 32.5
    endloop
  endfacet
  facet normal -0 0 1
    outer loop
      vertex -6.5 14.4489 22.5
      vertex 0 14 22.5
      vertex 0 14.4489 22.5
    endloop
  endfacet
  facet normal 0 0 1
    outer loop
      vertex 0 14 22.5
      vertex -6.5 14.4489 22.5
      vertex -6.5 14 22.5
    endloop
  endfacet
  facet normal -0 0 1
    outer loop
      vertex -16.5 20 22.5
      vertex 0 19.0677 22.5
      vertex 0 20 22.5
    endloop
  endfacet
  facet normal 0 0 1
    outer loop
      vertex 0 19.0677 22.5
      vertex -16.5 20 22.5
      vertex -16.5 19.0677 22.5
    endloop
  endfacet
  facet normal 0 1 0
    outer loop
      vertex 0 14 32.5
      vertex -8.5 14 31.7224
      vertex -16.5 14 32.5
    endloop
  endfacet
  facet normal 0 1 0
    outer loop
      vertex 0 14 32.5
      vertex -6.5 14 27.7224
      vertex -8.5 14 31.7224
    endloop
  endfacet
  facet normal 0 1 -0
    outer loop
      vertex 0 14 22.5
      vertex -6.5 14 27.7224
      vertex 0 14 32.5
    endloop
  endfacet
  facet normal 0 1 0
    outer loop
      vertex -6.5 14 27.7224
      vertex 0 14 22.5
      vertex -6.5 14 22.5
    endloop
  endfacet
  facet normal 0 1 0
    outer loop
      vertex -16.5 14 32.5
      vertex -8.5 14 31.7224
      vertex -16.5 14 31.7224
    endloop
  endfacet
  facet normal 0 1 0
    outer loop
      vertex -8.5 14 31.7224
      vertex -6.5 14 27.7224
      vertex -8.5 14 27.7224
    endloop
  endfacet
  facet normal 0 0.866026 -0.499999
    outer loop
      vertex 0 14.4489 22.5
      vertex -6.5 4.33494 4.98205
      vertex -6.5 14.4489 22.5
    endloop
  endfacet
  facet normal 0 0.866025 -0.5
    outer loop
      vertex -6.5 4.33494 4.98205
      vertex 0 3.33494 3.25
      vertex -17.5 4.33494 4.98205
    endloop
  endfacet
  facet normal 4.53912e-07 0.866026 -0.499999
    outer loop
      vertex 0 3.33494 3.25
      vertex -6.5 4.33494 4.98205
      vertex 0 14.4489 22.5
    endloop
  endfacet
  facet normal 0 0.866025 -0.5
    outer loop
      vertex -17.5 4.33494 4.98205
      vertex -25 20 32.1147
      vertex -17.5 20 32.1147
    endloop
  endfacet
  facet normal 6.86987e-08 0.866025 -0.5
    outer loop
      vertex -17.5 4.33494 4.98205
      vertex -25 3.33494 3.25
      vertex -25 20 32.1147
    endloop
  endfacet
  facet normal 0 0.866025 -0.5
    outer loop
      vertex -25 3.33494 3.25
      vertex -17.5 4.33494 4.98205
      vertex 0 3.33494 3.25
    endloop
  endfacet
  facet normal -5.95238e-08 -0.866025 0.5
    outer loop
      vertex -23 5.5 2
      vertex -2 6.25 3.29904
      vertex -23 6.5 3.73205
    endloop
  endfacet
  facet normal 0 -0.866026 0.499999
    outer loop
      vertex -2 6.25 3.29904
      vertex -23 5.5 2
      vertex -2 5.5 2
    endloop
  endfacet
  facet normal 0 -0.866026 0.499999
    outer loop
      vertex -23 6.5 3.73205
      vertex -25 14.5 17.5885
      vertex -25 6.5 3.73205
    endloop
  endfacet
  facet normal 0 -0.866026 0.499999
    outer loop
      vertex -25 14.5 17.5885
      vertex -23 6.5 3.73205
      vertex 0 14.5 17.5885
    endloop
  endfacet
  facet normal -9.3525e-08 -0.866026 0.499999
    outer loop
      vertex -2 6.25 3.29904
      vertex 0 14.5 17.5885
      vertex -23 6.5 3.73205
    endloop
  endfacet
  facet normal 0 -0.866026 0.499999
    outer loop
      vertex 0 14.5 17.5885
      vertex -2 6.25 3.29904
      vertex 0 6.25 3.29904
    endloop
  endfacet
  facet normal 0 0.499998 0.866026
    outer loop
      vertex -2 5.5 2
      vertex -23 5.5 2
      vertex -2 4.26454 2.71329
    endloop
  endfacet
  facet normal -0 0.500004 0.866023
    outer loop
      vertex -2 4.26454 2.71329
      vertex 0 3.33494 3.25
      vertex 0 4.26454 2.71329
    endloop
  endfacet
  facet normal 2.06196e-07 0.500001 0.866025
    outer loop
      vertex -23 3.85272 2.95106
      vertex -2 4.26454 2.71329
      vertex -23 5.5 2
    endloop
  endfacet
  facet normal 1.31096e-07 0.500004 0.866023
    outer loop
      vertex -2 4.26454 2.71329
      vertex -23 3.85272 2.95106
      vertex 0 3.33494 3.25
    endloop
  endfacet
  facet normal 0 0.499999 0.866026
    outer loop
      vertex -25 3.33494 3.25
      vertex -23 3.85272 2.95106
      vertex -25 3.85272 2.95106
    endloop
  endfacet
  facet normal 0 0.499999 0.866026
    outer loop
      vertex -23 3.85272 2.95106
      vertex -25 3.33494 3.25
      vertex 0 3.33494 3.25
    endloop
  endfacet
  facet normal 1 0 0
    outer loop
      vertex -25 14.5 17.5885
      vertex -25 20 24.1147
      vertex -25 20 32.1147
    endloop
  endfacet
  facet normal 1 0 0
    outer loop
      vertex -25 20 24.1147
      vertex -25 14.5 17.5885
      vertex -25 15.799 16.8385
    endloop
  endfacet
  facet normal 1 0 0
    outer loop
      vertex -25 3.33494 3.25
      vertex -25 14.5 17.5885
      vertex -25 20 32.1147
    endloop
  endfacet
  facet normal 1 0 0
    outer loop
      vertex -25 14.5 17.5885
      vertex -25 5.29094 3.98904
      vertex -25 6.5 3.73205
    endloop
  endfacet
  facet normal 1 0 0
    outer loop
      vertex -25 14.5 17.5885
      vertex -25 3.33494 3.25
      vertex -25 5.29094 3.98904
    endloop
  endfacet
  facet normal 1 0 0
    outer loop
      vertex -25 5.29094 3.98904
      vertex -25 3.33494 3.25
      vertex -25 4.16174 3.48629
    endloop
  endfacet
  facet normal 1 0 0
    outer loop
      vertex -25 4.16174 3.48629
      vertex -25 3.33494 3.25
      vertex -25 3.85272 2.95106
    endloop
  endfacet
  facet normal 0 -0.406729 0.913549
    outer loop
      vertex -2 5.34321 3.49178
      vertex 0 4.4963 3.11472
      vertex 0 5.34321 3.49178
    endloop
  endfacet
  facet normal 0 -0.406729 0.913549
    outer loop
      vertex 0 4.4963 3.11472
      vertex -2 5.34321 3.49178
      vertex -2 4.4963 3.11472
    endloop
  endfacet
  facet normal -0 0.207907 0.978149
    outer loop
      vertex -2 6.25 3.29904
      vertex 0 5.34321 3.49178
      vertex 0 6.25 3.29904
    endloop
  endfacet
  facet normal 0 0.207907 0.978149
    outer loop
      vertex 0 5.34321 3.49178
      vertex -2 6.25 3.29904
      vertex -2 5.34321 3.49178
    endloop
  endfacet
  facet normal 0 -0.866031 0.499991
    outer loop
      vertex -2 4.26454 2.71329
      vertex 0 4.4963 3.11472
      vertex -2 4.4963 3.11472
    endloop
  endfacet
  facet normal 0 -0.866031 0.499991
    outer loop
      vertex 0 4.4963 3.11472
      vertex -2 4.26454 2.71329
      vertex 0 4.26454 2.71329
    endloop
  endfacet
  facet normal -1 0 0
    outer loop
      vertex -2 5.5 2
      vertex -2 5.34321 3.49178
      vertex -2 6.25 3.29904
    endloop
  endfacet
  facet normal -1 0 0
    outer loop
      vertex -2 5.5 2
      vertex -2 4.4963 3.11472
      vertex -2 5.34321 3.49178
    endloop
  endfacet
  facet normal -1 0 -0
    outer loop
      vertex -2 4.4963 3.11472
      vertex -2 5.5 2
      vertex -2 4.26454 2.71329
    endloop
  endfacet
  facet normal -0 0.207909 0.978148
    outer loop
      vertex -25 6.5 3.73205
      vertex -23 5.29094 3.98904
      vertex -23 6.5 3.73205
    endloop
  endfacet
  facet normal 0 0.207909 0.978148
    outer loop
      vertex -23 5.29094 3.98904
      vertex -25 6.5 3.73205
      vertex -25 5.29094 3.98904
    endloop
  endfacet
  facet normal 0 -0.866022 0.500006
    outer loop
      vertex -25 3.85272 2.95106
      vertex -23 4.16174 3.48629
      vertex -25 4.16174 3.48629
    endloop
  endfacet
  facet normal 0 -0.866022 0.500006
    outer loop
      vertex -23 4.16174 3.48629
      vertex -25 3.85272 2.95106
      vertex -23 3.85272 2.95106
    endloop
  endfacet
  facet normal 0 -0.406735 0.913546
    outer loop
      vertex -25 5.29094 3.98904
      vertex -23 4.16174 3.48629
      vertex -23 5.29094 3.98904
    endloop
  endfacet
  facet normal 0 -0.406735 0.913546
    outer loop
      vertex -23 4.16174 3.48629
      vertex -25 5.29094 3.98904
      vertex -25 4.16174 3.48629
    endloop
  endfacet
  facet normal 1 0 0
    outer loop
      vertex -23 5.29094 3.98904
      vertex -23 5.5 2
      vertex -23 6.5 3.73205
    endloop
  endfacet
  facet normal 1 -0 0
    outer loop
      vertex -23 4.16174 3.48629
      vertex -23 5.5 2
      vertex -23 5.29094 3.98904
    endloop
  endfacet
  facet normal 1 0 0
    outer loop
      vertex -23 5.5 2
      vertex -23 4.16174 3.48629
      vertex -23 3.85272 2.95106
    endloop
  endfacet
  facet normal 0 0.866023 -0.500004
    outer loop
      vertex -6.5 14 27.7224
      vertex -8.5 9.45667 19.8532
      vertex -8.5 14 27.7224
    endloop
  endfacet
  facet normal -2.76452e-05 0.866026 -0.499998
    outer loop
      vertex -6.5 14 27.7224
      vertex -8.22025 9.18215 19.3777
      vertex -8.5 9.45667 19.8532
    endloop
  endfacet
  facet normal -3.32915e-05 0.866027 -0.499998
    outer loop
      vertex -6.5 14 27.7224
      vertex -8 8.48686 18.1734
      vertex -8.22025 9.18215 19.3777
    endloop
  endfacet
  facet normal -1.10438e-05 0.866022 -0.500005
    outer loop
      vertex -11.1094 6.34698 14.467
      vertex -6.5 1.73686 6.48205
      vertex -12.5 6.23686 14.2763
    endloop
  endfacet
  facet normal 1.73823e-05 0.866029 -0.499993
    outer loop
      vertex -9.85497 6.66657 15.0206
      vertex -6.5 1.73686 6.48205
      vertex -11.1094 6.34698 14.467
    endloop
  endfacet
  facet normal -2.5164e-05 0.866022 -0.500006
    outer loop
      vertex -8.85942 7.16434 15.8827
      vertex -6.5 1.73686 6.48205
      vertex -9.85497 6.66657 15.0206
    endloop
  endfacet
  facet normal 4.5032e-06 0.866025 -0.5
    outer loop
      vertex -8.22025 7.79157 16.9691
      vertex -6.5 1.73686 6.48205
      vertex -8.85942 7.16434 15.8827
    endloop
  endfacet
  facet normal 2.8909e-05 0.866027 -0.499997
    outer loop
      vertex -8 8.48686 18.1734
      vertex -6.5 1.73686 6.48205
      vertex -8.22025 7.79157 16.9691
    endloop
  endfacet
  facet normal -8.13656e-06 0.866025 -0.500001
    outer loop
      vertex -6.5 1.73686 6.48205
      vertex -8 8.48686 18.1734
      vertex -6.5 14 27.7224
    endloop
  endfacet
  facet normal 0 0.866024 -0.500002
    outer loop
      vertex -16.5 9.45667 19.8532
      vertex -17.5 20 38.1147
      vertex -16.5 20 38.1147
    endloop
  endfacet
  facet normal 3.201e-05 0.866025 -0.5
    outer loop
      vertex -16.7798 9.18215 19.3777
      vertex -17.5 20 38.1147
      vertex -16.5 9.45667 19.8532
    endloop
  endfacet
  facet normal 4.99551e-05 0.866025 -0.5
    outer loop
      vertex -17 8.48686 18.1734
      vertex -17.5 20 38.1147
      vertex -16.7798 9.18215 19.3777
    endloop
  endfacet
  facet normal 0 0.866026 -0.499999
    outer loop
      vertex -17.5 1.73686 6.48205
      vertex -12.5 6.23686 14.2763
      vertex -6.5 1.73686 6.48205
    endloop
  endfacet
  facet normal 1.12224e-05 0.866023 -0.500004
    outer loop
      vertex -12.5 6.23686 14.2763
      vertex -17.5 1.73686 6.48205
      vertex -13.8906 6.34698 14.467
    endloop
  endfacet
  facet normal -1.81835e-05 0.866029 -0.499994
    outer loop
      vertex -13.8906 6.34698 14.467
      vertex -17.5 1.73686 6.48205
      vertex -15.145 6.66657 15.0206
    endloop
  endfacet
  facet normal 2.0497e-05 0.866025 -0.5
    outer loop
      vertex -17 8.48686 18.1734
      vertex -17.5 1.73686 6.48205
      vertex -17.5 20 38.1147
    endloop
  endfacet
  facet normal -3.98742e-05 0.866026 -0.499998
    outer loop
      vertex -16.7798 7.79157 16.9691
      vertex -17.5 1.73686 6.48205
      vertex -17 8.48686 18.1734
    endloop
  endfacet
  facet normal -5.15659e-06 0.866025 -0.5
    outer loop
      vertex -16.1406 7.16434 15.8827
      vertex -17.5 1.73686 6.48205
      vertex -16.7798 7.79157 16.9691
    endloop
  endfacet
  facet normal 2.72229e-05 0.866023 -0.500004
    outer loop
      vertex -15.145 6.66657 15.0206
      vertex -17.5 1.73686 6.48205
      vertex -16.1406 7.16434 15.8827
    endloop
  endfacet
  facet normal -0 0.499999 0.866026
    outer loop
      vertex -17.5 4.33494 4.98205
      vertex -6.5 1.73686 6.48205
      vertex -6.5 4.33494 4.98205
    endloop
  endfacet
  facet normal 0 0.499999 0.866026
    outer loop
      vertex -6.5 1.73686 6.48205
      vertex -17.5 4.33494 4.98205
      vertex -17.5 1.73686 6.48205
    endloop
  endfacet
  facet normal 1 0 0
    outer loop
      vertex -17.5 1.73686 6.48205
      vertex -17.5 20 32.1147
      vertex -17.5 20 38.1147
    endloop
  endfacet
  facet normal 1 0 0
    outer loop
      vertex -17.5 20 32.1147
      vertex -17.5 1.73686 6.48205
      vertex -17.5 4.33494 4.98205
    endloop
  endfacet
  facet normal -1 0 0
    outer loop
      vertex -6.5 4.33494 4.98205
      vertex -6.5 14 22.5
      vertex -6.5 14.4489 22.5
    endloop
  endfacet
  facet normal -1 0 0
    outer loop
      vertex -6.5 1.73686 6.48205
      vertex -6.5 14 22.5
      vertex -6.5 4.33494 4.98205
    endloop
  endfacet
  facet normal -1 -0 0
    outer loop
      vertex -6.5 14 22.5
      vertex -6.5 1.73686 6.48205
      vertex -6.5 14 27.7224
    endloop
  endfacet
  facet normal 0 0.866025 -0.5
    outer loop
      vertex -8.5 14 31.7224
      vertex -12.5 9.27981 23.5468
      vertex -16.5 14 31.7224
    endloop
  endfacet
  facet normal -2.54182e-05 0.866031 -0.499991
    outer loop
      vertex -8.5 14 31.7224
      vertex -12.191 9.25534 23.5044
      vertex -12.5 9.27981 23.5468
    endloop
  endfacet
  facet normal 2.398e-05 0.866021 -0.500008
    outer loop
      vertex -8.5 14 31.7224
      vertex -10.9395 9.15623 23.3328
      vertex -12.191 9.25534 23.5044
    endloop
  endfacet
  facet normal -5.31285e-06 0.866025 -0.500001
    outer loop
      vertex -8.5 14 31.7224
      vertex -9.81045 8.8686 22.8346
      vertex -10.9395 9.15623 23.3328
    endloop
  endfacet
  facet normal 1.61978e-05 0.866023 -0.500004
    outer loop
      vertex -8.5 14 31.7224
      vertex -9.53168 8.79758 22.7116
      vertex -9.81045 8.8686 22.8346
    endloop
  endfacet
  facet normal -1.9595e-05 0.866025 -0.500001
    outer loop
      vertex -9.53168 8.79758 22.7116
      vertex -8.5 14 31.7224
      vertex -8.5 8.28174 21.8181
    endloop
  endfacet
  facet normal 2.54182e-05 0.866031 -0.499991
    outer loop
      vertex -12.809 9.25534 23.5044
      vertex -16.5 14 31.7224
      vertex -12.5 9.27981 23.5468
    endloop
  endfacet
  facet normal -2.398e-05 0.866021 -0.500008
    outer loop
      vertex -14.0605 9.15623 23.3328
      vertex -16.5 14 31.7224
      vertex -12.809 9.25534 23.5044
    endloop
  endfacet
  facet normal 5.31305e-06 0.866025 -0.500001
    outer loop
      vertex -15.1895 8.8686 22.8346
      vertex -16.5 14 31.7224
      vertex -14.0605 9.15623 23.3328
    endloop
  endfacet
  facet normal -1.61962e-05 0.866023 -0.500004
    outer loop
      vertex -15.4683 8.79758 22.7116
      vertex -16.5 14 31.7224
      vertex -15.1895 8.8686 22.8346
    endloop
  endfacet
  facet normal 1.19577e-05 0.866025 -0.500001
    outer loop
      vertex -16.5 14 31.7224
      vertex -15.4683 8.79758 22.7116
      vertex -16.5 8.28173 21.8181
    endloop
  endfacet
  facet normal -1 0 0
    outer loop
      vertex -8.5 8.76246 21.1
      vertex -8.5 14 27.7224
      vertex -8.5 9.45667 19.8532
    endloop
  endfacet
  facet normal -1 0 0
    outer loop
      vertex -8.5 8.54085 21.498
      vertex -8.5 14 27.7224
      vertex -8.5 8.76246 21.1
    endloop
  endfacet
  facet normal -1 0 0
    outer loop
      vertex -8.5 8.28174 21.8181
      vertex -8.5 14 27.7224
      vertex -8.5 8.54085 21.498
    endloop
  endfacet
  facet normal -1 -0 0
    outer loop
      vertex -8.5 14 27.7224
      vertex -8.5 8.28174 21.8181
      vertex -8.5 14 31.7224
    endloop
  endfacet
  facet normal -0.150858 -0.703578 -0.694421
    outer loop
      vertex -12.191 9.25534 23.5044
      vertex -9.8812 0 32.38
      vertex -10.2605 0 32.4624
    endloop
  endfacet
  facet normal -0.150932 -0.703579 -0.694403
    outer loop
      vertex -9.8812 0 32.38
      vertex -12.191 9.25534 23.5044
      vertex -10.9395 9.15623 23.3328
    endloop
  endfacet
  facet normal 0.682341 0.114218 0.722056
    outer loop
      vertex -17.824 0 18.6068
      vertex -15.145 6.66657 15.0206
      vertex -16.1406 7.16434 15.8827
    endloop
  endfacet
  facet normal 0.682393 0.114175 0.722014
    outer loop
      vertex -15.145 6.66657 15.0206
      vertex -17.824 0 18.6068
      vertex -16.2477 0 17.117
    endloop
  endfacet
  facet normal -0.682335 -0.568213 -0.459949
    outer loop
      vertex -8.5 8.54085 21.498
      vertex -6.08004 0 28.4592
      vertex -8.5 8.28174 21.8181
    endloop
  endfacet
  facet normal -0.682392 -0.568187 -0.459896
    outer loop
      vertex -6.08004 0 28.4592
      vertex -9.53168 8.79758 22.7116
      vertex -8.5 8.28174 21.8181
    endloop
  endfacet
  facet normal -0.682392 -0.568187 -0.459896
    outer loop
      vertex -9.53168 8.79758 22.7116
      vertex -6.08004 0 28.4592
      vertex -7.64764 0 30.7852
    endloop
  endfacet
  facet normal -0.438156 0.202918 0.875696
    outer loop
      vertex -11.1094 6.34698 14.467
      vertex -9.70846 0 16.6387
      vertex -9.85497 6.66657 15.0206
    endloop
  endfacet
  facet normal -0.438137 0.202925 0.875704
    outer loop
      vertex -9.70846 0 16.6387
      vertex -11.1094 6.34698 14.467
      vertex -10.5683 0 16.2085
    endloop
  endfacet
  facet normal 0.150972 -0.703577 -0.694397
    outer loop
      vertex -14.7395 0 32.4624
      vertex -12.5 9.27981 23.5468
      vertex -12.5 0 32.9493
    endloop
  endfacet
  facet normal 0.150999 -0.703578 -0.69439
    outer loop
      vertex -12.5 9.27981 23.5468
      vertex -14.7395 0 32.4624
      vertex -12.809 9.25534 23.5044
    endloop
  endfacet
  facet normal 0.150858 -0.703578 -0.694421
    outer loop
      vertex -15.1188 0 32.38
      vertex -12.809 9.25534 23.5044
      vertex -14.7395 0 32.4624
    endloop
  endfacet
  facet normal 0.150932 -0.703579 -0.694403
    outer loop
      vertex -12.809 9.25534 23.5044
      vertex -15.1188 0 32.38
      vertex -14.0605 9.15623 23.3328
    endloop
  endfacet
  facet normal -0.859848 -0.446063 -0.248372
    outer loop
      vertex -5.49171 0 26.4224
      vertex -8.5 8.54085 21.498
      vertex -8.5 8.76246 21.1
    endloop
  endfacet
  facet normal -0.85985 -0.446061 -0.248368
    outer loop
      vertex -8.5 8.54085 21.498
      vertex -5.49171 0 26.4224
      vertex -6.08004 0 28.4592
    endloop
  endfacet
  facet normal 0.953142 -0.302522 0.000244333
    outer loop
      vertex -19.6956 0 24.9929
      vertex -16.7798 9.18215 19.3777
      vertex -19.6958 0 25.7731
    endloop
  endfacet
  facet normal 0.95316 -0.302466 0.000345096
    outer loop
      vertex -16.7798 9.18215 19.3777
      vertex -19.6956 0 24.9929
      vertex -17 8.48686 18.1734
    endloop
  endfacet
  facet normal 0.438164 0.202918 0.875692
    outer loop
      vertex -15.2915 0 16.6387
      vertex -13.8906 6.34698 14.467
      vertex -15.145 6.66657 15.0206
    endloop
  endfacet
  facet normal 0.438154 0.202922 0.875696
    outer loop
      vertex -13.8906 6.34698 14.467
      vertex -15.2915 0 16.6387
      vertex -14.4317 0 16.2085
    endloop
  endfacet
  facet normal 0.953161 -0.302464 0.000347579
    outer loop
      vertex -19.6956 0 24.9929
      vertex -19.6949 0 23.0733
      vertex -17 8.48686 18.1734
    endloop
  endfacet
  facet normal -0.859858 -0.00794209 0.510472
    outer loop
      vertex -6.4622 0 19.8092
      vertex -8.22025 7.79157 16.9691
      vertex -8.85942 7.16434 15.8827
    endloop
  endfacet
  facet normal -0.85983 -0.00791878 0.510519
    outer loop
      vertex -8.22025 7.79157 16.9691
      vertex -6.4622 0 19.8092
      vertex -5.97723 0 20.626
    endloop
  endfacet
  facet normal 0.953155 -0.151511 0.261803
    outer loop
      vertex -19.6949 0 23.0733
      vertex -19.254 0 21.4681
      vertex -17 8.48686 18.1734
    endloop
  endfacet
  facet normal 0.859856 -0.446058 -0.248357
    outer loop
      vertex -19.5083 0 26.4224
      vertex -16.5 8.54085 21.498
      vertex -18.92 0 28.4592
    endloop
  endfacet
  facet normal 0.859848 -0.446064 -0.248372
    outer loop
      vertex -16.5 8.54085 21.498
      vertex -19.5083 0 26.4224
      vertex -16.5 8.76246 21.1
    endloop
  endfacet
  facet normal -0.150936 0.249585 0.956518
    outer loop
      vertex -12.5 6.23686 14.2763
      vertex -11.5468 0 16.0541
      vertex -11.1094 6.34698 14.467
    endloop
  endfacet
  facet normal -0.151022 0.249569 0.956508
    outer loop
      vertex -11.5468 0 16.0541
      vertex -12.5 6.23686 14.2763
      vertex -12.5 0 15.9036
    endloop
  endfacet
  facet normal -0.150931 0.249584 0.956518
    outer loop
      vertex -11.5468 0 16.0541
      vertex -10.5683 0 16.2085
      vertex -11.1094 6.34698 14.467
    endloop
  endfacet
  facet normal -0.859861 -0.00794571 0.510467
    outer loop
      vertex -7.17602 0 18.6068
      vertex -6.4622 0 19.8092
      vertex -8.85942 7.16434 15.8827
    endloop
  endfacet
  facet normal -0.438108 -0.656929 -0.613601
    outer loop
      vertex -9.81045 8.8686 22.8346
      vertex -7.64764 0 30.7852
      vertex -9.53603 0 32.1335
    endloop
  endfacet
  facet normal -0.438098 -0.656931 -0.613606
    outer loop
      vertex -7.64764 0 30.7852
      vertex -9.81045 8.8686 22.8346
      vertex -9.53168 8.79758 22.7116
    endloop
  endfacet
  facet normal -0.150972 -0.703577 -0.694397
    outer loop
      vertex -12.5 9.27981 23.5468
      vertex -10.2605 0 32.4624
      vertex -12.5 0 32.9493
    endloop
  endfacet
  facet normal -0.150999 -0.703578 -0.69439
    outer loop
      vertex -10.2605 0 32.4624
      vertex -12.5 9.27981 23.5468
      vertex -12.191 9.25534 23.5044
    endloop
  endfacet
  facet normal -0.438176 -0.656911 -0.613571
    outer loop
      vertex -10.9395 9.15623 23.3328
      vertex -9.53603 0 32.1335
      vertex -9.8812 0 32.38
    endloop
  endfacet
  facet normal -0.43811 -0.656928 -0.6136
    outer loop
      vertex -9.53603 0 32.1335
      vertex -10.9395 9.15623 23.3328
      vertex -9.81045 8.8686 22.8346
    endloop
  endfacet
  facet normal -0.682358 0.114209 0.722041
    outer loop
      vertex -9.85497 6.66657 15.0206
      vertex -7.17602 0 18.6068
      vertex -8.85942 7.16434 15.8827
    endloop
  endfacet
  facet normal -0.682395 0.114178 0.722011
    outer loop
      vertex -7.17602 0 18.6068
      vertex -9.85497 6.66657 15.0206
      vertex -8.75231 0 17.117
    endloop
  endfacet
  facet normal -0.859857 -0.446053 -0.248359
    outer loop
      vertex -8.22025 9.18215 19.3777
      vertex -8.5 8.76246 21.1
      vertex -8.5 9.45667 19.8532
    endloop
  endfacet
  facet normal -0.859854 -0.446059 -0.24836
    outer loop
      vertex -5.30415 0 25.7731
      vertex -8.5 8.76246 21.1
      vertex -8.22025 9.18215 19.3777
    endloop
  endfacet
  facet normal -0.859845 -0.446066 -0.248379
    outer loop
      vertex -8.5 8.76246 21.1
      vertex -5.30415 0 25.7731
      vertex -5.49171 0 26.4224
    endloop
  endfacet
  facet normal 0.682388 -0.568191 -0.459897
    outer loop
      vertex -15.4683 8.79758 22.7116
      vertex -18.92 0 28.4592
      vertex -16.5 8.28173 21.8181
    endloop
  endfacet
  facet normal 0.682296 -0.568232 -0.459982
    outer loop
      vertex -16.5 8.28173 21.8181
      vertex -18.92 0 28.4592
      vertex -16.5 8.54085 21.498
    endloop
  endfacet
  facet normal 0.68239 -0.56819 -0.459895
    outer loop
      vertex -18.92 0 28.4592
      vertex -15.4683 8.79758 22.7116
      vertex -17.3524 0 30.7852
    endloop
  endfacet
  facet normal -0.953154 -0.302484 0.000317116
    outer loop
      vertex -5.30506 0 23.0733
      vertex -8.22025 9.18215 19.3777
      vertex -8 8.48686 18.1734
    endloop
  endfacet
  facet normal -0.953154 -0.302485 0.000314772
    outer loop
      vertex -8.22025 9.18215 19.3777
      vertex -5.30506 0 23.0733
      vertex -5.3048 0 23.8606
    endloop
  endfacet
  facet normal -0.438073 0.20293 0.875735
    outer loop
      vertex -9.70846 0 16.6387
      vertex -8.75231 0 17.117
      vertex -9.85497 6.66657 15.0206
    endloop
  endfacet
  facet normal 0.953176 -0.151558 0.261696
    outer loop
      vertex -19.0228 0 20.626
      vertex -17 8.48686 18.1734
      vertex -19.254 0 21.4681
    endloop
  endfacet
  facet normal 0.953161 -0.151534 0.261767
    outer loop
      vertex -17 8.48686 18.1734
      vertex -19.0228 0 20.626
      vertex -16.7798 7.79157 16.9691
    endloop
  endfacet
  facet normal -0.953156 -0.151524 0.261791
    outer loop
      vertex -5.97723 0 20.626
      vertex -5.5394 0 22.2201
      vertex -8.22025 7.79157 16.9691
    endloop
  endfacet
  facet normal 0.438055 0.202933 0.875743
    outer loop
      vertex -16.2477 0 17.117
      vertex -15.2915 0 16.6387
      vertex -15.145 6.66657 15.0206
    endloop
  endfacet
  facet normal 0.859867 -0.00795121 0.510457
    outer loop
      vertex -18.5378 0 19.8092
      vertex -17.824 0 18.6068
      vertex -16.1406 7.16434 15.8827
    endloop
  endfacet
  facet normal -0.953155 -0.151519 0.261797
    outer loop
      vertex -5.5394 0 22.2201
      vertex -8 8.48686 18.1734
      vertex -8.22025 7.79157 16.9691
    endloop
  endfacet
  facet normal -0.953156 -0.151521 0.261794
    outer loop
      vertex -8 8.48686 18.1734
      vertex -5.5394 0 22.2201
      vertex -5.30506 0 23.0733
    endloop
  endfacet
  facet normal -0.953155 -0.302481 0.000323948
    outer loop
      vertex -5.3048 0 23.8606
      vertex -5.30415 0 25.7731
      vertex -8.22025 9.18215 19.3777
    endloop
  endfacet
  facet normal 0.859816 -0.00790162 0.510542
    outer loop
      vertex -18.5378 0 19.8092
      vertex -16.7798 7.79157 16.9691
      vertex -19.0228 0 20.626
    endloop
  endfacet
  facet normal 0.85985 -0.00793031 0.510485
    outer loop
      vertex -16.7798 7.79157 16.9691
      vertex -18.5378 0 19.8092
      vertex -16.1406 7.16434 15.8827
    endloop
  endfacet
  facet normal 0.150931 0.249584 0.956518
    outer loop
      vertex -14.4317 0 16.2085
      vertex -13.4532 0 16.0541
      vertex -13.8906 6.34698 14.467
    endloop
  endfacet
  facet normal 0.151022 0.249569 0.956508
    outer loop
      vertex -12.5 6.23686 14.2763
      vertex -13.4532 0 16.0541
      vertex -12.5 0 15.9036
    endloop
  endfacet
  facet normal 0.150936 0.249585 0.956518
    outer loop
      vertex -13.4532 0 16.0541
      vertex -12.5 6.23686 14.2763
      vertex -13.8906 6.34698 14.467
    endloop
  endfacet
  facet normal 0.859817 -0.446112 -0.248392
    outer loop
      vertex -16.5 8.76246 21.1
      vertex -16.7798 9.18215 19.3777
      vertex -16.5 9.45667 19.8532
    endloop
  endfacet
  facet normal 0.85988 -0.446037 -0.24831
    outer loop
      vertex -19.6958 0 25.7731
      vertex -16.5 8.76246 21.1
      vertex -19.5083 0 26.4224
    endloop
  endfacet
  facet normal 0.859844 -0.446064 -0.248385
    outer loop
      vertex -16.5 8.76246 21.1
      vertex -19.6958 0 25.7731
      vertex -16.7798 9.18215 19.3777
    endloop
  endfacet
  facet normal 0.438105 -0.656932 -0.6136
    outer loop
      vertex -17.3524 0 30.7852
      vertex -15.1895 8.8686 22.8346
      vertex -15.464 0 32.1335
    endloop
  endfacet
  facet normal 0.438061 -0.656941 -0.613622
    outer loop
      vertex -15.1895 8.8686 22.8346
      vertex -17.3524 0 30.7852
      vertex -15.4683 8.79758 22.7116
    endloop
  endfacet
  facet normal 0.438147 -0.656919 -0.613583
    outer loop
      vertex -15.464 0 32.1335
      vertex -14.0605 9.15623 23.3328
      vertex -15.1188 0 32.38
    endloop
  endfacet
  facet normal 0.438125 -0.656925 -0.613593
    outer loop
      vertex -14.0605 9.15623 23.3328
      vertex -15.464 0 32.1335
      vertex -15.1895 8.8686 22.8346
    endloop
  endfacet
  facet normal 0 -0.866013 0.500021
    outer loop
      vertex -25 20 24.1147
      vertex -16.5 19.0677 22.5
      vertex -16.5 20 24.1147
    endloop
  endfacet
  facet normal -3.45245e-06 -0.866021 0.500007
    outer loop
      vertex -25 15.799 16.8385
      vertex -16.5 19.0677 22.5
      vertex -25 20 24.1147
    endloop
  endfacet
  facet normal 0 -0.866023 0.500004
    outer loop
      vertex 0 15.799 16.8385
      vertex -16.5 19.0677 22.5
      vertex -25 15.799 16.8385
    endloop
  endfacet
  facet normal 0 -0.866023 0.500004
    outer loop
      vertex -16.5 19.0677 22.5
      vertex 0 15.799 16.8385
      vertex 0 19.0677 22.5
    endloop
  endfacet
  facet normal -0 0.500011 0.866019
    outer loop
      vertex -25 15.799 16.8385
      vertex 0 14.5 17.5885
      vertex 0 15.799 16.8385
    endloop
  endfacet
  facet normal 0 0.500011 0.866019
    outer loop
      vertex 0 14.5 17.5885
      vertex -25 15.799 16.8385
      vertex -25 14.5 17.5885
    endloop
  endfacet
endsolid OpenSCAD_Model
