solid OpenSCAD_Model
  facet normal 0 0 1
    outer loop
      vertex -19.5 20 34.5
      vertex -24.5 13 34.5
      vertex -19.5 13 34.5
    endloop
  endfacet
  facet normal 0 0 1
    outer loop
      vertex -24.5 13 34.5
      vertex -40 20 34.5
      vertex -24.5 7 34.5
    endloop
  endfacet
  facet normal -0 0 1
    outer loop
      vertex -40 20 34.5
      vertex -24.5 13 34.5
      vertex -19.5 20 34.5
    endloop
  endfacet
  facet normal -0 0 1
    outer loop
      vertex -24.5 7 34.5
      vertex -19.5 0 34.5
      vertex -19.5 7 34.5
    endloop
  endfacet
  facet normal 0 0 1
    outer loop
      vertex -40 0 34.5
      vertex -24.5 7 34.5
      vertex -40 20 34.5
    endloop
  endfacet
  facet normal 0 0 1
    outer loop
      vertex -24.5 7 34.5
      vertex -40 0 34.5
      vertex -19.5 0 34.5
    endloop
  endfacet
  facet normal -1 0 0
    outer loop
      vertex -40 0 0
      vertex -40 20 34.5
      vertex -40 20 0
    endloop
  endfacet
  facet normal -1 -0 0
    outer loop
      vertex -40 20 34.5
      vertex -40 0 0
      vertex -40 0 34.5
    endloop
  endfacet
  facet normal 1 0 0
    outer loop
      vertex 0 3 49.5
      vertex 0 0 49.5
      vertex 0 3 32.5
    endloop
  endfacet
  facet normal 1 -0 0
    outer loop
      vertex 0 3 32.5
      vertex 0 14 24.5
      vertex 0 14 32.5
    endloop
  endfacet
  facet normal 1 0 0
    outer loop
      vertex 0 14 24.5
      vertex 0 3 32.5
      vertex 0 3.33494 3.25
    endloop
  endfacet
  facet normal 1 0 0
    outer loop
      vertex 0 15.6036 24.5
      vertex 0 14 24.5
      vertex 0 3.33494 3.25
    endloop
  endfacet
  facet normal 1 -0 0
    outer loop
      vertex 0 15.799 16.8385
      vertex 0 20 0
      vertex 0 20 24.1147
    endloop
  endfacet
  facet normal 1 0 0
    outer loop
      vertex 0 6.25 3.29904
      vertex 0 15.799 16.8385
      vertex 0 14.5 17.5885
    endloop
  endfacet
  facet normal 1 0 0
    outer loop
      vertex 0 15.799 16.8385
      vertex 0 6.25 3.29904
      vertex 0 20 0
    endloop
  endfacet
  facet normal 1 0 0
    outer loop
      vertex 0 4.26454 2.71329
      vertex 0 6.25 3.29904
      vertex 0 5.34321 3.49178
    endloop
  endfacet
  facet normal 1 0 0
    outer loop
      vertex 0 4.26454 2.71329
      vertex 0 5.34321 3.49178
      vertex 0 4.4963 3.11472
    endloop
  endfacet
  facet normal 1 0 0
    outer loop
      vertex 0 0 0
      vertex 0 6.25 3.29904
      vertex 0 4.26454 2.71329
    endloop
  endfacet
  facet normal 1 0 0
    outer loop
      vertex 0 0 0
      vertex 0 3 32.5
      vertex 0 0 49.5
    endloop
  endfacet
  facet normal 1 0 0
    outer loop
      vertex 0 6.25 3.29904
      vertex 0 0 0
      vertex 0 20 0
    endloop
  endfacet
  facet normal 1 0 0
    outer loop
      vertex 0 3.33494 3.25
      vertex 0 0 0
      vertex 0 4.26454 2.71329
    endloop
  endfacet
  facet normal 1 0 0
    outer loop
      vertex 0 3 32.5
      vertex 0 0 0
      vertex 0 3.33494 3.25
    endloop
  endfacet
  facet normal 0 0 -1
    outer loop
      vertex -40 0 0
      vertex 0 20 0
      vertex 0 0 0
    endloop
  endfacet
  facet normal -0 0 -1
    outer loop
      vertex 0 20 0
      vertex -40 0 0
      vertex -40 20 0
    endloop
  endfacet
  facet normal 0 1 0
    outer loop
      vertex 0 20 24.1147
      vertex 0 20 0
      vertex -25 20 24.1147
    endloop
  endfacet
  facet normal 0 1 0
    outer loop
      vertex -17.5 20 38.1147
      vertex -16.5 20 49.5
      vertex -16.5 20 38.1147
    endloop
  endfacet
  facet normal 0 1 0
    outer loop
      vertex -16.5 20 49.5
      vertex -17.5 20 38.1147
      vertex -19.5 20 49.5
    endloop
  endfacet
  facet normal 0 1 0
    outer loop
      vertex -17.5 20 38.1147
      vertex -19.5 20 34.5
      vertex -19.5 20 49.5
    endloop
  endfacet
  facet normal 0 1 -0
    outer loop
      vertex -17.5 20 32.1147
      vertex -19.5 20 34.5
      vertex -17.5 20 38.1147
    endloop
  endfacet
  facet normal 0 1 0
    outer loop
      vertex -25 20 32.1147
      vertex -19.5 20 34.5
      vertex -17.5 20 32.1147
    endloop
  endfacet
  facet normal 0 1 0
    outer loop
      vertex -19.5 20 34.5
      vertex -25 20 32.1147
      vertex -40 20 34.5
    endloop
  endfacet
  facet normal 0 1 -0
    outer loop
      vertex -25 20 24.1147
      vertex -40 20 34.5
      vertex -25 20 32.1147
    endloop
  endfacet
  facet normal 0 1 0
    outer loop
      vertex -40 20 0
      vertex -25 20 24.1147
      vertex 0 20 0
    endloop
  endfacet
  facet normal 0 1 0
    outer loop
      vertex -25 20 24.1147
      vertex -40 20 0
      vertex -40 20 34.5
    endloop
  endfacet
  facet normal 0 -1 0
    outer loop
      vertex -18.7256 0 25.5814
      vertex -19.5 0 34.5
      vertex -40 0 34.5
    endloop
  endfacet
  facet normal 0 -1 0
    outer loop
      vertex -19.5 0 34.5
      vertex -13.68 0 30.5211
      vertex -12.5 0 30.6443
    endloop
  endfacet
  facet normal 0 -1 0
    outer loop
      vertex -19.5 0 34.5
      vertex -14.5934 0 30.2289
      vertex -13.68 0 30.5211
    endloop
  endfacet
  facet normal 0 -1 0
    outer loop
      vertex -19.5 0 34.5
      vertex -14.8182 0 30.157
      vertex -14.5934 0 30.2289
    endloop
  endfacet
  facet normal 0 -1 0
    outer loop
      vertex -19.5 0 34.5
      vertex -15.0332 0 30.0374
      vertex -14.8182 0 30.157
    endloop
  endfacet
  facet normal 0 -1 0
    outer loop
      vertex -19.5 0 34.5
      vertex -15.8757 0 29.5688
      vertex -15.0332 0 30.0374
    endloop
  endfacet
  facet normal 0 -1 0
    outer loop
      vertex -19.5 0 34.5
      vertex -16.8186 0 28.7821
      vertex -15.8757 0 29.5688
    endloop
  endfacet
  facet normal 0 -1 0
    outer loop
      vertex -19.5 0 34.5
      vertex -17.0042 0 28.5615
      vertex -16.8186 0 28.7821
    endloop
  endfacet
  facet normal 0 -1 0
    outer loop
      vertex -19.5 0 34.5
      vertex -17.6195 0 27.8301
      vertex -17.0042 0 28.5615
    endloop
  endfacet
  facet normal 0 -1 0
    outer loop
      vertex -19.5 0 34.5
      vertex -18.0956 0 27.0261
      vertex -17.6195 0 27.8301
    endloop
  endfacet
  facet normal 0 -1 0
    outer loop
      vertex -19.5 0 34.5
      vertex -18.2591 0 26.7501
      vertex -18.0956 0 27.0261
    endloop
  endfacet
  facet normal 0 -1 0
    outer loop
      vertex -19.5 0 34.5
      vertex -18.7256 0 25.5814
      vertex -18.2591 0 26.7501
    endloop
  endfacet
  facet normal 0 -1 0
    outer loop
      vertex -40 0 34.5
      vertex -18.9275 0 24.7306
      vertex -18.7256 0 25.5814
    endloop
  endfacet
  facet normal 0 -1 0
    outer loop
      vertex -40 0 34.5
      vertex -19.0148 0 24.3628
      vertex -18.9275 0 24.7306
    endloop
  endfacet
  facet normal 0 -1 0
    outer loop
      vertex -40 0 34.5
      vertex -19.0521 0 23.9599
      vertex -19.0148 0 24.3628
    endloop
  endfacet
  facet normal 0 -1 0
    outer loop
      vertex -40 0 34.5
      vertex -19.1288 0 23.1309
      vertex -19.0521 0 23.9599
    endloop
  endfacet
  facet normal 0 -1 0
    outer loop
      vertex -40 0 34.5
      vertex -19.075 0 21.9186
      vertex -19.1288 0 23.1309
    endloop
  endfacet
  facet normal 0 -1 0
    outer loop
      vertex -40 0 34.5
      vertex -18.9943 0 21.4715
      vertex -19.075 0 21.9186
    endloop
  endfacet
  facet normal 0 -1 0
    outer loop
      vertex -40 0 34.5
      vertex -18.8648 0 20.7546
      vertex -18.9943 0 21.4715
    endloop
  endfacet
  facet normal 0 -1 0
    outer loop
      vertex -40 0 0
      vertex -18.8648 0 20.7546
      vertex -40 0 34.5
    endloop
  endfacet
  facet normal 0 -1 -0
    outer loop
      vertex -18.8648 0 20.7546
      vertex -40 0 0
      vertex -18.6558 0 20.1083
    endloop
  endfacet
  facet normal 0 -1 -0
    outer loop
      vertex -18.6558 0 20.1083
      vertex -40 0 0
      vertex -18.5119 0 19.663
    endloop
  endfacet
  facet normal 0 -1 -0
    outer loop
      vertex -18.5119 0 19.663
      vertex -40 0 0
      vertex -18.3011 0 19.2239
    endloop
  endfacet
  facet normal 0 -1 -0
    outer loop
      vertex -18.3011 0 19.2239
      vertex -40 0 0
      vertex -18.0322 0 18.6637
    endloop
  endfacet
  facet normal 0 -1 -0
    outer loop
      vertex -18.0322 0 18.6637
      vertex -40 0 0
      vertex -17.442 0 17.7726
    endloop
  endfacet
  facet normal 0 -1 -0
    outer loop
      vertex -17.442 0 17.7726
      vertex -40 0 0
      vertex -17.1088 0 17.397
    endloop
  endfacet
  facet normal 0 -1 -0
    outer loop
      vertex -17.1088 0 17.397
      vertex -40 0 0
      vertex -16.7581 0 17.0017
    endloop
  endfacet
  facet normal 0 -1 -0
    outer loop
      vertex -16.7581 0 17.0017
      vertex -40 0 0
      vertex -16.3781 0 16.6814
    endloop
  endfacet
  facet normal 0 -1 0
    outer loop
      vertex 0 0 0
      vertex -12.9969 0 15.2392
      vertex -13.4116 0 15.2726
    endloop
  endfacet
  facet normal 0 -1 0
    outer loop
      vertex -13.8219 0 15.3729
      vertex 0 0 0
      vertex -13.4116 0 15.2726
    endloop
  endfacet
  facet normal 0 -1 0
    outer loop
      vertex -14.3084 0 15.4919
      vertex 0 0 0
      vertex -13.8219 0 15.3729
    endloop
  endfacet
  facet normal 0 -1 0
    outer loop
      vertex 0 0 0
      vertex -14.3084 0 15.4919
      vertex -40 0 0
    endloop
  endfacet
  facet normal 0 -1 -0
    outer loop
      vertex -14.7683 0 15.6849
      vertex -40 0 0
      vertex -14.3084 0 15.4919
    endloop
  endfacet
  facet normal 0 -1 -0
    outer loop
      vertex -15.1753 0 15.8556
      vertex -40 0 0
      vertex -14.7683 0 15.6849
    endloop
  endfacet
  facet normal 0 -1 -0
    outer loop
      vertex -15.9972 0 16.3605
      vertex -40 0 0
      vertex -15.1753 0 15.8556
    endloop
  endfacet
  facet normal 0 -1 -0
    outer loop
      vertex -16.3781 0 16.6814
      vertex -40 0 0
      vertex -15.9972 0 16.3605
    endloop
  endfacet
  facet normal 0 -1 0
    outer loop
      vertex -12.2738 0 30.6207
      vertex -19.5 0 49.5
      vertex -19.5 0 34.5
    endloop
  endfacet
  facet normal 0 -1 0
    outer loop
      vertex -12.2738 0 30.6207
      vertex -19.5 0 34.5
      vertex -12.5 0 30.6443
    endloop
  endfacet
  facet normal 0 -1 0
    outer loop
      vertex -19.5 0 49.5
      vertex -12.2738 0 30.6207
      vertex -11.32 0 30.5211
    endloop
  endfacet
  facet normal 0 -1 0
    outer loop
      vertex -19.5 0 49.5
      vertex -11.32 0 30.5211
      vertex 0 0 49.5
    endloop
  endfacet
  facet normal 0 -1 0
    outer loop
      vertex -10.4066 0 30.2289
      vertex 0 0 49.5
      vertex -11.32 0 30.5211
    endloop
  endfacet
  facet normal 0 -1 0
    outer loop
      vertex -10.1818 0 30.157
      vertex 0 0 49.5
      vertex -10.4066 0 30.2289
    endloop
  endfacet
  facet normal 0 -1 0
    outer loop
      vertex -9.96681 0 30.0374
      vertex 0 0 49.5
      vertex -10.1818 0 30.157
    endloop
  endfacet
  facet normal 0 -1 0
    outer loop
      vertex -9.12427 0 29.5688
      vertex 0 0 49.5
      vertex -9.96681 0 30.0374
    endloop
  endfacet
  facet normal 0 -1 0
    outer loop
      vertex -8.18143 0 28.7821
      vertex 0 0 49.5
      vertex -9.12427 0 29.5688
    endloop
  endfacet
  facet normal 0 -1 0
    outer loop
      vertex -7.99584 0 28.5615
      vertex 0 0 49.5
      vertex -8.18143 0 28.7821
    endloop
  endfacet
  facet normal 0 -1 0
    outer loop
      vertex -7.38048 0 27.8301
      vertex 0 0 49.5
      vertex -7.99584 0 28.5615
    endloop
  endfacet
  facet normal 0 -1 0
    outer loop
      vertex -6.90439 0 27.0261
      vertex 0 0 49.5
      vertex -7.38048 0 27.8301
    endloop
  endfacet
  facet normal 0 -1 0
    outer loop
      vertex -6.74094 0 26.7501
      vertex 0 0 49.5
      vertex -6.90439 0 27.0261
    endloop
  endfacet
  facet normal 0 -1 0
    outer loop
      vertex -6.27444 0 25.5814
      vertex 0 0 49.5
      vertex -6.74094 0 26.7501
    endloop
  endfacet
  facet normal 0 -1 0
    outer loop
      vertex -6.07251 0 24.7306
      vertex 0 0 49.5
      vertex -6.27444 0 25.5814
    endloop
  endfacet
  facet normal 0 -1 0
    outer loop
      vertex -5.98524 0 24.3628
      vertex 0 0 49.5
      vertex -6.07251 0 24.7306
    endloop
  endfacet
  facet normal 0 -1 0
    outer loop
      vertex -5.94794 0 23.9599
      vertex 0 0 49.5
      vertex -5.98524 0 24.3628
    endloop
  endfacet
  facet normal 0 -1 0
    outer loop
      vertex -5.8712 0 23.1309
      vertex 0 0 49.5
      vertex -5.94794 0 23.9599
    endloop
  endfacet
  facet normal 0 -1 0
    outer loop
      vertex 0 0 0
      vertex -5.8712 0 23.1309
      vertex -5.90592 0 22.3479
    endloop
  endfacet
  facet normal 0 -1 0
    outer loop
      vertex 0 0 0
      vertex -5.90592 0 22.3479
      vertex -5.92495 0 21.9186
    endloop
  endfacet
  facet normal 0 -1 0
    outer loop
      vertex 0 0 0
      vertex -5.92495 0 21.9186
      vertex -6.00573 0 21.4715
    endloop
  endfacet
  facet normal 0 -1 0
    outer loop
      vertex 0 0 0
      vertex -6.00573 0 21.4715
      vertex -6.13524 0 20.7546
    endloop
  endfacet
  facet normal 0 -1 0
    outer loop
      vertex 0 0 0
      vertex -6.34416 0 20.1083
      vertex -6.48809 0 19.663
    endloop
  endfacet
  facet normal 0 -1 0
    outer loop
      vertex 0 0 0
      vertex -6.69889 0 19.2239
      vertex -6.96785 0 18.6637
    endloop
  endfacet
  facet normal 0 -1 0
    outer loop
      vertex 0 0 0
      vertex -12.0031 0 15.2392
      vertex -12.5 0 15.1992
    endloop
  endfacet
  facet normal 0 -1 0
    outer loop
      vertex -12.9969 0 15.2392
      vertex 0 0 0
      vertex -12.5 0 15.1992
    endloop
  endfacet
  facet normal 0 -1 0
    outer loop
      vertex -12.0031 0 15.2392
      vertex 0 0 0
      vertex -11.5884 0 15.2726
    endloop
  endfacet
  facet normal 0 -1 0
    outer loop
      vertex -11.5884 0 15.2726
      vertex 0 0 0
      vertex -11.1781 0 15.3729
    endloop
  endfacet
  facet normal 0 -1 0
    outer loop
      vertex -11.1781 0 15.3729
      vertex 0 0 0
      vertex -10.6916 0 15.4919
    endloop
  endfacet
  facet normal 0 -1 0
    outer loop
      vertex -10.6916 0 15.4919
      vertex 0 0 0
      vertex -10.2317 0 15.6849
    endloop
  endfacet
  facet normal 0 -1 0
    outer loop
      vertex -5.8712 0 23.1309
      vertex 0 0 0
      vertex 0 0 49.5
    endloop
  endfacet
  facet normal 0 -1 0
    outer loop
      vertex -6.34416 0 20.1083
      vertex 0 0 0
      vertex -6.13524 0 20.7546
    endloop
  endfacet
  facet normal 0 -1 0
    outer loop
      vertex -6.69889 0 19.2239
      vertex 0 0 0
      vertex -6.48809 0 19.663
    endloop
  endfacet
  facet normal 0 -1 0
    outer loop
      vertex -7.55802 0 17.7726
      vertex 0 0 0
      vertex -6.96785 0 18.6637
    endloop
  endfacet
  facet normal 0 -1 0
    outer loop
      vertex -7.89117 0 17.397
      vertex 0 0 0
      vertex -7.55802 0 17.7726
    endloop
  endfacet
  facet normal 0 -1 0
    outer loop
      vertex -8.24187 0 17.0017
      vertex 0 0 0
      vertex -7.89117 0 17.397
    endloop
  endfacet
  facet normal 0 -1 0
    outer loop
      vertex -8.62194 0 16.6814
      vertex 0 0 0
      vertex -8.24187 0 17.0017
    endloop
  endfacet
  facet normal 0 -1 0
    outer loop
      vertex -9.00282 0 16.3605
      vertex 0 0 0
      vertex -8.62194 0 16.6814
    endloop
  endfacet
  facet normal 0 -1 0
    outer loop
      vertex -9.82465 0 15.8556
      vertex 0 0 0
      vertex -9.00282 0 16.3605
    endloop
  endfacet
  facet normal 0 -1 0
    outer loop
      vertex -10.2317 0 15.6849
      vertex 0 0 0
      vertex -9.82465 0 15.8556
    endloop
  endfacet
  facet normal 0 0 1
    outer loop
      vertex -19.5 13 49.5
      vertex -16.5 20 49.5
      vertex -19.5 20 49.5
    endloop
  endfacet
  facet normal -0 0 1
    outer loop
      vertex -16.5 3 49.5
      vertex 0 0 49.5
      vertex 0 3 49.5
    endloop
  endfacet
  facet normal 0 0 1
    outer loop
      vertex -16.5 20 49.5
      vertex -19.5 13 49.5
      vertex -16.5 3 49.5
    endloop
  endfacet
  facet normal -0 0 1
    outer loop
      vertex -19.5 7 49.5
      vertex -16.5 3 49.5
      vertex -19.5 13 49.5
    endloop
  endfacet
  facet normal 0 0 1
    outer loop
      vertex -16.5 3 49.5
      vertex -19.5 0 49.5
      vertex 0 0 49.5
    endloop
  endfacet
  facet normal 0 0 1
    outer loop
      vertex -19.5 0 49.5
      vertex -16.5 3 49.5
      vertex -19.5 7 49.5
    endloop
  endfacet
  facet normal -0 0 1
    outer loop
      vertex -24.5 13 49.5
      vertex -19.5 7 49.5
      vertex -19.5 13 49.5
    endloop
  endfacet
  facet normal 0 0 1
    outer loop
      vertex -19.5 7 49.5
      vertex -24.5 13 49.5
      vertex -24.5 7 49.5
    endloop
  endfacet
  facet normal -1 0 0
    outer loop
      vertex -19.5 13 34.5
      vertex -19.5 20 49.5
      vertex -19.5 20 34.5
    endloop
  endfacet
  facet normal -1 -0 0
    outer loop
      vertex -19.5 20 49.5
      vertex -19.5 13 34.5
      vertex -19.5 13 49.5
    endloop
  endfacet
  facet normal -1 0 0
    outer loop
      vertex -19.5 0 34.5
      vertex -19.5 7 49.5
      vertex -19.5 7 34.5
    endloop
  endfacet
  facet normal -1 -0 0
    outer loop
      vertex -19.5 7 49.5
      vertex -19.5 0 34.5
      vertex -19.5 0 49.5
    endloop
  endfacet
  facet normal -1 0 0
    outer loop
      vertex -24.5 7 34.5
      vertex -24.5 13 49.5
      vertex -24.5 13 34.5
    endloop
  endfacet
  facet normal -1 -0 0
    outer loop
      vertex -24.5 13 49.5
      vertex -24.5 7 34.5
      vertex -24.5 7 49.5
    endloop
  endfacet
  facet normal 0 1 -0
    outer loop
      vertex -19.5 13 34.5
      vertex -24.5 13 49.5
      vertex -19.5 13 49.5
    endloop
  endfacet
  facet normal 0 1 0
    outer loop
      vertex -24.5 13 49.5
      vertex -19.5 13 34.5
      vertex -24.5 13 34.5
    endloop
  endfacet
  facet normal 0 -1 0
    outer loop
      vertex -24.5 7 34.5
      vertex -19.5 7 49.5
      vertex -24.5 7 49.5
    endloop
  endfacet
  facet normal 0 -1 -0
    outer loop
      vertex -19.5 7 49.5
      vertex -24.5 7 34.5
      vertex -19.5 7 34.5
    endloop
  endfacet
  facet normal 0 0.866026 -0.499999
    outer loop
      vertex 0 15.6036 24.5
      vertex -6.5 4.33494 4.98205
      vertex -6.5 15.6036 24.5
    endloop
  endfacet
  facet normal 0 0.866025 -0.5
    outer loop
      vertex -6.5 4.33494 4.98205
      vertex 0 3.33494 3.25
      vertex -17.5 4.33494 4.98205
    endloop
  endfacet
  facet normal 4.22884e-07 0.866026 -0.499999
    outer loop
      vertex 0 3.33494 3.25
      vertex -6.5 4.33494 4.98205
      vertex 0 15.6036 24.5
    endloop
  endfacet
  facet normal 0 0.866025 -0.5
    outer loop
      vertex -17.5 4.33494 4.98205
      vertex -25 20 32.1147
      vertex -17.5 20 32.1147
    endloop
  endfacet
  facet normal 6.86987e-08 0.866025 -0.5
    outer loop
      vertex -17.5 4.33494 4.98205
      vertex -25 3.33494 3.25
      vertex -25 20 32.1147
    endloop
  endfacet
  facet normal 0 0.866025 -0.5
    outer loop
      vertex -25 3.33494 3.25
      vertex -17.5 4.33494 4.98205
      vertex 0 3.33494 3.25
    endloop
  endfacet
  facet normal -5.95238e-08 -0.866025 0.5
    outer loop
      vertex -23 5.5 2
      vertex -2 6.25 3.29904
      vertex -23 6.5 3.73205
    endloop
  endfacet
  facet normal 0 -0.866026 0.499999
    outer loop
      vertex -2 6.25 3.29904
      vertex -23 5.5 2
      vertex -2 5.5 2
    endloop
  endfacet
  facet normal 0 -0.866026 0.499999
    outer loop
      vertex -23 6.5 3.73205
      vertex -25 14.5 17.5885
      vertex -25 6.5 3.73205
    endloop
  endfacet
  facet normal 0 -0.866026 0.499999
    outer loop
      vertex -25 14.5 17.5885
      vertex -23 6.5 3.73205
      vertex 0 14.5 17.5885
    endloop
  endfacet
  facet normal -9.3525e-08 -0.866026 0.499999
    outer loop
      vertex -2 6.25 3.29904
      vertex 0 14.5 17.5885
      vertex -23 6.5 3.73205
    endloop
  endfacet
  facet normal 0 -0.866026 0.499999
    outer loop
      vertex 0 14.5 17.5885
      vertex -2 6.25 3.29904
      vertex 0 6.25 3.29904
    endloop
  endfacet
  facet normal 0 0.499998 0.866026
    outer loop
      vertex -2 5.5 2
      vertex -23 5.5 2
      vertex -2 4.26454 2.71329
    endloop
  endfacet
  facet normal -0 0.500004 0.866023
    outer loop
      vertex -2 4.26454 2.71329
      vertex 0 3.33494 3.25
      vertex 0 4.26454 2.71329
    endloop
  endfacet
  facet normal 2.06196e-07 0.500001 0.866025
    outer loop
      vertex -23 3.85272 2.95106
      vertex -2 4.26454 2.71329
      vertex -23 5.5 2
    endloop
  endfacet
  facet normal 1.31096e-07 0.500004 0.866023
    outer loop
      vertex -2 4.26454 2.71329
      vertex -23 3.85272 2.95106
      vertex 0 3.33494 3.25
    endloop
  endfacet
  facet normal 0 0.499999 0.866026
    outer loop
      vertex -25 3.33494 3.25
      vertex -23 3.85272 2.95106
      vertex -25 3.85272 2.95106
    endloop
  endfacet
  facet normal 0 0.499999 0.866026
    outer loop
      vertex -23 3.85272 2.95106
      vertex -25 3.33494 3.25
      vertex 0 3.33494 3.25
    endloop
  endfacet
  facet normal 1 0 0
    outer loop
      vertex -25 14.5 17.5885
      vertex -25 20 24.1147
      vertex -25 20 32.1147
    endloop
  endfacet
  facet normal 1 0 0
    outer loop
      vertex -25 20 24.1147
      vertex -25 14.5 17.5885
      vertex -25 15.799 16.8385
    endloop
  endfacet
  facet normal 1 0 0
    outer loop
      vertex -25 3.33494 3.25
      vertex -25 14.5 17.5885
      vertex -25 20 32.1147
    endloop
  endfacet
  facet normal 1 0 0
    outer loop
      vertex -25 14.5 17.5885
      vertex -25 5.29094 3.98904
      vertex -25 6.5 3.73205
    endloop
  endfacet
  facet normal 1 0 0
    outer loop
      vertex -25 14.5 17.5885
      vertex -25 3.33494 3.25
      vertex -25 5.29094 3.98904
    endloop
  endfacet
  facet normal 1 0 0
    outer loop
      vertex -25 5.29094 3.98904
      vertex -25 3.33494 3.25
      vertex -25 4.16174 3.48629
    endloop
  endfacet
  facet normal 1 0 0
    outer loop
      vertex -25 4.16174 3.48629
      vertex -25 3.33494 3.25
      vertex -25 3.85272 2.95106
    endloop
  endfacet
  facet normal 0 -0.406729 0.913549
    outer loop
      vertex -2 5.34321 3.49178
      vertex 0 4.4963 3.11472
      vertex 0 5.34321 3.49178
    endloop
  endfacet
  facet normal 0 -0.406729 0.913549
    outer loop
      vertex 0 4.4963 3.11472
      vertex -2 5.34321 3.49178
      vertex -2 4.4963 3.11472
    endloop
  endfacet
  facet normal -0 0.207907 0.978149
    outer loop
      vertex -2 6.25 3.29904
      vertex 0 5.34321 3.49178
      vertex 0 6.25 3.29904
    endloop
  endfacet
  facet normal 0 0.207907 0.978149
    outer loop
      vertex 0 5.34321 3.49178
      vertex -2 6.25 3.29904
      vertex -2 5.34321 3.49178
    endloop
  endfacet
  facet normal 0 -0.866031 0.499991
    outer loop
      vertex -2 4.26454 2.71329
      vertex 0 4.4963 3.11472
      vertex -2 4.4963 3.11472
    endloop
  endfacet
  facet normal 0 -0.866031 0.499991
    outer loop
      vertex 0 4.4963 3.11472
      vertex -2 4.26454 2.71329
      vertex 0 4.26454 2.71329
    endloop
  endfacet
  facet normal -1 0 0
    outer loop
      vertex -2 5.5 2
      vertex -2 5.34321 3.49178
      vertex -2 6.25 3.29904
    endloop
  endfacet
  facet normal -1 0 0
    outer loop
      vertex -2 5.5 2
      vertex -2 4.4963 3.11472
      vertex -2 5.34321 3.49178
    endloop
  endfacet
  facet normal -1 0 -0
    outer loop
      vertex -2 4.4963 3.11472
      vertex -2 5.5 2
      vertex -2 4.26454 2.71329
    endloop
  endfacet
  facet normal 0 -0.406735 0.913546
    outer loop
      vertex -25 5.29094 3.98904
      vertex -23 4.16174 3.48629
      vertex -23 5.29094 3.98904
    endloop
  endfacet
  facet normal 0 -0.406735 0.913546
    outer loop
      vertex -23 4.16174 3.48629
      vertex -25 5.29094 3.98904
      vertex -25 4.16174 3.48629
    endloop
  endfacet
  facet normal -0 0.207909 0.978148
    outer loop
      vertex -25 6.5 3.73205
      vertex -23 5.29094 3.98904
      vertex -23 6.5 3.73205
    endloop
  endfacet
  facet normal 0 0.207909 0.978148
    outer loop
      vertex -23 5.29094 3.98904
      vertex -25 6.5 3.73205
      vertex -25 5.29094 3.98904
    endloop
  endfacet
  facet normal 0 -0.866022 0.500006
    outer loop
      vertex -25 3.85272 2.95106
      vertex -23 4.16174 3.48629
      vertex -25 4.16174 3.48629
    endloop
  endfacet
  facet normal 0 -0.866022 0.500006
    outer loop
      vertex -23 4.16174 3.48629
      vertex -25 3.85272 2.95106
      vertex -23 3.85272 2.95106
    endloop
  endfacet
  facet normal 1 0 0
    outer loop
      vertex -23 5.29094 3.98904
      vertex -23 5.5 2
      vertex -23 6.5 3.73205
    endloop
  endfacet
  facet normal 1 -0 0
    outer loop
      vertex -23 4.16174 3.48629
      vertex -23 5.5 2
      vertex -23 5.29094 3.98904
    endloop
  endfacet
  facet normal 1 0 0
    outer loop
      vertex -23 5.5 2
      vertex -23 4.16174 3.48629
      vertex -23 3.85272 2.95106
    endloop
  endfacet
  facet normal 0 0.866024 -0.500002
    outer loop
      vertex -6.5 14 27.7224
      vertex -8.5 9.01611 19.0901
      vertex -8.5 14 27.7224
    endloop
  endfacet
  facet normal -0.00166113 0.86619 -0.499713
    outer loop
      vertex -6.5 14 27.7224
      vertex -8.49047 9.00834 19.0766
      vertex -8.5 9.01611 19.0901
    endloop
  endfacet
  facet normal -2.86262e-05 0.866028 -0.499995
    outer loop
      vertex -6.5 14 27.7224
      vertex -8.22025 8.68215 18.5116
      vertex -8.49047 9.00834 19.0766
    endloop
  endfacet
  facet normal 5.66172e-05 0.866021 -0.500007
    outer loop
      vertex -6.5 14 27.7224
      vertex -8.0554 8.33884 17.917
      vertex -8.22025 8.68215 18.5116
    endloop
  endfacet
  facet normal 0.000151879 0.866015 -0.500019
    outer loop
      vertex -6.5 14 27.7224
      vertex -8 7.98686 17.3074
      vertex -8.0554 8.33884 17.917
    endloop
  endfacet
  facet normal -1.61758e-05 0.866025 -0.500001
    outer loop
      vertex -6.5 1.73686 6.48205
      vertex -8 7.98686 17.3074
      vertex -6.5 14 27.7224
    endloop
  endfacet
  facet normal -5.24017e-05 0.866007 -0.500032
    outer loop
      vertex -11.796 5.76456 13.4582
      vertex -6.5 1.73686 6.48205
      vertex -12.5 5.73686 13.4103
    endloop
  endfacet
  facet normal 2.83068e-05 0.866034 -0.499986
    outer loop
      vertex -11.1094 5.84698 13.601
      vertex -6.5 1.73686 6.48205
      vertex -11.796 5.76456 13.4582
    endloop
  endfacet
  facet normal -2.18576e-05 0.86602 -0.50001
    outer loop
      vertex -10.457 5.9821 13.835
      vertex -6.5 1.73686 6.48205
      vertex -11.1094 5.84698 13.601
    endloop
  endfacet
  facet normal -6.77279e-06 0.866023 -0.500004
    outer loop
      vertex -9.85497 6.16657 14.1545
      vertex -6.5 1.73686 6.48205
      vertex -10.457 5.9821 13.835
    endloop
  endfacet
  facet normal 2.98657e-05 0.86603 -0.499992
    outer loop
      vertex -9.31802 6.39587 14.5517
      vertex -6.5 1.73686 6.48205
      vertex -9.85497 6.16657 14.1545
    endloop
  endfacet
  facet normal -3.33293e-06 0.866025 -0.500001
    outer loop
      vertex -8.85942 6.66434 15.0167
      vertex -6.5 1.73686 6.48205
      vertex -9.31802 6.39587 14.5517
    endloop
  endfacet
  facet normal -1.64073e-05 0.866024 -0.500003
    outer loop
      vertex -8.49047 6.96538 15.5381
      vertex -6.5 1.73686 6.48205
      vertex -8.85942 6.66434 15.0167
    endloop
  endfacet
  facet normal 2.93022e-05 0.866028 -0.499996
    outer loop
      vertex -8.22025 7.29157 16.1031
      vertex -6.5 1.73686 6.48205
      vertex -8.49047 6.96538 15.5381
    endloop
  endfacet
  facet normal -5.71317e-05 0.866021 -0.500007
    outer loop
      vertex -8.0554 7.63488 16.6977
      vertex -6.5 1.73686 6.48205
      vertex -8.22025 7.29157 16.1031
    endloop
  endfacet
  facet normal 0.000182045 0.866037 -0.49998
    outer loop
      vertex -8 7.98686 17.3074
      vertex -6.5 1.73686 6.48205
      vertex -8.0554 7.63488 16.6977
    endloop
  endfacet
  facet normal 0 0.866025 -0.500001
    outer loop
      vertex -16.5 9.01611 19.0901
      vertex -17.5 20 38.1147
      vertex -16.5 20 38.1147
    endloop
  endfacet
  facet normal 0.00205722 0.86607 -0.499919
    outer loop
      vertex -16.5095 9.00834 19.0766
      vertex -17.5 20 38.1147
      vertex -16.5 9.01611 19.0901
    endloop
  endfacet
  facet normal 3.79554e-05 0.866026 -0.499999
    outer loop
      vertex -16.7798 8.68215 18.5116
      vertex -17.5 20 38.1147
      vertex -16.5095 9.00834 19.0766
    endloop
  endfacet
  facet normal -8.20505e-05 0.866024 -0.500002
    outer loop
      vertex -16.9446 8.33884 17.917
      vertex -17.5 20 38.1147
      vertex -16.7798 8.68215 18.5116
    endloop
  endfacet
  facet normal -0.00032282 0.866021 -0.500007
    outer loop
      vertex -17 7.98686 17.3074
      vertex -17.5 20 38.1147
      vertex -16.9446 8.33884 17.917
    endloop
  endfacet
  facet normal 0 0.866027 -0.499997
    outer loop
      vertex -17.5 1.73686 6.48205
      vertex -12.5 5.73686 13.4103
      vertex -6.5 1.73686 6.48205
    endloop
  endfacet
  facet normal 5.28924e-05 0.86601 -0.500026
    outer loop
      vertex -12.5 5.73686 13.4103
      vertex -17.5 1.73686 6.48205
      vertex -13.204 5.76456 13.4582
    endloop
  endfacet
  facet normal -2.90548e-05 0.866032 -0.499988
    outer loop
      vertex -13.204 5.76456 13.4582
      vertex -17.5 1.73686 6.48205
      vertex -13.8906 5.84698 13.601
    endloop
  endfacet
  facet normal 2.27895e-05 0.866021 -0.500008
    outer loop
      vertex -13.8906 5.84698 13.601
      vertex -17.5 1.73686 6.48205
      vertex -14.543 5.9821 13.835
    endloop
  endfacet
  facet normal 7.17594e-06 0.866024 -0.500003
    outer loop
      vertex -14.543 5.9821 13.835
      vertex -17.5 1.73686 6.48205
      vertex -15.145 6.16657 14.1545
    endloop
  endfacet
  facet normal 4.49046e-05 0.866025 -0.5
    outer loop
      vertex -17 7.98686 17.3074
      vertex -17.5 1.73686 6.48205
      vertex -17.5 20 38.1147
    endloop
  endfacet
  facet normal -0.000304745 0.866032 -0.499988
    outer loop
      vertex -16.9446 7.63488 16.6977
      vertex -17.5 1.73686 6.48205
      vertex -17 7.98686 17.3074
    endloop
  endfacet
  facet normal 7.40154e-05 0.866023 -0.500004
    outer loop
      vertex -16.7798 7.29157 16.1031
      vertex -17.5 1.73686 6.48205
      vertex -16.9446 7.63488 16.6977
    endloop
  endfacet
  facet normal -3.47998e-05 0.866027 -0.499998
    outer loop
      vertex -16.5095 6.96538 15.5381
      vertex -17.5 1.73686 6.48205
      vertex -16.7798 7.29157 16.1031
    endloop
  endfacet
  facet normal 1.86271e-05 0.866024 -0.500002
    outer loop
      vertex -16.1406 6.66434 15.0167
      vertex -17.5 1.73686 6.48205
      vertex -16.5095 6.96538 15.5381
    endloop
  endfacet
  facet normal 3.67385e-06 0.866025 -0.5
    outer loop
      vertex -15.682 6.39587 14.5517
      vertex -17.5 1.73686 6.48205
      vertex -16.1406 6.66434 15.0167
    endloop
  endfacet
  facet normal -3.22098e-05 0.866029 -0.499994
    outer loop
      vertex -15.145 6.16657 14.1545
      vertex -17.5 1.73686 6.48205
      vertex -15.682 6.39587 14.5517
    endloop
  endfacet
  facet normal -0 0.499999 0.866026
    outer loop
      vertex -17.5 4.33494 4.98205
      vertex -6.5 1.73686 6.48205
      vertex -6.5 4.33494 4.98205
    endloop
  endfacet
  facet normal 0 0.499999 0.866026
    outer loop
      vertex -6.5 1.73686 6.48205
      vertex -17.5 4.33494 4.98205
      vertex -17.5 1.73686 6.48205
    endloop
  endfacet
  facet normal 1 0 0
    outer loop
      vertex -17.5 1.73686 6.48205
      vertex -17.5 20 32.1147
      vertex -17.5 20 38.1147
    endloop
  endfacet
  facet normal 1 0 0
    outer loop
      vertex -17.5 20 32.1147
      vertex -17.5 1.73686 6.48205
      vertex -17.5 4.33494 4.98205
    endloop
  endfacet
  facet normal -1 0 0
    outer loop
      vertex -6.5 4.33494 4.98205
      vertex -6.5 14 24.5
      vertex -6.5 15.6036 24.5
    endloop
  endfacet
  facet normal -1 0 0
    outer loop
      vertex -6.5 1.73686 6.48205
      vertex -6.5 14 24.5
      vertex -6.5 4.33494 4.98205
    endloop
  endfacet
  facet normal -1 -0 0
    outer loop
      vertex -6.5 14 24.5
      vertex -6.5 1.73686 6.48205
      vertex -6.5 14 27.7224
    endloop
  endfacet
  facet normal 0 0.866025 -0.500002
    outer loop
      vertex -8.5 14 31.7224
      vertex -12.5 8.72981 22.5942
      vertex -16.5 14 31.7224
    endloop
  endfacet
  facet normal -1.54382e-05 0.866027 -0.499996
    outer loop
      vertex -8.5 14 31.7224
      vertex -11.8664 8.70488 22.551
      vertex -12.5 8.72981 22.5942
    endloop
  endfacet
  facet normal -1.54382e-05 0.866027 -0.499996
    outer loop
      vertex -8.5 14 31.7224
      vertex -11.7256 8.69934 22.5414
      vertex -11.8664 8.70488 22.551
    endloop
  endfacet
  facet normal 0.000208661 0.865993 -0.500055
    outer loop
      vertex -8.5 14 31.7224
      vertex -11.5883 8.68285 22.5129
      vertex -11.7256 8.69934 22.5414
    endloop
  endfacet
  facet normal -1.32399e-05 0.866026 -0.5
    outer loop
      vertex -8.5 14 31.7224
      vertex -10.9704 8.60867 22.3844
      vertex -11.5883 8.68285 22.5129
    endloop
  endfacet
  facet normal 1.25069e-05 0.866023 -0.500005
    outer loop
      vertex -8.5 14 31.7224
      vertex -10.3832 8.48707 22.1738
      vertex -10.9704 8.60867 22.3844
    endloop
  endfacet
  facet normal -1.26701e-06 0.866024 -0.500003
    outer loop
      vertex -8.5 14 31.7224
      vertex -10.2527 8.46005 22.127
      vertex -10.3832 8.48707 22.1738
    endloop
  endfacet
  facet normal -2.4085e-05 0.866026 -0.5
    outer loop
      vertex -8.5 14 31.7224
      vertex -9.59046 8.25713 21.7755
      vertex -10.2527 8.46005 22.127
    endloop
  endfacet
  facet normal -5.57065e-05 0.866027 -0.499997
    outer loop
      vertex -8.5 14 31.7224
      vertex -9.10721 8.05076 21.418
      vertex -9.59046 8.25713 21.7755
    endloop
  endfacet
  facet normal 0.000142583 0.866022 -0.500006
    outer loop
      vertex -8.5 14 31.7224
      vertex -8.99982 8.0049 21.3386
      vertex -9.10721 8.05076 21.418
    endloop
  endfacet
  facet normal 5.70133e-05 0.866024 -0.500003
    outer loop
      vertex -8.5 14 31.7224
      vertex -8.9081 7.9512 21.2456
      vertex -8.99982 8.0049 21.3386
    endloop
  endfacet
  facet normal 3.67263e-06 0.866025 -0.500001
    outer loop
      vertex -8.9081 7.9512 21.2456
      vertex -8.5 14 31.7224
      vertex -8.5 7.71229 20.8318
    endloop
  endfacet
  facet normal 1.54382e-05 0.866027 -0.499996
    outer loop
      vertex -13.2744 8.69934 22.5414
      vertex -16.5 14 31.7224
      vertex -12.5 8.72981 22.5942
    endloop
  endfacet
  facet normal -0.000208661 0.865993 -0.500055
    outer loop
      vertex -13.4117 8.68285 22.5129
      vertex -16.5 14 31.7224
      vertex -13.2744 8.69934 22.5414
    endloop
  endfacet
  facet normal 1.32399e-05 0.866026 -0.5
    outer loop
      vertex -14.0296 8.60867 22.3844
      vertex -16.5 14 31.7224
      vertex -13.4117 8.68285 22.5129
    endloop
  endfacet
  facet normal -1.25069e-05 0.866023 -0.500005
    outer loop
      vertex -14.6168 8.48707 22.1738
      vertex -16.5 14 31.7224
      vertex -14.0296 8.60867 22.3844
    endloop
  endfacet
  facet normal 1.26701e-06 0.866024 -0.500003
    outer loop
      vertex -14.7473 8.46005 22.127
      vertex -16.5 14 31.7224
      vertex -14.6168 8.48707 22.1738
    endloop
  endfacet
  facet normal 2.40863e-05 0.866026 -0.5
    outer loop
      vertex -15.4095 8.25713 21.7755
      vertex -16.5 14 31.7224
      vertex -14.7473 8.46005 22.127
    endloop
  endfacet
  facet normal 5.5701e-05 0.866027 -0.499997
    outer loop
      vertex -15.8928 8.05076 21.418
      vertex -16.5 14 31.7224
      vertex -15.4095 8.25713 21.7755
    endloop
  endfacet
  facet normal -0.00014257 0.866022 -0.500006
    outer loop
      vertex -16.0002 8.0049 21.3386
      vertex -16.5 14 31.7224
      vertex -15.8928 8.05076 21.418
    endloop
  endfacet
  facet normal -5.70252e-05 0.866024 -0.500003
    outer loop
      vertex -16.0919 7.9512 21.2456
      vertex -16.5 14 31.7224
      vertex -16.0002 8.0049 21.3386
    endloop
  endfacet
  facet normal -3.67263e-06 0.866025 -0.500001
    outer loop
      vertex -16.5 14 31.7224
      vertex -16.0919 7.9512 21.2456
      vertex -16.5 7.71229 20.8318
    endloop
  endfacet
  facet normal 1 -0 0
    outer loop
      vertex -16.5 3 49.5
      vertex -16.5 20 38.1147
      vertex -16.5 20 49.5
    endloop
  endfacet
  facet normal 1 0 0
    outer loop
      vertex -16.5 20 38.1147
      vertex -16.5 3 49.5
      vertex -16.5 14 32.5
    endloop
  endfacet
  facet normal 1 0 0
    outer loop
      vertex -16.5 14 32.5
      vertex -16.5 3 49.5
      vertex -16.5 3 32.5
    endloop
  endfacet
  facet normal 1 0 0
    outer loop
      vertex -16.5 14 31.7224
      vertex -16.5 20 38.1147
      vertex -16.5 14 32.5
    endloop
  endfacet
  facet normal 1 -0 0
    outer loop
      vertex -16.5 14 31.7224
      vertex -16.5 9.01611 19.0901
      vertex -16.5 20 38.1147
    endloop
  endfacet
  facet normal 1 0 0
    outer loop
      vertex -16.5 14 31.7224
      vertex -16.5 7.72994 20.8115
      vertex -16.5 9.01611 19.0901
    endloop
  endfacet
  facet normal 1 0 -0
    outer loop
      vertex -16.5 7.72994 20.8115
      vertex -16.5 14 31.7224
      vertex -16.5 7.71229 20.8318
    endloop
  endfacet
  facet normal -1 0 0
    outer loop
      vertex -8.5 7.72995 20.8115
      vertex -8.5 14 27.7224
      vertex -8.5 9.01611 19.0901
    endloop
  endfacet
  facet normal -1 0 0
    outer loop
      vertex -8.5 7.71229 20.8318
      vertex -8.5 14 27.7224
      vertex -8.5 7.72995 20.8115
    endloop
  endfacet
  facet normal -1 -0 0
    outer loop
      vertex -8.5 14 27.7224
      vertex -8.5 7.71229 20.8318
      vertex -8.5 14 31.7224
    endloop
  endfacet
  facet normal -0.901484 -0.376243 -0.213934
    outer loop
      vertex -5.98524 0 24.3628
      vertex -8.49047 9.00834 19.0766
      vertex -8.22025 8.68215 18.5116
    endloop
  endfacet
  facet normal -0.901497 -0.376229 -0.213903
    outer loop
      vertex -8.49047 9.00834 19.0766
      vertex -5.98524 0 24.3628
      vertex -6.07251 0 24.7306
    endloop
  endfacet
  facet normal 0.373317 -0.640303 -0.671302
    outer loop
      vertex -15.0332 0 30.0374
      vertex -14.7473 8.46005 22.127
      vertex -14.6168 8.48707 22.1738
    endloop
  endfacet
  facet normal 0.37337 -0.64029 -0.671285
    outer loop
      vertex -14.7473 8.46005 22.127
      vertex -15.0332 0 30.0374
      vertex -15.8757 0 29.5688
    endloop
  endfacet
  facet normal 0.901517 -0.00289786 0.432734
    outer loop
      vertex -18.3011 0 19.2239
      vertex -18.0322 0 18.6637
      vertex -16.5095 6.96538 15.5381
    endloop
  endfacet
  facet normal -0.509862 -0.605518 -0.611056
    outer loop
      vertex -9.12427 0 29.5688
      vertex -9.59046 8.25713 21.7755
      vertex -8.18143 0 28.7821
    endloop
  endfacet
  facet normal -0.50987 -0.605515 -0.611053
    outer loop
      vertex -9.59046 8.25713 21.7755
      vertex -9.12427 0 29.5688
      vertex -10.2527 8.46005 22.127
    endloop
  endfacet
  facet normal -0.227804 -0.663939 -0.712243
    outer loop
      vertex -10.4066 0 30.2289
      vertex -10.9704 8.60867 22.3844
      vertex -10.1818 0 30.157
    endloop
  endfacet
  facet normal -0.227826 -0.663936 -0.712239
    outer loop
      vertex -10.9704 8.60867 22.3844
      vertex -10.4066 0 30.2289
      vertex -11.5883 8.68285 22.5129
    endloop
  endfacet
  facet normal -0.373373 0.261207 0.890148
    outer loop
      vertex -11.1094 5.84698 13.601
      vertex -10.2317 0 15.6849
      vertex -10.457 5.9821 13.835
    endloop
  endfacet
  facet normal -0.373534 0.261163 0.890094
    outer loop
      vertex -10.2317 0 15.6849
      vertex -11.1094 5.84698 13.601
      vertex -10.6916 0 15.4919
    endloop
  endfacet
  facet normal 0.633683 -0.560539 -0.533144
    outer loop
      vertex -17.0042 0 28.5615
      vertex -15.4095 8.25713 21.7755
      vertex -16.8186 0 28.7821
    endloop
  endfacet
  facet normal 0.633705 -0.56053 -0.533127
    outer loop
      vertex -15.4095 8.25713 21.7755
      vertex -17.0042 0 28.5615
      vertex -15.8928 8.05076 21.418
    endloop
  endfacet
  facet normal -0.901479 -0.00284406 0.432813
    outer loop
      vertex -6.96785 0 18.6637
      vertex -6.69889 0 19.2239
      vertex -8.49047 6.96538 15.5381
    endloop
  endfacet
  facet normal -0.741975 -0.506393 -0.439362
    outer loop
      vertex -6.90439 0 27.0261
      vertex -8.99982 8.0049 21.3386
      vertex -8.9081 7.9512 21.2456
    endloop
  endfacet
  facet normal -0.741975 -0.506393 -0.439362
    outer loop
      vertex -8.99982 8.0049 21.3386
      vertex -6.90439 0 27.0261
      vertex -7.38048 0 27.8301
    endloop
  endfacet
  facet normal 0.509853 0.226434 0.829926
    outer loop
      vertex -15.9972 0 16.3605
      vertex -14.543 5.9821 13.835
      vertex -15.145 6.16657 14.1545
    endloop
  endfacet
  facet normal 0.509836 0.226442 0.829935
    outer loop
      vertex -14.543 5.9821 13.835
      vertex -15.9972 0 16.3605
      vertex -15.1753 0 15.8556
    endloop
  endfacet
  facet normal 0.633797 0.181398 0.751929
    outer loop
      vertex -16.7581 0 17.0017
      vertex -16.3781 0 16.6814
      vertex -15.682 6.39587 14.5517
    endloop
  endfacet
  facet normal 0.227596 -0.66397 -0.712281
    outer loop
      vertex -13.68 0 30.5211
      vertex -13.4117 8.68285 22.5129
      vertex -13.2744 8.69934 22.5414
    endloop
  endfacet
  facet normal 0.227846 -0.663934 -0.712234
    outer loop
      vertex -13.4117 8.68285 22.5129
      vertex -13.68 0 30.5211
      vertex -14.5934 0 30.2289
    endloop
  endfacet
  facet normal -0.633612 -0.560568 -0.533198
    outer loop
      vertex -7.38048 0 27.8301
      vertex -9.10721 8.05076 21.418
      vertex -8.99982 8.0049 21.3386
    endloop
  endfacet
  facet normal -0.633681 -0.56054 -0.533145
    outer loop
      vertex -9.10721 8.05076 21.418
      vertex -7.38048 0 27.8301
      vertex -7.99584 0 28.5615
    endloop
  endfacet
  facet normal 0.741971 -0.506394 -0.439368
    outer loop
      vertex -18.0956 0 27.0261
      vertex -16.0002 8.0049 21.3386
      vertex -17.6195 0 27.8301
    endloop
  endfacet
  facet normal 0.742043 -0.506357 -0.43929
    outer loop
      vertex -16.0002 8.0049 21.3386
      vertex -18.0956 0 27.0261
      vertex -16.0919 7.9512 21.2456
    endloop
  endfacet
  facet normal -0.972747 -0.151268 0.17573
    outer loop
      vertex -6.13524 0 20.7546
      vertex -6.00573 0 21.4715
      vertex -8.0554 7.63488 16.6977
    endloop
  endfacet
  facet normal -0.633735 0.181422 0.751974
    outer loop
      vertex -9.85497 6.16657 14.1545
      vertex -8.62194 0 16.6814
      vertex -9.31802 6.39587 14.5517
    endloop
  endfacet
  facet normal -0.633624 0.181477 0.752055
    outer loop
      vertex -8.62194 0 16.6814
      vertex -9.85497 6.16657 14.1545
      vertex -9.00282 0 16.3605
    endloop
  endfacet
  facet normal 0.94882 -0.0756899 0.306614
    outer loop
      vertex -18.5119 0 19.663
      vertex -16.9446 7.63488 16.6977
      vertex -18.6558 0 20.1083
    endloop
  endfacet
  facet normal 0.948806 -0.0756685 0.306662
    outer loop
      vertex -16.9446 7.63488 16.6977
      vertex -18.5119 0 19.663
      vertex -16.7798 7.29157 16.1031
    endloop
  endfacet
  facet normal 0.373342 0.261211 0.89016
    outer loop
      vertex -15.1753 0 15.8556
      vertex -14.7683 0 15.6849
      vertex -14.543 5.9821 13.835
    endloop
  endfacet
  facet normal 0.741982 0.127301 0.658223
    outer loop
      vertex -17.1088 0 17.397
      vertex -16.1406 6.66434 15.0167
      vertex -17.442 0 17.7726
    endloop
  endfacet
  facet normal 0.741961 0.127312 0.658244
    outer loop
      vertex -16.1406 6.66434 15.0167
      vertex -17.1088 0 17.397
      vertex -15.682 6.39587 14.5517
    endloop
  endfacet
  facet normal -0.901473 -0.376256 -0.213957
    outer loop
      vertex -6.07251 0 24.7306
      vertex -6.27444 0 25.5814
      vertex -8.49047 9.00834 19.0766
    endloop
  endfacet
  facet normal 0.633714 -0.560526 -0.533121
    outer loop
      vertex -17.6195 0 27.8301
      vertex -15.8928 8.05076 21.418
      vertex -17.0042 0 28.5615
    endloop
  endfacet
  facet normal 0.633578 -0.56058 -0.533225
    outer loop
      vertex -15.8928 8.05076 21.418
      vertex -17.6195 0 27.8301
      vertex -16.0002 8.0049 21.3386
    endloop
  endfacet
  facet normal 0.0765715 -0.675918 -0.732989
    outer loop
      vertex -12.5 0 30.6443
      vertex -13.2744 8.69934 22.5414
      vertex -12.5 8.72981 22.5942
    endloop
  endfacet
  facet normal 0.076529 -0.675922 -0.732989
    outer loop
      vertex -13.2744 8.69934 22.5414
      vertex -12.5 0 30.6443
      vertex -13.68 0 30.5211
    endloop
  endfacet
  facet normal -0.373429 -0.640275 -0.671266
    outer loop
      vertex -10.1818 0 30.157
      vertex -10.3832 8.48707 22.1738
      vertex -9.96681 0 30.0374
    endloop
  endfacet
  facet normal -0.373354 -0.640295 -0.671289
    outer loop
      vertex -10.3832 8.48707 22.1738
      vertex -10.1818 0 30.157
      vertex -10.9704 8.60867 22.3844
    endloop
  endfacet
  facet normal 0.0766619 0.296834 0.951847
    outer loop
      vertex -13.4116 0 15.2726
      vertex -12.9969 0 15.2392
      vertex -13.204 5.76456 13.4582
    endloop
  endfacet
  facet normal -0.227756 0.284848 0.931122
    outer loop
      vertex -11.1094 5.84698 13.601
      vertex -11.1781 0 15.3729
      vertex -10.6916 0 15.4919
    endloop
  endfacet
  facet normal -0.227845 0.284843 0.931102
    outer loop
      vertex -11.1781 0 15.3729
      vertex -11.1094 5.84698 13.601
      vertex -11.796 5.76456 13.4582
    endloop
  endfacet
  facet normal -0.227846 -0.663934 -0.712234
    outer loop
      vertex -11.32 0 30.5211
      vertex -11.5883 8.68285 22.5129
      vertex -10.4066 0 30.2289
    endloop
  endfacet
  facet normal -0.227596 -0.66397 -0.712281
    outer loop
      vertex -11.5883 8.68285 22.5129
      vertex -11.32 0 30.5211
      vertex -11.7256 8.69934 22.5414
    endloop
  endfacet
  facet normal 0.948793 -0.30344 -0.0878381
    outer loop
      vertex -19.0521 0 23.9599
      vertex -16.7798 8.68215 18.5116
      vertex -19.0148 0 24.3628
    endloop
  endfacet
  facet normal 0.948807 -0.303412 -0.0877883
    outer loop
      vertex -16.7798 8.68215 18.5116
      vertex -19.0521 0 23.9599
      vertex -16.9446 8.33884 17.917
    endloop
  endfacet
  facet normal 0.948764 -0.0755895 0.306811
    outer loop
      vertex -18.8648 0 20.7546
      vertex -18.6558 0 20.1083
      vertex -16.9446 7.63488 16.6977
    endloop
  endfacet
  facet normal 0.972761 -0.151354 0.17558
    outer loop
      vertex -18.9943 0 21.4715
      vertex -17 7.98686 17.3074
      vertex -19.075 0 21.9186
    endloop
  endfacet
  facet normal 0.972747 -0.151277 0.175721
    outer loop
      vertex -17 7.98686 17.3074
      vertex -18.9943 0 21.4715
      vertex -16.9446 7.63488 16.6977
    endloop
  endfacet
  facet normal -0.832226 -0.444154 -0.331854
    outer loop
      vertex -8.49047 9.00834 19.0766
      vertex -8.5 7.72995 20.8115
      vertex -8.5 9.01611 19.0901
    endloop
  endfacet
  facet normal -0.831983 -0.444449 -0.33207
    outer loop
      vertex -6.27444 0 25.5814
      vertex -8.5 7.72995 20.8115
      vertex -8.49047 9.00834 19.0766
    endloop
  endfacet
  facet normal -0.83197 -0.444458 -0.33209
    outer loop
      vertex -8.5 7.72995 20.8115
      vertex -6.27444 0 25.5814
      vertex -6.74094 0 26.7501
    endloop
  endfacet
  facet normal 0.972748 -0.15128 0.175716
    outer loop
      vertex -18.9943 0 21.4715
      vertex -18.8648 0 20.7546
      vertex -16.9446 7.63488 16.6977
    endloop
  endfacet
  facet normal -0.0766619 0.296834 0.951847
    outer loop
      vertex -12.0031 0 15.2392
      vertex -11.5884 0 15.2726
      vertex -11.796 5.76456 13.4582
    endloop
  endfacet
  facet normal -0.948796 -0.303435 -0.0878294
    outer loop
      vertex -5.8712 0 23.1309
      vertex -5.94794 0 23.9599
      vertex -8.0554 8.33884 17.917
    endloop
  endfacet
  facet normal -0.633743 -0.560511 -0.533102
    outer loop
      vertex -7.99584 0 28.5615
      vertex -9.59046 8.25713 21.7755
      vertex -9.10721 8.05076 21.418
    endloop
  endfacet
  facet normal -0.633703 -0.560528 -0.533132
    outer loop
      vertex -9.59046 8.25713 21.7755
      vertex -7.99584 0 28.5615
      vertex -8.18143 0 28.7821
    endloop
  endfacet
  facet normal -0.739805 -0.507618 -0.441603
    outer loop
      vertex -8.5 7.72995 20.8115
      vertex -6.74094 0 26.7501
      vertex -8.5 7.71229 20.8318
    endloop
  endfacet
  facet normal -0.741965 -0.506399 -0.439372
    outer loop
      vertex -6.74094 0 26.7501
      vertex -8.9081 7.9512 21.2456
      vertex -8.5 7.71229 20.8318
    endloop
  endfacet
  facet normal -0.741949 -0.506407 -0.43939
    outer loop
      vertex -8.9081 7.9512 21.2456
      vertex -6.74094 0 26.7501
      vertex -6.90439 0 27.0261
    endloop
  endfacet
  facet normal 0.833031 -0.443183 -0.331131
    outer loop
      vertex -16.5 7.72994 20.8115
      vertex -16.5095 9.00834 19.0766
      vertex -16.5 9.01611 19.0901
    endloop
  endfacet
  facet normal 0.831968 -0.444462 -0.332089
    outer loop
      vertex -18.7256 0 25.5814
      vertex -16.5 7.72994 20.8115
      vertex -18.2591 0 26.7501
    endloop
  endfacet
  facet normal 0.831988 -0.444447 -0.332057
    outer loop
      vertex -16.5 7.72994 20.8115
      vertex -18.7256 0 25.5814
      vertex -16.5095 9.00834 19.0766
    endloop
  endfacet
  facet normal -0.0764747 -0.675926 -0.732991
    outer loop
      vertex -12.5 0 30.6443
      vertex -11.8664 8.70488 22.551
      vertex -12.2738 0 30.6207
    endloop
  endfacet
  facet normal -0.0765715 -0.675918 -0.732989
    outer loop
      vertex -11.8664 8.70488 22.551
      vertex -12.5 0 30.6443
      vertex -12.5 8.72981 22.5942
    endloop
  endfacet
  facet normal -0.831964 0.0653753 0.550964
    outer loop
      vertex -7.55802 0 17.7726
      vertex -8.49047 6.96538 15.5381
      vertex -8.85942 6.66434 15.0167
    endloop
  endfacet
  facet normal -0.831945 0.0653869 0.550992
    outer loop
      vertex -8.49047 6.96538 15.5381
      vertex -7.55802 0 17.7726
      vertex -6.96785 0 18.6637
    endloop
  endfacet
  facet normal -0.633725 0.181425 0.751982
    outer loop
      vertex -8.62194 0 16.6814
      vertex -8.24187 0 17.0017
      vertex -9.31802 6.39587 14.5517
    endloop
  endfacet
  facet normal -0.227623 0.284881 0.931145
    outer loop
      vertex -11.5884 0 15.2726
      vertex -11.1781 0 15.3729
      vertex -11.796 5.76456 13.4582
    endloop
  endfacet
  facet normal 0.831932 0.0653889 0.551011
    outer loop
      vertex -17.442 0 17.7726
      vertex -16.5095 6.96538 15.5381
      vertex -18.0322 0 18.6637
    endloop
  endfacet
  facet normal 0.831995 0.0653511 0.55092
    outer loop
      vertex -16.5095 6.96538 15.5381
      vertex -17.442 0 17.7726
      vertex -16.1406 6.66434 15.0167
    endloop
  endfacet
  facet normal -0.948791 -0.303445 -0.0878449
    outer loop
      vertex -5.94794 0 23.9599
      vertex -8.22025 8.68215 18.5116
      vertex -8.0554 8.33884 17.917
    endloop
  endfacet
  facet normal -0.948793 -0.303441 -0.0878381
    outer loop
      vertex -8.22025 8.68215 18.5116
      vertex -5.94794 0 23.9599
      vertex -5.98524 0 24.3628
    endloop
  endfacet
  facet normal 0.741959 0.127314 0.658247
    outer loop
      vertex -17.1088 0 17.397
      vertex -16.7581 0 17.0017
      vertex -15.682 6.39587 14.5517
    endloop
  endfacet
  facet normal 0.509892 -0.605506 -0.611042
    outer loop
      vertex -15.8757 0 29.5688
      vertex -15.4095 8.25713 21.7755
      vertex -14.7473 8.46005 22.127
    endloop
  endfacet
  facet normal 0.509838 -0.605527 -0.611067
    outer loop
      vertex -15.4095 8.25713 21.7755
      vertex -15.8757 0 29.5688
      vertex -16.8186 0 28.7821
    endloop
  endfacet
  facet normal 0.373373 0.261207 0.890148
    outer loop
      vertex -14.7683 0 15.6849
      vertex -13.8906 5.84698 13.601
      vertex -14.543 5.9821 13.835
    endloop
  endfacet
  facet normal 0.373534 0.261163 0.890094
    outer loop
      vertex -13.8906 5.84698 13.601
      vertex -14.7683 0 15.6849
      vertex -14.3084 0 15.4919
    endloop
  endfacet
  facet normal 0.901494 -0.00285456 0.432783
    outer loop
      vertex -18.3011 0 19.2239
      vertex -16.7798 7.29157 16.1031
      vertex -18.5119 0 19.663
    endloop
  endfacet
  facet normal 0.901448 -0.0028042 0.432878
    outer loop
      vertex -16.7798 7.29157 16.1031
      vertex -18.3011 0 19.2239
      vertex -16.5095 6.96538 15.5381
    endloop
  endfacet
  facet normal -0.74196 0.127308 0.658246
    outer loop
      vertex -7.89117 0 17.397
      vertex -8.85942 6.66434 15.0167
      vertex -9.31802 6.39587 14.5517
    endloop
  endfacet
  facet normal -0.742034 0.12727 0.65817
    outer loop
      vertex -8.85942 6.66434 15.0167
      vertex -7.89117 0 17.397
      vertex -7.55802 0 17.7726
    endloop
  endfacet
  facet normal -0.972747 -0.227823 0.0431338
    outer loop
      vertex -5.90592 0 22.3479
      vertex -5.8712 0 23.1309
      vertex -8.0554 8.33884 17.917
    endloop
  endfacet
  facet normal -0.948789 -0.0756428 0.306722
    outer loop
      vertex -6.48809 0 19.663
      vertex -8.0554 7.63488 16.6977
      vertex -8.22025 7.29157 16.1031
    endloop
  endfacet
  facet normal -0.948803 -0.0756649 0.306672
    outer loop
      vertex -8.0554 7.63488 16.6977
      vertex -6.48809 0 19.663
      vertex -6.34416 0 20.1083
    endloop
  endfacet
  facet normal -0.901487 -0.00285408 0.432798
    outer loop
      vertex -6.69889 0 19.2239
      vertex -8.22025 7.29157 16.1031
      vertex -8.49047 6.96538 15.5381
    endloop
  endfacet
  facet normal -0.901494 -0.00286197 0.432783
    outer loop
      vertex -8.22025 7.29157 16.1031
      vertex -6.69889 0 19.2239
      vertex -6.48809 0 19.663
    endloop
  endfacet
  facet normal 0.227845 0.284843 0.931102
    outer loop
      vertex -13.8906 5.84698 13.601
      vertex -13.8219 0 15.3729
      vertex -13.204 5.76456 13.4582
    endloop
  endfacet
  facet normal 0.227756 0.284848 0.931122
    outer loop
      vertex -13.8219 0 15.3729
      vertex -13.8906 5.84698 13.601
      vertex -14.3084 0 15.4919
    endloop
  endfacet
  facet normal 0.741965 -0.506401 -0.43937
    outer loop
      vertex -16.0919 7.9512 21.2456
      vertex -18.2591 0 26.7501
      vertex -16.5 7.71229 20.8318
    endloop
  endfacet
  facet normal 0.740259 -0.507365 -0.441132
    outer loop
      vertex -16.5 7.71229 20.8318
      vertex -18.2591 0 26.7501
      vertex -16.5 7.72994 20.8115
    endloop
  endfacet
  facet normal 0.741869 -0.506449 -0.439477
    outer loop
      vertex -18.2591 0 26.7501
      vertex -16.0919 7.9512 21.2456
      vertex -18.0956 0 27.0261
    endloop
  endfacet
  facet normal 0.227623 0.284881 0.931145
    outer loop
      vertex -13.8219 0 15.3729
      vertex -13.4116 0 15.2726
      vertex -13.204 5.76456 13.4582
    endloop
  endfacet
  facet normal -0.948794 -0.0756493 0.306703
    outer loop
      vertex -6.34416 0 20.1083
      vertex -6.13524 0 20.7546
      vertex -8.0554 7.63488 16.6977
    endloop
  endfacet
  facet normal 0.948808 -0.30341 -0.0877848
    outer loop
      vertex -19.0521 0 23.9599
      vertex -19.1288 0 23.1309
      vertex -16.9446 8.33884 17.917
    endloop
  endfacet
  facet normal 0.97275 -0.227802 0.0431691
    outer loop
      vertex -19.075 0 21.9186
      vertex -16.9446 8.33884 17.917
      vertex -19.1288 0 23.1309
    endloop
  endfacet
  facet normal 0.972748 -0.227816 0.0431374
    outer loop
      vertex -16.9446 8.33884 17.917
      vertex -19.075 0 21.9186
      vertex -17 7.98686 17.3074
    endloop
  endfacet
  facet normal 0.633701 0.181432 0.752001
    outer loop
      vertex -16.3781 0 16.6814
      vertex -15.145 6.16657 14.1545
      vertex -15.682 6.39587 14.5517
    endloop
  endfacet
  facet normal 0.633604 0.18148 0.752071
    outer loop
      vertex -15.145 6.16657 14.1545
      vertex -16.3781 0 16.6814
      vertex -15.9972 0 16.3605
    endloop
  endfacet
  facet normal -0.373303 0.261217 0.890175
    outer loop
      vertex -10.2317 0 15.6849
      vertex -9.82465 0 15.8556
      vertex -10.457 5.9821 13.835
    endloop
  endfacet
  facet normal -0.076444 0.296832 0.951865
    outer loop
      vertex -12.5 5.73686 13.4103
      vertex -12.0031 0 15.2392
      vertex -11.796 5.76456 13.4582
    endloop
  endfacet
  facet normal -0.0766236 0.296813 0.951856
    outer loop
      vertex -12.0031 0 15.2392
      vertex -12.5 5.73686 13.4103
      vertex -12.5 0 15.1992
    endloop
  endfacet
  facet normal -0.373355 -0.640293 -0.67129
    outer loop
      vertex -9.96681 0 30.0374
      vertex -10.2527 8.46005 22.127
      vertex -9.12427 0 29.5688
    endloop
  endfacet
  facet normal -0.373317 -0.640303 -0.671302
    outer loop
      vertex -10.2527 8.46005 22.127
      vertex -9.96681 0 30.0374
      vertex -10.3832 8.48707 22.1738
    endloop
  endfacet
  facet normal -0.0765418 -0.675921 -0.732988
    outer loop
      vertex -12.2738 0 30.6207
      vertex -11.7256 8.69934 22.5414
      vertex -11.32 0 30.5211
    endloop
  endfacet
  facet normal -0.0765715 -0.675919 -0.732987
    outer loop
      vertex -11.7256 8.69934 22.5414
      vertex -12.2738 0 30.6207
      vertex -11.8664 8.70488 22.551
    endloop
  endfacet
  facet normal -0.509835 0.226443 0.829935
    outer loop
      vertex -10.457 5.9821 13.835
      vertex -9.00282 0 16.3605
      vertex -9.85497 6.16657 14.1545
    endloop
  endfacet
  facet normal -0.509869 0.226428 0.829918
    outer loop
      vertex -9.00282 0 16.3605
      vertex -10.457 5.9821 13.835
      vertex -9.82465 0 15.8556
    endloop
  endfacet
  facet normal 0.373354 -0.640295 -0.671289
    outer loop
      vertex -14.8182 0 30.157
      vertex -14.6168 8.48707 22.1738
      vertex -14.0296 8.60867 22.3844
    endloop
  endfacet
  facet normal 0.373414 -0.640279 -0.671271
    outer loop
      vertex -14.6168 8.48707 22.1738
      vertex -14.8182 0 30.157
      vertex -15.0332 0 30.0374
    endloop
  endfacet
  facet normal 0.227826 -0.663936 -0.712239
    outer loop
      vertex -14.5934 0 30.2289
      vertex -14.0296 8.60867 22.3844
      vertex -13.4117 8.68285 22.5129
    endloop
  endfacet
  facet normal 0.227804 -0.663939 -0.712243
    outer loop
      vertex -14.0296 8.60867 22.3844
      vertex -14.5934 0 30.2289
      vertex -14.8182 0 30.157
    endloop
  endfacet
  facet normal 0.0766236 0.296813 0.951856
    outer loop
      vertex -12.5 5.73686 13.4103
      vertex -12.9969 0 15.2392
      vertex -12.5 0 15.1992
    endloop
  endfacet
  facet normal 0.076444 0.296832 0.951865
    outer loop
      vertex -12.9969 0 15.2392
      vertex -12.5 5.73686 13.4103
      vertex -13.204 5.76456 13.4582
    endloop
  endfacet
  facet normal -0.972747 -0.227821 0.04314
    outer loop
      vertex -5.92495 0 21.9186
      vertex -8.0554 8.33884 17.917
      vertex -8 7.98686 17.3074
    endloop
  endfacet
  facet normal -0.972746 -0.22783 0.0431198
    outer loop
      vertex -8.0554 8.33884 17.917
      vertex -5.92495 0 21.9186
      vertex -5.90592 0 22.3479
    endloop
  endfacet
  facet normal -0.972748 -0.151275 0.175719
    outer loop
      vertex -6.00573 0 21.4715
      vertex -8 7.98686 17.3074
      vertex -8.0554 7.63488 16.6977
    endloop
  endfacet
  facet normal -0.972745 -0.151257 0.175751
    outer loop
      vertex -8 7.98686 17.3074
      vertex -6.00573 0 21.4715
      vertex -5.92495 0 21.9186
    endloop
  endfacet
  facet normal -0.741959 0.127308 0.658247
    outer loop
      vertex -8.24187 0 17.0017
      vertex -7.89117 0 17.397
      vertex -9.31802 6.39587 14.5517
    endloop
  endfacet
  facet normal 0.901485 -0.376244 -0.213928
    outer loop
      vertex -18.7256 0 25.5814
      vertex -18.9275 0 24.7306
      vertex -16.5095 9.00834 19.0766
    endloop
  endfacet
  facet normal 0.901466 -0.376266 -0.21397
    outer loop
      vertex -19.0148 0 24.3628
      vertex -16.5095 9.00834 19.0766
      vertex -18.9275 0 24.7306
    endloop
  endfacet
  facet normal 0.901446 -0.376288 -0.214017
    outer loop
      vertex -16.5095 9.00834 19.0766
      vertex -19.0148 0 24.3628
      vertex -16.7798 8.68215 18.5116
    endloop
  endfacet
  facet normal 0 -0.866021 0.500007
    outer loop
      vertex -25 15.799 16.8385
      vertex 0 20 24.1147
      vertex -25 20 24.1147
    endloop
  endfacet
  facet normal 0 -0.866021 0.500007
    outer loop
      vertex 0 20 24.1147
      vertex -25 15.799 16.8385
      vertex 0 15.799 16.8385
    endloop
  endfacet
  facet normal -0 0.500011 0.866019
    outer loop
      vertex -25 15.799 16.8385
      vertex 0 14.5 17.5885
      vertex 0 15.799 16.8385
    endloop
  endfacet
  facet normal 0 0.500011 0.866019
    outer loop
      vertex 0 14.5 17.5885
      vertex -25 15.799 16.8385
      vertex -25 14.5 17.5885
    endloop
  endfacet
  facet normal -0 0 1
    outer loop
      vertex -16.5 14 32.5
      vertex 0 3 32.5
      vertex 0 14 32.5
    endloop
  endfacet
  facet normal 0 0 1
    outer loop
      vertex 0 3 32.5
      vertex -16.5 14 32.5
      vertex -16.5 3 32.5
    endloop
  endfacet
  facet normal 0 1 -0
    outer loop
      vertex 0 3 32.5
      vertex -16.5 3 49.5
      vertex 0 3 49.5
    endloop
  endfacet
  facet normal 0 1 0
    outer loop
      vertex -16.5 3 49.5
      vertex 0 3 32.5
      vertex -16.5 3 32.5
    endloop
  endfacet
  facet normal -0 0 1
    outer loop
      vertex -6.5 15.6036 24.5
      vertex 0 14 24.5
      vertex 0 15.6036 24.5
    endloop
  endfacet
  facet normal 0 0 1
    outer loop
      vertex 0 14 24.5
      vertex -6.5 15.6036 24.5
      vertex -6.5 14 24.5
    endloop
  endfacet
  facet normal 0 1 0
    outer loop
      vertex 0 14 32.5
      vertex -8.5 14 31.7224
      vertex -16.5 14 32.5
    endloop
  endfacet
  facet normal 0 1 0
    outer loop
      vertex 0 14 32.5
      vertex -6.5 14 27.7224
      vertex -8.5 14 31.7224
    endloop
  endfacet
  facet normal 0 1 -0
    outer loop
      vertex 0 14 24.5
      vertex -6.5 14 27.7224
      vertex 0 14 32.5
    endloop
  endfacet
  facet normal 0 1 0
    outer loop
      vertex -6.5 14 27.7224
      vertex 0 14 24.5
      vertex -6.5 14 24.5
    endloop
  endfacet
  facet normal 0 1 0
    outer loop
      vertex -16.5 14 32.5
      vertex -8.5 14 31.7224
      vertex -16.5 14 31.7224
    endloop
  endfacet
  facet normal 0 1 0
    outer loop
      vertex -8.5 14 31.7224
      vertex -6.5 14 27.7224
      vertex -8.5 14 27.7224
    endloop
  endfacet
endsolid OpenSCAD_Model
