solid OpenSCAD_Model
  facet normal 0 0 1
    outer loop
      vertex -19.5 20 34.5
      vertex -24.5 13 34.5
      vertex -19.5 13 34.5
    endloop
  endfacet
  facet normal 0 0 1
    outer loop
      vertex -24.5 13 34.5
      vertex -40 20 34.5
      vertex -24.5 7 34.5
    endloop
  endfacet
  facet normal -0 0 1
    outer loop
      vertex -40 20 34.5
      vertex -24.5 13 34.5
      vertex -19.5 20 34.5
    endloop
  endfacet
  facet normal -0 0 1
    outer loop
      vertex -24.5 7 34.5
      vertex -19.5 0 34.5
      vertex -19.5 7 34.5
    endloop
  endfacet
  facet normal 0 0 1
    outer loop
      vertex -40 0 34.5
      vertex -24.5 7 34.5
      vertex -40 20 34.5
    endloop
  endfacet
  facet normal 0 0 1
    outer loop
      vertex -24.5 7 34.5
      vertex -40 0 34.5
      vertex -19.5 0 34.5
    endloop
  endfacet
  facet normal -1 0 0
    outer loop
      vertex -40 0 0
      vertex -40 20 34.5
      vertex -40 20 0
    endloop
  endfacet
  facet normal -1 -0 0
    outer loop
      vertex -40 20 34.5
      vertex -40 0 0
      vertex -40 0 34.5
    endloop
  endfacet
  facet normal 1 0 0
    outer loop
      vertex 0 3 49.5
      vertex 0 0 49.5
      vertex 0 3 32.5
    endloop
  endfacet
  facet normal 1 -0 0
    outer loop
      vertex 0 3 32.5
      vertex 0 14 22.5
      vertex 0 14 32.5
    endloop
  endfacet
  facet normal 1 0 0
    outer loop
      vertex 0 14 22.5
      vertex 0 3 32.5
      vertex 0 3.33494 3.25
    endloop
  endfacet
  facet normal 1 0 0
    outer loop
      vertex 0 14.4489 22.5
      vertex 0 14 22.5
      vertex 0 3.33494 3.25
    endloop
  endfacet
  facet normal 1 0 0
    outer loop
      vertex 0 15.799 16.8385
      vertex 0 20 22.5
      vertex 0 19.0677 22.5
    endloop
  endfacet
  facet normal 1 0 0
    outer loop
      vertex 0 20 22.5
      vertex 0 15.799 16.8385
      vertex 0 20 0
    endloop
  endfacet
  facet normal 1 0 0
    outer loop
      vertex 0 6.25 3.29904
      vertex 0 15.799 16.8385
      vertex 0 14.5 17.5885
    endloop
  endfacet
  facet normal 1 0 0
    outer loop
      vertex 0 15.799 16.8385
      vertex 0 6.25 3.29904
      vertex 0 20 0
    endloop
  endfacet
  facet normal 1 0 0
    outer loop
      vertex 0 4.26454 2.71329
      vertex 0 6.25 3.29904
      vertex 0 5.34321 3.49178
    endloop
  endfacet
  facet normal 1 0 0
    outer loop
      vertex 0 4.26454 2.71329
      vertex 0 5.34321 3.49178
      vertex 0 4.4963 3.11472
    endloop
  endfacet
  facet normal 1 0 0
    outer loop
      vertex 0 0 0
      vertex 0 6.25 3.29904
      vertex 0 4.26454 2.71329
    endloop
  endfacet
  facet normal 1 0 0
    outer loop
      vertex 0 0 0
      vertex 0 3 32.5
      vertex 0 0 49.5
    endloop
  endfacet
  facet normal 1 0 0
    outer loop
      vertex 0 6.25 3.29904
      vertex 0 0 0
      vertex 0 20 0
    endloop
  endfacet
  facet normal 1 0 0
    outer loop
      vertex 0 3.33494 3.25
      vertex 0 0 0
      vertex 0 4.26454 2.71329
    endloop
  endfacet
  facet normal 1 0 0
    outer loop
      vertex 0 3 32.5
      vertex 0 0 0
      vertex 0 3.33494 3.25
    endloop
  endfacet
  facet normal 0 0 -1
    outer loop
      vertex -40 0 0
      vertex 0 20 0
      vertex 0 0 0
    endloop
  endfacet
  facet normal -0 0 -1
    outer loop
      vertex 0 20 0
      vertex -40 0 0
      vertex -40 20 0
    endloop
  endfacet
  facet normal 0 1 0
    outer loop
      vertex 0 20 22.5
      vertex 0 20 0
      vertex -16.5 20 22.5
    endloop
  endfacet
  facet normal 0 1 0
    outer loop
      vertex -16.5 20 24.1147
      vertex -16.5 20 22.5
      vertex -25 20 24.1147
    endloop
  endfacet
  facet normal 0 1 0
    outer loop
      vertex -17.5 20 38.1147
      vertex -16.5 20 49.5
      vertex -16.5 20 38.1147
    endloop
  endfacet
  facet normal 0 1 0
    outer loop
      vertex -16.5 20 49.5
      vertex -17.5 20 38.1147
      vertex -19.5 20 49.5
    endloop
  endfacet
  facet normal 0 1 0
    outer loop
      vertex -17.5 20 38.1147
      vertex -19.5 20 34.5
      vertex -19.5 20 49.5
    endloop
  endfacet
  facet normal 0 1 -0
    outer loop
      vertex -17.5 20 32.1147
      vertex -19.5 20 34.5
      vertex -17.5 20 38.1147
    endloop
  endfacet
  facet normal 0 1 0
    outer loop
      vertex -25 20 32.1147
      vertex -19.5 20 34.5
      vertex -17.5 20 32.1147
    endloop
  endfacet
  facet normal 0 1 0
    outer loop
      vertex -19.5 20 34.5
      vertex -25 20 32.1147
      vertex -40 20 34.5
    endloop
  endfacet
  facet normal 0 1 -0
    outer loop
      vertex -25 20 24.1147
      vertex -40 20 34.5
      vertex -25 20 32.1147
    endloop
  endfacet
  facet normal 0 1 0
    outer loop
      vertex -40 20 0
      vertex -16.5 20 22.5
      vertex 0 20 0
    endloop
  endfacet
  facet normal 0 1 0
    outer loop
      vertex -16.5 20 22.5
      vertex -40 20 0
      vertex -25 20 24.1147
    endloop
  endfacet
  facet normal 0 1 0
    outer loop
      vertex -25 20 24.1147
      vertex -40 20 0
      vertex -40 20 34.5
    endloop
  endfacet
  facet normal 0 -1 0
    outer loop
      vertex -18.3211 0 24.6799
      vertex -19.5 0 34.5
      vertex -40 0 34.5
    endloop
  endfacet
  facet normal 0 -1 0
    outer loop
      vertex -19.5 0 34.5
      vertex -14.5489 0 29.7773
      vertex -12.5 0 30.2009
    endloop
  endfacet
  facet normal 0 -1 0
    outer loop
      vertex -19.5 0 34.5
      vertex -16.3267 0 28.5778
      vertex -14.5489 0 29.7773
    endloop
  endfacet
  facet normal 0 -1 0
    outer loop
      vertex -19.5 0 34.5
      vertex -17.6227 0 26.7936
      vertex -16.3267 0 28.5778
    endloop
  endfacet
  facet normal 0 -1 0
    outer loop
      vertex -19.5 0 34.5
      vertex -18.3211 0 24.6799
      vertex -17.6227 0 26.7936
    endloop
  endfacet
  facet normal 0 -1 0
    outer loop
      vertex -40 0 34.5
      vertex -18.4022 0 22.4959
      vertex -18.3211 0 24.6799
    endloop
  endfacet
  facet normal 0 -1 0
    outer loop
      vertex -40 0 34.5
      vertex -18.2181 0 21.7197
      vertex -18.4022 0 22.4959
    endloop
  endfacet
  facet normal 0 -1 0
    outer loop
      vertex -40 0 0
      vertex -18.2181 0 21.7197
      vertex -40 0 34.5
    endloop
  endfacet
  facet normal 0 -1 -0
    outer loop
      vertex -18.2181 0 21.7197
      vertex -40 0 0
      vertex -17.92 0 20.4625
    endloop
  endfacet
  facet normal 0 -1 -0
    outer loop
      vertex -17.92 0 20.4625
      vertex -40 0 0
      vertex -16.9715 0 18.7446
    endloop
  endfacet
  facet normal 0 -1 0
    outer loop
      vertex 0 0 0
      vertex -13.3328 0 16.5227
      vertex -14.1434 0 16.6556
    endloop
  endfacet
  facet normal 0 -1 0
    outer loop
      vertex 0 0 0
      vertex -14.1434 0 16.6556
      vertex -40 0 0
    endloop
  endfacet
  facet normal 0 -1 -0
    outer loop
      vertex -15.6728 0 17.4533
      vertex -40 0 0
      vertex -14.1434 0 16.6556
    endloop
  endfacet
  facet normal 0 -1 -0
    outer loop
      vertex -16.9715 0 18.7446
      vertex -40 0 0
      vertex -15.6728 0 17.4533
    endloop
  endfacet
  facet normal 0 -1 0
    outer loop
      vertex -12.5 0 30.2009
      vertex -19.5 0 49.5
      vertex -19.5 0 34.5
    endloop
  endfacet
  facet normal 0 -1 0
    outer loop
      vertex -19.5 0 49.5
      vertex -12.5 0 30.2009
      vertex 0 0 49.5
    endloop
  endfacet
  facet normal 0 -1 0
    outer loop
      vertex -12.0872 0 30.1156
      vertex 0 0 49.5
      vertex -12.5 0 30.2009
    endloop
  endfacet
  facet normal 0 -1 0
    outer loop
      vertex -10.4511 0 29.7773
      vertex 0 0 49.5
      vertex -12.0872 0 30.1156
    endloop
  endfacet
  facet normal 0 -1 0
    outer loop
      vertex -8.67328 0 28.5778
      vertex 0 0 49.5
      vertex -10.4511 0 29.7773
    endloop
  endfacet
  facet normal 0 -1 0
    outer loop
      vertex -7.37732 0 26.7936
      vertex 0 0 49.5
      vertex -8.67328 0 28.5778
    endloop
  endfacet
  facet normal 0 -1 0
    outer loop
      vertex -6.67895 0 24.6799
      vertex 0 0 49.5
      vertex -7.37732 0 26.7936
    endloop
  endfacet
  facet normal 0 -1 0
    outer loop
      vertex -6.62464 0 23.2187
      vertex 0 0 49.5
      vertex -6.67895 0 24.6799
    endloop
  endfacet
  facet normal 0 -1 0
    outer loop
      vertex -6.59778 0 22.4959
      vertex 0 0 49.5
      vertex -6.62464 0 23.2187
    endloop
  endfacet
  facet normal 0 -1 0
    outer loop
      vertex 0 0 0
      vertex -6.59778 0 22.4959
      vertex -6.78187 0 21.7197
    endloop
  endfacet
  facet normal 0 -1 0
    outer loop
      vertex 0 0 0
      vertex -6.78187 0 21.7197
      vertex -7.08005 0 20.4625
    endloop
  endfacet
  facet normal 0 -1 0
    outer loop
      vertex 0 0 0
      vertex -11.6672 0 16.5227
      vertex -12.5 0 16.3861
    endloop
  endfacet
  facet normal 0 -1 0
    outer loop
      vertex -13.3328 0 16.5227
      vertex 0 0 0
      vertex -12.5 0 16.3861
    endloop
  endfacet
  facet normal 0 -1 0
    outer loop
      vertex -11.6672 0 16.5227
      vertex 0 0 0
      vertex -10.8566 0 16.6556
    endloop
  endfacet
  facet normal 0 -1 0
    outer loop
      vertex -6.59778 0 22.4959
      vertex 0 0 0
      vertex 0 0 49.5
    endloop
  endfacet
  facet normal 0 -1 0
    outer loop
      vertex -8.02849 0 18.7446
      vertex 0 0 0
      vertex -7.08005 0 20.4625
    endloop
  endfacet
  facet normal 0 -1 0
    outer loop
      vertex -9.32716 0 17.4533
      vertex 0 0 0
      vertex -8.02849 0 18.7446
    endloop
  endfacet
  facet normal 0 -1 0
    outer loop
      vertex -10.8566 0 16.6556
      vertex 0 0 0
      vertex -9.32716 0 17.4533
    endloop
  endfacet
  facet normal 0 0 1
    outer loop
      vertex -19.5 13 49.5
      vertex -16.5 20 49.5
      vertex -19.5 20 49.5
    endloop
  endfacet
  facet normal -0 0 1
    outer loop
      vertex -16.5 3 49.5
      vertex 0 0 49.5
      vertex 0 3 49.5
    endloop
  endfacet
  facet normal 0 0 1
    outer loop
      vertex -16.5 20 49.5
      vertex -19.5 13 49.5
      vertex -16.5 3 49.5
    endloop
  endfacet
  facet normal -0 0 1
    outer loop
      vertex -19.5 7 49.5
      vertex -16.5 3 49.5
      vertex -19.5 13 49.5
    endloop
  endfacet
  facet normal 0 0 1
    outer loop
      vertex -16.5 3 49.5
      vertex -19.5 0 49.5
      vertex 0 0 49.5
    endloop
  endfacet
  facet normal 0 0 1
    outer loop
      vertex -19.5 0 49.5
      vertex -16.5 3 49.5
      vertex -19.5 7 49.5
    endloop
  endfacet
  facet normal -0 0 1
    outer loop
      vertex -24.5 13 49.5
      vertex -19.5 7 49.5
      vertex -19.5 13 49.5
    endloop
  endfacet
  facet normal 0 0 1
    outer loop
      vertex -19.5 7 49.5
      vertex -24.5 13 49.5
      vertex -24.5 7 49.5
    endloop
  endfacet
  facet normal -1 0 0
    outer loop
      vertex -19.5 13 34.5
      vertex -19.5 20 49.5
      vertex -19.5 20 34.5
    endloop
  endfacet
  facet normal -1 -0 0
    outer loop
      vertex -19.5 20 49.5
      vertex -19.5 13 34.5
      vertex -19.5 13 49.5
    endloop
  endfacet
  facet normal -1 0 0
    outer loop
      vertex -19.5 0 34.5
      vertex -19.5 7 49.5
      vertex -19.5 7 34.5
    endloop
  endfacet
  facet normal -1 -0 0
    outer loop
      vertex -19.5 7 49.5
      vertex -19.5 0 34.5
      vertex -19.5 0 49.5
    endloop
  endfacet
  facet normal -1 0 0
    outer loop
      vertex -24.5 7 34.5
      vertex -24.5 13 49.5
      vertex -24.5 13 34.5
    endloop
  endfacet
  facet normal -1 -0 0
    outer loop
      vertex -24.5 13 49.5
      vertex -24.5 7 34.5
      vertex -24.5 7 49.5
    endloop
  endfacet
  facet normal 0 1 -0
    outer loop
      vertex -19.5 13 34.5
      vertex -24.5 13 49.5
      vertex -19.5 13 49.5
    endloop
  endfacet
  facet normal 0 1 0
    outer loop
      vertex -24.5 13 49.5
      vertex -19.5 13 34.5
      vertex -24.5 13 34.5
    endloop
  endfacet
  facet normal 0 -1 0
    outer loop
      vertex -24.5 7 34.5
      vertex -19.5 7 49.5
      vertex -24.5 7 49.5
    endloop
  endfacet
  facet normal 0 -1 -0
    outer loop
      vertex -19.5 7 49.5
      vertex -24.5 7 34.5
      vertex -19.5 7 34.5
    endloop
  endfacet
  facet normal 1 -0 0
    outer loop
      vertex -16.5 3 49.5
      vertex -16.5 20 38.1147
      vertex -16.5 20 49.5
    endloop
  endfacet
  facet normal 1 0 0
    outer loop
      vertex -16.5 20 38.1147
      vertex -16.5 3 49.5
      vertex -16.5 14 32.5
    endloop
  endfacet
  facet normal 1 0 0
    outer loop
      vertex -16.5 14 32.5
      vertex -16.5 3 49.5
      vertex -16.5 3 32.5
    endloop
  endfacet
  facet normal 1 0 0
    outer loop
      vertex -16.5 14 31.7224
      vertex -16.5 20 38.1147
      vertex -16.5 14 32.5
    endloop
  endfacet
  facet normal 1 -0 0
    outer loop
      vertex -16.5 14 31.7224
      vertex -16.5 8.23686 17.7404
      vertex -16.5 20 38.1147
    endloop
  endfacet
  facet normal 1 0 0
    outer loop
      vertex -16.5 14 31.7224
      vertex -16.5 7.99535 19.3806
      vertex -16.5 8.23686 17.7404
    endloop
  endfacet
  facet normal 1 0 -0
    outer loop
      vertex -16.5 7.99535 19.3806
      vertex -16.5 14 31.7224
      vertex -16.5 7.36584 20.2317
    endloop
  endfacet
  facet normal 1 0 -0
    outer loop
      vertex -16.5 20 22.5
      vertex -16.5 20 24.1147
      vertex -16.5 19.0677 22.5
    endloop
  endfacet
  facet normal -0 0 1
    outer loop
      vertex -16.5 14 32.5
      vertex 0 3 32.5
      vertex 0 14 32.5
    endloop
  endfacet
  facet normal 0 0 1
    outer loop
      vertex 0 3 32.5
      vertex -16.5 14 32.5
      vertex -16.5 3 32.5
    endloop
  endfacet
  facet normal 0 1 -0
    outer loop
      vertex 0 3 32.5
      vertex -16.5 3 49.5
      vertex 0 3 49.5
    endloop
  endfacet
  facet normal 0 1 0
    outer loop
      vertex -16.5 3 49.5
      vertex 0 3 32.5
      vertex -16.5 3 32.5
    endloop
  endfacet
  facet normal -0 0 1
    outer loop
      vertex -6.5 14.4489 22.5
      vertex 0 14 22.5
      vertex 0 14.4489 22.5
    endloop
  endfacet
  facet normal 0 0 1
    outer loop
      vertex 0 14 22.5
      vertex -6.5 14.4489 22.5
      vertex -6.5 14 22.5
    endloop
  endfacet
  facet normal -0 0 1
    outer loop
      vertex -16.5 20 22.5
      vertex 0 19.0677 22.5
      vertex 0 20 22.5
    endloop
  endfacet
  facet normal 0 0 1
    outer loop
      vertex 0 19.0677 22.5
      vertex -16.5 20 22.5
      vertex -16.5 19.0677 22.5
    endloop
  endfacet
  facet normal 0 1 0
    outer loop
      vertex 0 14 32.5
      vertex -8.5 14 31.7224
      vertex -16.5 14 32.5
    endloop
  endfacet
  facet normal 0 1 0
    outer loop
      vertex 0 14 32.5
      vertex -6.5 14 27.7224
      vertex -8.5 14 31.7224
    endloop
  endfacet
  facet normal 0 1 -0
    outer loop
      vertex 0 14 22.5
      vertex -6.5 14 27.7224
      vertex 0 14 32.5
    endloop
  endfacet
  facet normal 0 1 0
    outer loop
      vertex -6.5 14 27.7224
      vertex 0 14 22.5
      vertex -6.5 14 22.5
    endloop
  endfacet
  facet normal 0 1 0
    outer loop
      vertex -16.5 14 32.5
      vertex -8.5 14 31.7224
      vertex -16.5 14 31.7224
    endloop
  endfacet
  facet normal 0 1 0
    outer loop
      vertex -8.5 14 31.7224
      vertex -6.5 14 27.7224
      vertex -8.5 14 27.7224
    endloop
  endfacet
  facet normal 0 0.866026 -0.499999
    outer loop
      vertex 0 14.4489 22.5
      vertex -6.5 4.33494 4.98205
      vertex -6.5 14.4489 22.5
    endloop
  endfacet
  facet normal 0 0.866025 -0.5
    outer loop
      vertex -6.5 4.33494 4.98205
      vertex 0 3.33494 3.25
      vertex -17.5 4.33494 4.98205
    endloop
  endfacet
  facet normal 4.53912e-07 0.866026 -0.499999
    outer loop
      vertex 0 3.33494 3.25
      vertex -6.5 4.33494 4.98205
      vertex 0 14.4489 22.5
    endloop
  endfacet
  facet normal 0 0.866025 -0.5
    outer loop
      vertex -17.5 4.33494 4.98205
      vertex -25 20 32.1147
      vertex -17.5 20 32.1147
    endloop
  endfacet
  facet normal 6.86987e-08 0.866025 -0.5
    outer loop
      vertex -17.5 4.33494 4.98205
      vertex -25 3.33494 3.25
      vertex -25 20 32.1147
    endloop
  endfacet
  facet normal 0 0.866025 -0.5
    outer loop
      vertex -25 3.33494 3.25
      vertex -17.5 4.33494 4.98205
      vertex 0 3.33494 3.25
    endloop
  endfacet
  facet normal -5.95238e-08 -0.866025 0.5
    outer loop
      vertex -23 5.5 2
      vertex -2 6.25 3.29904
      vertex -23 6.5 3.73205
    endloop
  endfacet
  facet normal 0 -0.866026 0.499999
    outer loop
      vertex -2 6.25 3.29904
      vertex -23 5.5 2
      vertex -2 5.5 2
    endloop
  endfacet
  facet normal 0 -0.866026 0.499999
    outer loop
      vertex -23 6.5 3.73205
      vertex -25 14.5 17.5885
      vertex -25 6.5 3.73205
    endloop
  endfacet
  facet normal 0 -0.866026 0.499999
    outer loop
      vertex -25 14.5 17.5885
      vertex -23 6.5 3.73205
      vertex 0 14.5 17.5885
    endloop
  endfacet
  facet normal -9.3525e-08 -0.866026 0.499999
    outer loop
      vertex -2 6.25 3.29904
      vertex 0 14.5 17.5885
      vertex -23 6.5 3.73205
    endloop
  endfacet
  facet normal 0 -0.866026 0.499999
    outer loop
      vertex 0 14.5 17.5885
      vertex -2 6.25 3.29904
      vertex 0 6.25 3.29904
    endloop
  endfacet
  facet normal 0 0.499998 0.866026
    outer loop
      vertex -2 5.5 2
      vertex -23 5.5 2
      vertex -2 4.26454 2.71329
    endloop
  endfacet
  facet normal -0 0.500004 0.866023
    outer loop
      vertex -2 4.26454 2.71329
      vertex 0 3.33494 3.25
      vertex 0 4.26454 2.71329
    endloop
  endfacet
  facet normal 2.06196e-07 0.500001 0.866025
    outer loop
      vertex -23 3.85272 2.95106
      vertex -2 4.26454 2.71329
      vertex -23 5.5 2
    endloop
  endfacet
  facet normal 1.31096e-07 0.500004 0.866023
    outer loop
      vertex -2 4.26454 2.71329
      vertex -23 3.85272 2.95106
      vertex 0 3.33494 3.25
    endloop
  endfacet
  facet normal 0 0.499999 0.866026
    outer loop
      vertex -25 3.33494 3.25
      vertex -23 3.85272 2.95106
      vertex -25 3.85272 2.95106
    endloop
  endfacet
  facet normal 0 0.499999 0.866026
    outer loop
      vertex -23 3.85272 2.95106
      vertex -25 3.33494 3.25
      vertex 0 3.33494 3.25
    endloop
  endfacet
  facet normal 1 0 0
    outer loop
      vertex -25 14.5 17.5885
      vertex -25 20 24.1147
      vertex -25 20 32.1147
    endloop
  endfacet
  facet normal 1 0 0
    outer loop
      vertex -25 20 24.1147
      vertex -25 14.5 17.5885
      vertex -25 15.799 16.8385
    endloop
  endfacet
  facet normal 1 0 0
    outer loop
      vertex -25 3.33494 3.25
      vertex -25 14.5 17.5885
      vertex -25 20 32.1147
    endloop
  endfacet
  facet normal 1 0 0
    outer loop
      vertex -25 14.5 17.5885
      vertex -25 5.29094 3.98904
      vertex -25 6.5 3.73205
    endloop
  endfacet
  facet normal 1 0 0
    outer loop
      vertex -25 14.5 17.5885
      vertex -25 3.33494 3.25
      vertex -25 5.29094 3.98904
    endloop
  endfacet
  facet normal 1 0 0
    outer loop
      vertex -25 5.29094 3.98904
      vertex -25 3.33494 3.25
      vertex -25 4.16174 3.48629
    endloop
  endfacet
  facet normal 1 0 0
    outer loop
      vertex -25 4.16174 3.48629
      vertex -25 3.33494 3.25
      vertex -25 3.85272 2.95106
    endloop
  endfacet
  facet normal 0 -0.406729 0.913549
    outer loop
      vertex -2 5.34321 3.49178
      vertex 0 4.4963 3.11472
      vertex 0 5.34321 3.49178
    endloop
  endfacet
  facet normal 0 -0.406729 0.913549
    outer loop
      vertex 0 4.4963 3.11472
      vertex -2 5.34321 3.49178
      vertex -2 4.4963 3.11472
    endloop
  endfacet
  facet normal -0 0.207907 0.978149
    outer loop
      vertex -2 6.25 3.29904
      vertex 0 5.34321 3.49178
      vertex 0 6.25 3.29904
    endloop
  endfacet
  facet normal 0 0.207907 0.978149
    outer loop
      vertex 0 5.34321 3.49178
      vertex -2 6.25 3.29904
      vertex -2 5.34321 3.49178
    endloop
  endfacet
  facet normal 0 -0.866031 0.499991
    outer loop
      vertex -2 4.26454 2.71329
      vertex 0 4.4963 3.11472
      vertex -2 4.4963 3.11472
    endloop
  endfacet
  facet normal 0 -0.866031 0.499991
    outer loop
      vertex 0 4.4963 3.11472
      vertex -2 4.26454 2.71329
      vertex 0 4.26454 2.71329
    endloop
  endfacet
  facet normal -1 0 0
    outer loop
      vertex -2 5.5 2
      vertex -2 5.34321 3.49178
      vertex -2 6.25 3.29904
    endloop
  endfacet
  facet normal -1 0 0
    outer loop
      vertex -2 5.5 2
      vertex -2 4.4963 3.11472
      vertex -2 5.34321 3.49178
    endloop
  endfacet
  facet normal -1 0 -0
    outer loop
      vertex -2 4.4963 3.11472
      vertex -2 5.5 2
      vertex -2 4.26454 2.71329
    endloop
  endfacet
  facet normal 0 -0.406735 0.913546
    outer loop
      vertex -25 5.29094 3.98904
      vertex -23 4.16174 3.48629
      vertex -23 5.29094 3.98904
    endloop
  endfacet
  facet normal 0 -0.406735 0.913546
    outer loop
      vertex -23 4.16174 3.48629
      vertex -25 5.29094 3.98904
      vertex -25 4.16174 3.48629
    endloop
  endfacet
  facet normal -0 0.207909 0.978148
    outer loop
      vertex -25 6.5 3.73205
      vertex -23 5.29094 3.98904
      vertex -23 6.5 3.73205
    endloop
  endfacet
  facet normal 0 0.207909 0.978148
    outer loop
      vertex -23 5.29094 3.98904
      vertex -25 6.5 3.73205
      vertex -25 5.29094 3.98904
    endloop
  endfacet
  facet normal 0 -0.866022 0.500006
    outer loop
      vertex -25 3.85272 2.95106
      vertex -23 4.16174 3.48629
      vertex -25 4.16174 3.48629
    endloop
  endfacet
  facet normal 0 -0.866022 0.500006
    outer loop
      vertex -23 4.16174 3.48629
      vertex -25 3.85272 2.95106
      vertex -23 3.85272 2.95106
    endloop
  endfacet
  facet normal 1 0 0
    outer loop
      vertex -23 5.29094 3.98904
      vertex -23 5.5 2
      vertex -23 6.5 3.73205
    endloop
  endfacet
  facet normal 1 -0 0
    outer loop
      vertex -23 4.16174 3.48629
      vertex -23 5.5 2
      vertex -23 5.29094 3.98904
    endloop
  endfacet
  facet normal 1 0 0
    outer loop
      vertex -23 5.5 2
      vertex -23 4.16174 3.48629
      vertex -23 3.85272 2.95106
    endloop
  endfacet
  facet normal 0 0.866024 -0.500002
    outer loop
      vertex -6.5 14 27.7224
      vertex -8.5 8.23686 17.7404
      vertex -8.5 14 27.7224
    endloop
  endfacet
  facet normal -9.11715e-06 0.866025 -0.500001
    outer loop
      vertex -6.5 1.73686 6.48205
      vertex -8.5 8.23686 17.7404
      vertex -6.5 14 27.7224
    endloop
  endfacet
  facet normal -1.86297e-05 0.86602 -0.50001
    outer loop
      vertex -11.2639 6.33475 14.4458
      vertex -6.5 1.73686 6.48205
      vertex -12.5 6.23686 14.2763
    endloop
  endfacet
  facet normal 2.15714e-05 0.86603 -0.499992
    outer loop
      vertex -10.1489 6.61883 14.9379
      vertex -6.5 1.73686 6.48205
      vertex -11.2639 6.33475 14.4458
    endloop
  endfacet
  facet normal -2.71096e-05 0.866021 -0.500007
    outer loop
      vertex -9.26393 7.06129 15.7042
      vertex -6.5 1.73686 6.48205
      vertex -10.1489 6.61883 14.9379
    endloop
  endfacet
  facet normal 9.25728e-06 0.866026 -0.499999
    outer loop
      vertex -8.69577 7.61883 16.6699
      vertex -6.5 1.73686 6.48205
      vertex -9.26393 7.06129 15.7042
    endloop
  endfacet
  facet normal 5.02171e-05 0.86603 -0.499993
    outer loop
      vertex -8.5 8.23686 17.7404
      vertex -6.5 1.73686 6.48205
      vertex -8.69577 7.61883 16.6699
    endloop
  endfacet
  facet normal 0 0.866025 -0.500001
    outer loop
      vertex -16.5 8.23686 17.7404
      vertex -17.5 20 38.1147
      vertex -16.5 20 38.1147
    endloop
  endfacet
  facet normal 0 0.866026 -0.499999
    outer loop
      vertex -17.5 1.73686 6.48205
      vertex -12.5 6.23686 14.2763
      vertex -6.5 1.73686 6.48205
    endloop
  endfacet
  facet normal 1.89309e-05 0.866021 -0.500008
    outer loop
      vertex -12.5 6.23686 14.2763
      vertex -17.5 1.73686 6.48205
      vertex -13.7361 6.33475 14.4458
    endloop
  endfacet
  facet normal -2.25605e-05 0.866029 -0.499993
    outer loop
      vertex -13.7361 6.33475 14.4458
      vertex -17.5 1.73686 6.48205
      vertex -14.8511 6.61883 14.9379
    endloop
  endfacet
  facet normal 1.63504e-05 0.866025 -0.5
    outer loop
      vertex -16.5 8.23686 17.7404
      vertex -17.5 1.73686 6.48205
      vertex -17.5 20 38.1147
    endloop
  endfacet
  facet normal -6.66269e-05 0.866028 -0.499995
    outer loop
      vertex -16.3042 7.61883 16.6699
      vertex -17.5 1.73686 6.48205
      vertex -16.5 8.23686 17.7404
    endloop
  endfacet
  facet normal -1.05457e-05 0.866025 -0.5
    outer loop
      vertex -15.7361 7.06129 15.7042
      vertex -17.5 1.73686 6.48205
      vertex -16.3042 7.61883 16.6699
    endloop
  endfacet
  facet normal 2.92926e-05 0.866022 -0.500006
    outer loop
      vertex -14.8511 6.61883 14.9379
      vertex -17.5 1.73686 6.48205
      vertex -15.7361 7.06129 15.7042
    endloop
  endfacet
  facet normal -0 0.499999 0.866026
    outer loop
      vertex -17.5 4.33494 4.98205
      vertex -6.5 1.73686 6.48205
      vertex -6.5 4.33494 4.98205
    endloop
  endfacet
  facet normal 0 0.499999 0.866026
    outer loop
      vertex -6.5 1.73686 6.48205
      vertex -17.5 4.33494 4.98205
      vertex -17.5 1.73686 6.48205
    endloop
  endfacet
  facet normal 1 0 0
    outer loop
      vertex -17.5 1.73686 6.48205
      vertex -17.5 20 32.1147
      vertex -17.5 20 38.1147
    endloop
  endfacet
  facet normal 1 0 0
    outer loop
      vertex -17.5 20 32.1147
      vertex -17.5 1.73686 6.48205
      vertex -17.5 4.33494 4.98205
    endloop
  endfacet
  facet normal -1 0 0
    outer loop
      vertex -6.5 4.33494 4.98205
      vertex -6.5 14 22.5
      vertex -6.5 14.4489 22.5
    endloop
  endfacet
  facet normal -1 0 0
    outer loop
      vertex -6.5 1.73686 6.48205
      vertex -6.5 14 22.5
      vertex -6.5 4.33494 4.98205
    endloop
  endfacet
  facet normal -1 -0 0
    outer loop
      vertex -6.5 14 22.5
      vertex -6.5 1.73686 6.48205
      vertex -6.5 14 27.7224
    endloop
  endfacet
  facet normal 0 0.866025 -0.500002
    outer loop
      vertex -8.5 14 31.7224
      vertex -12.5 8.70481 22.5509
      vertex -16.5 14 31.7224
    endloop
  endfacet
  facet normal -2.95069e-06 0.866025 -0.500001
    outer loop
      vertex -8.5 14 31.7224
      vertex -11.3875 8.61671 22.3983
      vertex -12.5 8.70481 22.5509
    endloop
  endfacet
  facet normal 2.60754e-05 0.866021 -0.500007
    outer loop
      vertex -8.5 14 31.7224
      vertex -11.1403 8.59713 22.3644
      vertex -11.3875 8.61671 22.3983
    endloop
  endfacet
  facet normal -2.58782e-05 0.866028 -0.499996
    outer loop
      vertex -8.5 14 31.7224
      vertex -9.91374 8.28465 21.8231
      vertex -11.1403 8.59713 22.3644
    endloop
  endfacet
  facet normal 3.8593e-06 0.866026 -0.5
    outer loop
      vertex -8.5 14 31.7224
      vertex -8.94032 7.79794 20.9801
      vertex -9.91374 8.28465 21.8231
    endloop
  endfacet
  facet normal 2.15884e-05 0.866025 -0.5
    outer loop
      vertex -8.94032 7.79794 20.9801
      vertex -8.5 14 31.7224
      vertex -8.5 7.36584 20.2317
    endloop
  endfacet
  facet normal -2.24001e-06 0.866024 -0.500002
    outer loop
      vertex -13.8597 8.59713 22.3644
      vertex -16.5 14 31.7224
      vertex -12.5 8.70481 22.5509
    endloop
  endfacet
  facet normal 2.58775e-05 0.866028 -0.499996
    outer loop
      vertex -15.0863 8.28465 21.8231
      vertex -16.5 14 31.7224
      vertex -13.8597 8.59713 22.3644
    endloop
  endfacet
  facet normal -3.85938e-06 0.866026 -0.5
    outer loop
      vertex -16.0597 7.79794 20.9801
      vertex -16.5 14 31.7224
      vertex -15.0863 8.28465 21.8231
    endloop
  endfacet
  facet normal -2.15894e-05 0.866025 -0.5
    outer loop
      vertex -16.5 14 31.7224
      vertex -16.0597 7.79794 20.9801
      vertex -16.5 7.36584 20.2317
    endloop
  endfacet
  facet normal -1 0 0
    outer loop
      vertex -8.5 8.01789 19.2275
      vertex -8.5 14 27.7224
      vertex -8.5 8.23686 17.7404
    endloop
  endfacet
  facet normal -1 0 0
    outer loop
      vertex -8.5 7.99535 19.3806
      vertex -8.5 14 27.7224
      vertex -8.5 8.01789 19.2275
    endloop
  endfacet
  facet normal -1 0 0
    outer loop
      vertex -8.5 7.36584 20.2317
      vertex -8.5 14 27.7224
      vertex -8.5 7.99535 19.3806
    endloop
  endfacet
  facet normal -1 -0 0
    outer loop
      vertex -8.5 14 27.7224
      vertex -8.5 7.36584 20.2317
      vertex -8.5 14 31.7224
    endloop
  endfacet
  facet normal -0.968966 -0.0911002 0.229796
    outer loop
      vertex -6.78187 0 21.7197
      vertex -8.5 8.23686 17.7404
      vertex -8.69577 7.61883 16.6699
    endloop
  endfacet
  facet normal -0.968964 -0.0910945 0.229807
    outer loop
      vertex -8.5 8.23686 17.7404
      vertex -6.78187 0 21.7197
      vertex -6.59778 0 22.4959
    endloop
  endfacet
  facet normal -0.445378 -0.604892 -0.66011
    outer loop
      vertex -10.4511 0 29.7773
      vertex -9.91374 8.28465 21.8231
      vertex -8.67328 0 28.5778
    endloop
  endfacet
  facet normal -0.445411 -0.604879 -0.660099
    outer loop
      vertex -9.91374 8.28465 21.8231
      vertex -10.4511 0 29.7773
      vertex -11.1403 8.59713 22.3644
    endloop
  endfacet
  facet normal 0.445443 0.269205 0.853879
    outer loop
      vertex -15.6728 0 17.4533
      vertex -13.7361 6.33475 14.4458
      vertex -14.8511 6.61883 14.9379
    endloop
  endfacet
  facet normal 0.445376 0.269238 0.853903
    outer loop
      vertex -13.7361 6.33475 14.4458
      vertex -15.6728 0 17.4533
      vertex -14.1434 0 16.6556
    endloop
  endfacet
  facet normal -0.153477 -0.652311 -0.74225
    outer loop
      vertex -12.0872 0 30.1156
      vertex -11.1403 8.59713 22.3644
      vertex -10.4511 0 29.7773
    endloop
  endfacet
  facet normal -0.153457 -0.652314 -0.742251
    outer loop
      vertex -11.1403 8.59713 22.3644
      vertex -12.0872 0 30.1156
      vertex -11.3875 8.61671 22.3983
    endloop
  endfacet
  facet normal -0.968965 -0.244561 -0.0360052
    outer loop
      vertex -6.62464 0 23.2187
      vertex -8.5 7.99535 19.3806
      vertex -8.5 8.01789 19.2275
    endloop
  endfacet
  facet normal -0.968964 -0.244565 -0.0360145
    outer loop
      vertex -8.5 7.99535 19.3806
      vertex -6.62464 0 23.2187
      vertex -6.67895 0 24.6799
    endloop
  endfacet
  facet normal -0.968964 -0.244563 -0.0360111
    outer loop
      vertex -6.59778 0 22.4959
      vertex -8.5 8.01789 19.2275
      vertex -8.5 8.23686 17.7404
    endloop
  endfacet
  facet normal -0.968965 -0.244562 -0.0360077
    outer loop
      vertex -8.5 8.01789 19.2275
      vertex -6.59778 0 22.4959
      vertex -6.62464 0 23.2187
    endloop
  endfacet
  facet normal -0.874118 0.0548613 0.482605
    outer loop
      vertex -8.02849 0 18.7446
      vertex -8.69577 7.61883 16.6699
      vertex -9.26393 7.06129 15.7042
    endloop
  endfacet
  facet normal -0.874123 0.0548587 0.482597
    outer loop
      vertex -8.69577 7.61883 16.6699
      vertex -8.02849 0 18.7446
      vertex -7.08005 0 20.4625
    endloop
  endfacet
  facet normal -0.153378 -0.652326 -0.742257
    outer loop
      vertex -12.5 0 30.2009
      vertex -11.3875 8.61671 22.3983
      vertex -12.0872 0 30.1156
    endloop
  endfacet
  facet normal -0.153471 -0.65231 -0.742253
    outer loop
      vertex -11.3875 8.61671 22.3983
      vertex -12.5 0 30.2009
      vertex -12.5 8.70481 22.5509
    endloop
  endfacet
  facet normal -0.6937 -0.514684 -0.503866
    outer loop
      vertex -7.37732 0 26.7936
      vertex -9.91374 8.28465 21.8231
      vertex -8.94032 7.79794 20.9801
    endloop
  endfacet
  facet normal -0.693697 -0.514685 -0.503869
    outer loop
      vertex -9.91374 8.28465 21.8231
      vertex -7.37732 0 26.7936
      vertex -8.67328 0 28.5778
    endloop
  endfacet
  facet normal 0.153468 -0.65231 -0.742253
    outer loop
      vertex -12.5 0 30.2009
      vertex -13.8597 8.59713 22.3644
      vertex -12.5 8.70481 22.5509
    endloop
  endfacet
  facet normal 0.153457 -0.652312 -0.742253
    outer loop
      vertex -13.8597 8.59713 22.3644
      vertex -12.5 0 30.2009
      vertex -14.5489 0 29.7773
    endloop
  endfacet
  facet normal -0.693658 0.179047 0.697697
    outer loop
      vertex -10.1489 6.61883 14.9379
      vertex -8.02849 0 18.7446
      vertex -9.26393 7.06129 15.7042
    endloop
  endfacet
  facet normal -0.693702 0.179013 0.697662
    outer loop
      vertex -8.02849 0 18.7446
      vertex -10.1489 6.61883 14.9379
      vertex -9.32716 0 17.4533
    endloop
  endfacet
  facet normal 0.153533 0.316642 0.936037
    outer loop
      vertex -12.5 6.23686 14.2763
      vertex -13.3328 0 16.5227
      vertex -12.5 0 16.3861
    endloop
  endfacet
  facet normal 0.153432 0.316659 0.936048
    outer loop
      vertex -13.3328 0 16.5227
      vertex -12.5 6.23686 14.2763
      vertex -13.7361 6.33475 14.4458
    endloop
  endfacet
  facet normal -0.968962 -0.0910862 0.229816
    outer loop
      vertex -7.08005 0 20.4625
      vertex -6.78187 0 21.7197
      vertex -8.69577 7.61883 16.6699
    endloop
  endfacet
  facet normal -0.87409 -0.390544 -0.288863
    outer loop
      vertex -8.5 7.99535 19.3806
      vertex -6.67895 0 24.6799
      vertex -8.5 7.36584 20.2317
    endloop
  endfacet
  facet normal -0.874117 -0.39052 -0.288813
    outer loop
      vertex -6.67895 0 24.6799
      vertex -8.94032 7.79794 20.9801
      vertex -8.5 7.36584 20.2317
    endloop
  endfacet
  facet normal -0.874119 -0.390519 -0.28881
    outer loop
      vertex -8.94032 7.79794 20.9801
      vertex -6.67895 0 24.6799
      vertex -7.37732 0 26.7936
    endloop
  endfacet
  facet normal -0.153467 0.31666 0.936042
    outer loop
      vertex -11.6672 0 16.5227
      vertex -10.8566 0 16.6556
      vertex -11.2639 6.33475 14.4458
    endloop
  endfacet
  facet normal 0.968972 -0.091128 0.229757
    outer loop
      vertex -18.2181 0 21.7197
      vertex -17.92 0 20.4625
      vertex -16.3042 7.61883 16.6699
    endloop
  endfacet
  facet normal -0.445443 0.269203 0.853879
    outer loop
      vertex -11.2639 6.33475 14.4458
      vertex -9.32716 0 17.4533
      vertex -10.1489 6.61883 14.9379
    endloop
  endfacet
  facet normal -0.445367 0.26924 0.853908
    outer loop
      vertex -9.32716 0 17.4533
      vertex -11.2639 6.33475 14.4458
      vertex -10.8566 0 16.6556
    endloop
  endfacet
  facet normal -0.153432 0.316659 0.936048
    outer loop
      vertex -12.5 6.23686 14.2763
      vertex -11.6672 0 16.5227
      vertex -11.2639 6.33475 14.4458
    endloop
  endfacet
  facet normal -0.153533 0.316642 0.936037
    outer loop
      vertex -11.6672 0 16.5227
      vertex -12.5 6.23686 14.2763
      vertex -12.5 0 16.3861
    endloop
  endfacet
  facet normal 0.968962 -0.0910848 0.229819
    outer loop
      vertex -18.2181 0 21.7197
      vertex -16.5 8.23686 17.7404
      vertex -18.4022 0 22.4959
    endloop
  endfacet
  facet normal 0.968962 -0.0910869 0.229815
    outer loop
      vertex -16.5 8.23686 17.7404
      vertex -18.2181 0 21.7197
      vertex -16.3042 7.61883 16.6699
    endloop
  endfacet
  facet normal 0.693689 -0.514687 -0.503879
    outer loop
      vertex -17.6227 0 26.7936
      vertex -15.0863 8.28465 21.8231
      vertex -16.3267 0 28.5778
    endloop
  endfacet
  facet normal 0.693707 -0.514681 -0.50386
    outer loop
      vertex -15.0863 8.28465 21.8231
      vertex -17.6227 0 26.7936
      vertex -16.0597 7.79794 20.9801
    endloop
  endfacet
  facet normal 0.693647 0.179057 0.697706
    outer loop
      vertex -16.9715 0 18.7446
      vertex -14.8511 6.61883 14.9379
      vertex -15.7361 7.06129 15.7042
    endloop
  endfacet
  facet normal 0.693693 0.179021 0.697669
    outer loop
      vertex -14.8511 6.61883 14.9379
      vertex -16.9715 0 18.7446
      vertex -15.6728 0 17.4533
    endloop
  endfacet
  facet normal 0.968969 -0.24455 -0.0359814
    outer loop
      vertex -18.4022 0 22.4959
      vertex -16.5 7.99535 19.3806
      vertex -18.3211 0 24.6799
    endloop
  endfacet
  facet normal 0.968965 -0.244561 -0.0360101
    outer loop
      vertex -16.5 7.99535 19.3806
      vertex -18.4022 0 22.4959
      vertex -16.5 8.23686 17.7404
    endloop
  endfacet
  facet normal 0.874124 -0.390517 -0.288795
    outer loop
      vertex -16.0597 7.79794 20.9801
      vertex -18.3211 0 24.6799
      vertex -16.5 7.36584 20.2317
    endloop
  endfacet
  facet normal 0.874085 -0.390552 -0.288869
    outer loop
      vertex -16.5 7.36584 20.2317
      vertex -18.3211 0 24.6799
      vertex -16.5 7.99535 19.3806
    endloop
  endfacet
  facet normal 0.874112 -0.390526 -0.288821
    outer loop
      vertex -18.3211 0 24.6799
      vertex -16.0597 7.79794 20.9801
      vertex -17.6227 0 26.7936
    endloop
  endfacet
  facet normal 0.153467 0.31666 0.936042
    outer loop
      vertex -14.1434 0 16.6556
      vertex -13.3328 0 16.5227
      vertex -13.7361 6.33475 14.4458
    endloop
  endfacet
  facet normal 0.87411 0.0548639 0.48262
    outer loop
      vertex -16.9715 0 18.7446
      vertex -16.3042 7.61883 16.6699
      vertex -17.92 0 20.4625
    endloop
  endfacet
  facet normal 0.874138 0.0548478 0.48257
    outer loop
      vertex -16.3042 7.61883 16.6699
      vertex -16.9715 0 18.7446
      vertex -15.7361 7.06129 15.7042
    endloop
  endfacet
  facet normal 0.4454 -0.604882 -0.660103
    outer loop
      vertex -14.5489 0 29.7773
      vertex -15.0863 8.28465 21.8231
      vertex -13.8597 8.59713 22.3644
    endloop
  endfacet
  facet normal 0.445382 -0.604889 -0.660109
    outer loop
      vertex -15.0863 8.28465 21.8231
      vertex -14.5489 0 29.7773
      vertex -16.3267 0 28.5778
    endloop
  endfacet
  facet normal 0 -0.866013 0.500021
    outer loop
      vertex -25 20 24.1147
      vertex -16.5 19.0677 22.5
      vertex -16.5 20 24.1147
    endloop
  endfacet
  facet normal -3.45245e-06 -0.866021 0.500007
    outer loop
      vertex -25 15.799 16.8385
      vertex -16.5 19.0677 22.5
      vertex -25 20 24.1147
    endloop
  endfacet
  facet normal 0 -0.866023 0.500004
    outer loop
      vertex 0 15.799 16.8385
      vertex -16.5 19.0677 22.5
      vertex -25 15.799 16.8385
    endloop
  endfacet
  facet normal 0 -0.866023 0.500004
    outer loop
      vertex -16.5 19.0677 22.5
      vertex 0 15.799 16.8385
      vertex 0 19.0677 22.5
    endloop
  endfacet
  facet normal -0 0.500011 0.866019
    outer loop
      vertex -25 15.799 16.8385
      vertex 0 14.5 17.5885
      vertex 0 15.799 16.8385
    endloop
  endfacet
  facet normal 0 0.500011 0.866019
    outer loop
      vertex 0 14.5 17.5885
      vertex -25 15.799 16.8385
      vertex -25 14.5 17.5885
    endloop
  endfacet
endsolid OpenSCAD_Model
