solid OpenSCAD_Model
  facet normal 0 0 1
    outer loop
      vertex -19.5 20 34.5
      vertex -24.5 13 34.5
      vertex -19.5 13 34.5
    endloop
  endfacet
  facet normal 0 0 1
    outer loop
      vertex -24.5 13 34.5
      vertex -40 20 34.5
      vertex -24.5 7 34.5
    endloop
  endfacet
  facet normal -0 0 1
    outer loop
      vertex -40 20 34.5
      vertex -24.5 13 34.5
      vertex -19.5 20 34.5
    endloop
  endfacet
  facet normal -0 0 1
    outer loop
      vertex -24.5 7 34.5
      vertex -19.5 0 34.5
      vertex -19.5 7 34.5
    endloop
  endfacet
  facet normal 0 0 1
    outer loop
      vertex -40 0 34.5
      vertex -24.5 7 34.5
      vertex -40 20 34.5
    endloop
  endfacet
  facet normal 0 0 1
    outer loop
      vertex -24.5 7 34.5
      vertex -40 0 34.5
      vertex -19.5 0 34.5
    endloop
  endfacet
  facet normal -1 0 0
    outer loop
      vertex -40 0 0
      vertex -40 20 34.5
      vertex -40 20 0
    endloop
  endfacet
  facet normal -1 -0 0
    outer loop
      vertex -40 20 34.5
      vertex -40 0 0
      vertex -40 0 34.5
    endloop
  endfacet
  facet normal 1 0 0
    outer loop
      vertex 0 3 49.5
      vertex 0 0 49.5
      vertex 0 3 32.5
    endloop
  endfacet
  facet normal 1 -0 0
    outer loop
      vertex 0 3 32.5
      vertex 0 14 22.5
      vertex 0 14 32.5
    endloop
  endfacet
  facet normal 1 0 0
    outer loop
      vertex 0 14 22.5
      vertex 0 3 32.5
      vertex 0 3.33494 3.25
    endloop
  endfacet
  facet normal 1 0 0
    outer loop
      vertex 0 14.4489 22.5
      vertex 0 14 22.5
      vertex 0 3.33494 3.25
    endloop
  endfacet
  facet normal 1 0 0
    outer loop
      vertex 0 15.799 16.8385
      vertex 0 20 22.5
      vertex 0 19.0677 22.5
    endloop
  endfacet
  facet normal 1 0 0
    outer loop
      vertex 0 20 22.5
      vertex 0 15.799 16.8385
      vertex 0 20 0
    endloop
  endfacet
  facet normal 1 0 0
    outer loop
      vertex 0 6.25 3.29904
      vertex 0 15.799 16.8385
      vertex 0 14.5 17.5885
    endloop
  endfacet
  facet normal 1 0 0
    outer loop
      vertex 0 15.799 16.8385
      vertex 0 6.25 3.29904
      vertex 0 20 0
    endloop
  endfacet
  facet normal 1 0 0
    outer loop
      vertex 0 4.26454 2.71329
      vertex 0 6.25 3.29904
      vertex 0 5.34321 3.49178
    endloop
  endfacet
  facet normal 1 0 0
    outer loop
      vertex 0 4.26454 2.71329
      vertex 0 5.34321 3.49178
      vertex 0 4.4963 3.11472
    endloop
  endfacet
  facet normal 1 0 0
    outer loop
      vertex 0 0 0
      vertex 0 6.25 3.29904
      vertex 0 4.26454 2.71329
    endloop
  endfacet
  facet normal 1 0 0
    outer loop
      vertex 0 0 0
      vertex 0 3 32.5
      vertex 0 0 49.5
    endloop
  endfacet
  facet normal 1 0 0
    outer loop
      vertex 0 6.25 3.29904
      vertex 0 0 0
      vertex 0 20 0
    endloop
  endfacet
  facet normal 1 0 0
    outer loop
      vertex 0 3.33494 3.25
      vertex 0 0 0
      vertex 0 4.26454 2.71329
    endloop
  endfacet
  facet normal 1 0 0
    outer loop
      vertex 0 3 32.5
      vertex 0 0 0
      vertex 0 3.33494 3.25
    endloop
  endfacet
  facet normal 0 0 -1
    outer loop
      vertex -40 0 0
      vertex 0 20 0
      vertex 0 0 0
    endloop
  endfacet
  facet normal -0 0 -1
    outer loop
      vertex 0 20 0
      vertex -40 0 0
      vertex -40 20 0
    endloop
  endfacet
  facet normal 0 1 0
    outer loop
      vertex 0 20 22.5
      vertex 0 20 0
      vertex -16.5 20 22.5
    endloop
  endfacet
  facet normal 0 1 0
    outer loop
      vertex -16.5 20 24.1147
      vertex -16.5 20 22.5
      vertex -25 20 24.1147
    endloop
  endfacet
  facet normal 0 1 0
    outer loop
      vertex -17.5 20 38.1147
      vertex -16.5 20 49.5
      vertex -16.5 20 38.1147
    endloop
  endfacet
  facet normal 0 1 0
    outer loop
      vertex -16.5 20 49.5
      vertex -17.5 20 38.1147
      vertex -19.5 20 49.5
    endloop
  endfacet
  facet normal 0 1 0
    outer loop
      vertex -17.5 20 38.1147
      vertex -19.5 20 34.5
      vertex -19.5 20 49.5
    endloop
  endfacet
  facet normal 0 1 -0
    outer loop
      vertex -17.5 20 32.1147
      vertex -19.5 20 34.5
      vertex -17.5 20 38.1147
    endloop
  endfacet
  facet normal 0 1 0
    outer loop
      vertex -25 20 32.1147
      vertex -19.5 20 34.5
      vertex -17.5 20 32.1147
    endloop
  endfacet
  facet normal 0 1 0
    outer loop
      vertex -19.5 20 34.5
      vertex -25 20 32.1147
      vertex -40 20 34.5
    endloop
  endfacet
  facet normal 0 1 -0
    outer loop
      vertex -25 20 24.1147
      vertex -40 20 34.5
      vertex -25 20 32.1147
    endloop
  endfacet
  facet normal 0 1 0
    outer loop
      vertex -40 20 0
      vertex -16.5 20 22.5
      vertex 0 20 0
    endloop
  endfacet
  facet normal 0 1 0
    outer loop
      vertex -16.5 20 22.5
      vertex -40 20 0
      vertex -25 20 24.1147
    endloop
  endfacet
  facet normal 0 1 0
    outer loop
      vertex -25 20 24.1147
      vertex -40 20 0
      vertex -40 20 34.5
    endloop
  endfacet
  facet normal 0 -1 0
    outer loop
      vertex -18.6013 0 25.3624
      vertex -19.5 0 34.5
      vertex -40 0 34.5
    endloop
  endfacet
  facet normal 0 -1 0
    outer loop
      vertex -19.5 0 34.5
      vertex -14.1835 0 30.7138
      vertex -12.5 0 31.0563
    endloop
  endfacet
  facet normal 0 -1 0
    outer loop
      vertex -19.5 0 34.5
      vertex -14.6247 0 30.624
      vertex -14.1835 0 30.7138
    endloop
  endfacet
  facet normal 0 -1 0
    outer loop
      vertex -19.5 0 34.5
      vertex -15.0288 0 30.3563
      vertex -14.6247 0 30.624
    endloop
  endfacet
  facet normal 0 -1 0
    outer loop
      vertex -19.5 0 34.5
      vertex -16.4782 0 29.3959
      vertex -15.0288 0 30.3563
    endloop
  endfacet
  facet normal 0 -1 0
    outer loop
      vertex -19.5 0 34.5
      vertex -17.8455 0 27.5578
      vertex -16.4782 0 29.3959
    endloop
  endfacet
  facet normal 0 -1 0
    outer loop
      vertex -19.5 0 34.5
      vertex -18.3766 0 26.015
      vertex -17.8455 0 27.5578
    endloop
  endfacet
  facet normal 0 -1 0
    outer loop
      vertex -19.5 0 34.5
      vertex -18.6013 0 25.3624
      vertex -18.3766 0 26.015
    endloop
  endfacet
  facet normal 0 -1 0
    outer loop
      vertex -40 0 34.5
      vertex -18.6402 0 24.5795
      vertex -18.6013 0 25.3624
    endloop
  endfacet
  facet normal 0 -1 0
    outer loop
      vertex -40 0 34.5
      vertex -18.715 0 23.0733
      vertex -18.6402 0 24.5795
    endloop
  endfacet
  facet normal 0 -1 0
    outer loop
      vertex -40 0 34.5
      vertex -18.4217 0 21.7677
      vertex -18.715 0 23.0733
    endloop
  endfacet
  facet normal 0 -1 0
    outer loop
      vertex -40 0 34.5
      vertex -18.2318 0 20.9228
      vertex -18.4217 0 21.7677
    endloop
  endfacet
  facet normal 0 -1 0
    outer loop
      vertex -40 0 0
      vertex -18.2318 0 20.9228
      vertex -40 0 34.5
    endloop
  endfacet
  facet normal 0 -1 -0
    outer loop
      vertex -18.2318 0 20.9228
      vertex -40 0 0
      vertex -17.7901 0 20.1021
    endloop
  endfacet
  facet normal 0 -1 -0
    outer loop
      vertex -17.7901 0 20.1021
      vertex -40 0 0
      vertex -17.2461 0 19.0916
    endloop
  endfacet
  facet normal 0 -1 0
    outer loop
      vertex -40 0 0
      vertex -15.0853 0 17.2873
      vertex -15.877 0 17.7061
    endloop
  endfacet
  facet normal 0 -1 0
    outer loop
      vertex 0 0 0
      vertex -13.3169 0 16.6911
      vertex -14.2522 0 16.8464
    endloop
  endfacet
  facet normal 0 -1 0
    outer loop
      vertex 0 0 0
      vertex -14.2522 0 16.8464
      vertex -40 0 0
    endloop
  endfacet
  facet normal 0 -1 -0
    outer loop
      vertex -15.0853 0 17.2873
      vertex -40 0 0
      vertex -14.2522 0 16.8464
    endloop
  endfacet
  facet normal 0 -1 -0
    outer loop
      vertex -17.2461 0 19.0916
      vertex -40 0 0
      vertex -15.877 0 17.7061
    endloop
  endfacet
  facet normal 0 -1 0
    outer loop
      vertex -12.5 0 31.0563
      vertex -19.5 0 49.5
      vertex -19.5 0 34.5
    endloop
  endfacet
  facet normal 0 -1 0
    outer loop
      vertex -19.5 0 49.5
      vertex -12.5 0 31.0563
      vertex 0 0 49.5
    endloop
  endfacet
  facet normal 0 -1 0
    outer loop
      vertex -10.8165 0 30.7138
      vertex 0 0 49.5
      vertex -12.5 0 31.0563
    endloop
  endfacet
  facet normal 0 -1 0
    outer loop
      vertex -10.3753 0 30.624
      vertex 0 0 49.5
      vertex -10.8165 0 30.7138
    endloop
  endfacet
  facet normal 0 -1 0
    outer loop
      vertex -9.97116 0 30.3563
      vertex 0 0 49.5
      vertex -10.3753 0 30.624
    endloop
  endfacet
  facet normal 0 -1 0
    outer loop
      vertex -8.52175 0 29.3959
      vertex 0 0 49.5
      vertex -9.97116 0 30.3563
    endloop
  endfacet
  facet normal 0 -1 0
    outer loop
      vertex -7.15453 0 27.5578
      vertex 0 0 49.5
      vertex -8.52175 0 29.3959
    endloop
  endfacet
  facet normal 0 -1 0
    outer loop
      vertex -6.6234 0 26.015
      vertex 0 0 49.5
      vertex -7.15453 0 27.5578
    endloop
  endfacet
  facet normal 0 -1 0
    outer loop
      vertex -6.39873 0 25.3624
      vertex 0 0 49.5
      vertex -6.6234 0 26.015
    endloop
  endfacet
  facet normal 0 -1 0
    outer loop
      vertex -6.35984 0 24.5795
      vertex 0 0 49.5
      vertex -6.39873 0 25.3624
    endloop
  endfacet
  facet normal 0 -1 0
    outer loop
      vertex -6.28504 0 23.0733
      vertex 0 0 49.5
      vertex -6.35984 0 24.5795
    endloop
  endfacet
  facet normal 0 -1 0
    outer loop
      vertex 0 0 0
      vertex -6.28504 0 23.0733
      vertex -6.47672 0 22.2201
    endloop
  endfacet
  facet normal 0 -1 0
    outer loop
      vertex 0 0 0
      vertex -6.47672 0 22.2201
      vertex -6.76818 0 20.9228
    endloop
  endfacet
  facet normal 0 -1 0
    outer loop
      vertex 0 0 0
      vertex -9.91467 0 17.2873
      vertex -10.7478 0 16.8464
    endloop
  endfacet
  facet normal 0 -1 0
    outer loop
      vertex 0 0 0
      vertex -11.5696 0 16.71
      vertex -12.5 0 16.5554
    endloop
  endfacet
  facet normal 0 -1 0
    outer loop
      vertex -13.3169 0 16.6911
      vertex 0 0 0
      vertex -12.5 0 16.5554
    endloop
  endfacet
  facet normal 0 -1 0
    outer loop
      vertex -11.5696 0 16.71
      vertex 0 0 0
      vertex -10.7478 0 16.8464
    endloop
  endfacet
  facet normal 0 -1 0
    outer loop
      vertex -6.28504 0 23.0733
      vertex 0 0 0
      vertex 0 0 49.5
    endloop
  endfacet
  facet normal 0 -1 0
    outer loop
      vertex -7.20994 0 20.1021
      vertex 0 0 0
      vertex -6.76818 0 20.9228
    endloop
  endfacet
  facet normal 0 -1 0
    outer loop
      vertex -7.75385 0 19.0916
      vertex 0 0 0
      vertex -7.20994 0 20.1021
    endloop
  endfacet
  facet normal 0 -1 0
    outer loop
      vertex -9.12298 0 17.7061
      vertex 0 0 0
      vertex -7.75385 0 19.0916
    endloop
  endfacet
  facet normal 0 -1 0
    outer loop
      vertex -9.91467 0 17.2873
      vertex 0 0 0
      vertex -9.12298 0 17.7061
    endloop
  endfacet
  facet normal 0 0 1
    outer loop
      vertex -19.5 13 49.5
      vertex -16.5 20 49.5
      vertex -19.5 20 49.5
    endloop
  endfacet
  facet normal -0 0 1
    outer loop
      vertex -16.5 3 49.5
      vertex 0 0 49.5
      vertex 0 3 49.5
    endloop
  endfacet
  facet normal 0 0 1
    outer loop
      vertex -16.5 20 49.5
      vertex -19.5 13 49.5
      vertex -16.5 3 49.5
    endloop
  endfacet
  facet normal -0 0 1
    outer loop
      vertex -19.5 7 49.5
      vertex -16.5 3 49.5
      vertex -19.5 13 49.5
    endloop
  endfacet
  facet normal 0 0 1
    outer loop
      vertex -16.5 3 49.5
      vertex -19.5 0 49.5
      vertex 0 0 49.5
    endloop
  endfacet
  facet normal 0 0 1
    outer loop
      vertex -19.5 0 49.5
      vertex -16.5 3 49.5
      vertex -19.5 7 49.5
    endloop
  endfacet
  facet normal -0 0 1
    outer loop
      vertex -24.5 13 49.5
      vertex -19.5 7 49.5
      vertex -19.5 13 49.5
    endloop
  endfacet
  facet normal 0 0 1
    outer loop
      vertex -19.5 7 49.5
      vertex -24.5 13 49.5
      vertex -24.5 7 49.5
    endloop
  endfacet
  facet normal -1 0 0
    outer loop
      vertex -19.5 13 34.5
      vertex -19.5 20 49.5
      vertex -19.5 20 34.5
    endloop
  endfacet
  facet normal -1 -0 0
    outer loop
      vertex -19.5 20 49.5
      vertex -19.5 13 34.5
      vertex -19.5 13 49.5
    endloop
  endfacet
  facet normal -1 0 0
    outer loop
      vertex -19.5 0 34.5
      vertex -19.5 7 49.5
      vertex -19.5 7 34.5
    endloop
  endfacet
  facet normal -1 -0 0
    outer loop
      vertex -19.5 7 49.5
      vertex -19.5 0 34.5
      vertex -19.5 0 49.5
    endloop
  endfacet
  facet normal -1 0 0
    outer loop
      vertex -24.5 7 34.5
      vertex -24.5 13 49.5
      vertex -24.5 13 34.5
    endloop
  endfacet
  facet normal -1 -0 0
    outer loop
      vertex -24.5 13 49.5
      vertex -24.5 7 34.5
      vertex -24.5 7 49.5
    endloop
  endfacet
  facet normal 0 1 -0
    outer loop
      vertex -19.5 13 34.5
      vertex -24.5 13 49.5
      vertex -19.5 13 49.5
    endloop
  endfacet
  facet normal 0 1 0
    outer loop
      vertex -24.5 13 49.5
      vertex -19.5 13 34.5
      vertex -24.5 13 34.5
    endloop
  endfacet
  facet normal 0 -1 0
    outer loop
      vertex -24.5 7 34.5
      vertex -19.5 7 49.5
      vertex -24.5 7 49.5
    endloop
  endfacet
  facet normal 0 -1 -0
    outer loop
      vertex -19.5 7 49.5
      vertex -24.5 7 34.5
      vertex -19.5 7 34.5
    endloop
  endfacet
  facet normal 1 -0 0
    outer loop
      vertex -16.5 3 49.5
      vertex -16.5 20 38.1147
      vertex -16.5 20 49.5
    endloop
  endfacet
  facet normal 1 0 0
    outer loop
      vertex -16.5 20 38.1147
      vertex -16.5 3 49.5
      vertex -16.5 14 32.5
    endloop
  endfacet
  facet normal 1 0 0
    outer loop
      vertex -16.5 14 32.5
      vertex -16.5 3 49.5
      vertex -16.5 3 32.5
    endloop
  endfacet
  facet normal 1 0 0
    outer loop
      vertex -16.5 14 31.7224
      vertex -16.5 20 38.1147
      vertex -16.5 14 32.5
    endloop
  endfacet
  facet normal 1 -0 0
    outer loop
      vertex -16.5 14 31.7224
      vertex -16.5 9.45667 19.8532
      vertex -16.5 20 38.1147
    endloop
  endfacet
  facet normal 1 0 0
    outer loop
      vertex -16.5 14 31.7224
      vertex -16.5 8.2326 21.3563
      vertex -16.5 9.45667 19.8532
    endloop
  endfacet
  facet normal 1 0 -0
    outer loop
      vertex -16.5 8.2326 21.3563
      vertex -16.5 14 31.7224
      vertex -16.5 8.10535 21.5126
    endloop
  endfacet
  facet normal 1 0 -0
    outer loop
      vertex -16.5 20 22.5
      vertex -16.5 20 24.1147
      vertex -16.5 19.0677 22.5
    endloop
  endfacet
  facet normal -0 0 1
    outer loop
      vertex -16.5 14 32.5
      vertex 0 3 32.5
      vertex 0 14 32.5
    endloop
  endfacet
  facet normal 0 0 1
    outer loop
      vertex 0 3 32.5
      vertex -16.5 14 32.5
      vertex -16.5 3 32.5
    endloop
  endfacet
  facet normal 0 1 -0
    outer loop
      vertex 0 3 32.5
      vertex -16.5 3 49.5
      vertex 0 3 49.5
    endloop
  endfacet
  facet normal 0 1 0
    outer loop
      vertex -16.5 3 49.5
      vertex 0 3 32.5
      vertex -16.5 3 32.5
    endloop
  endfacet
  facet normal -0 0 1
    outer loop
      vertex -6.5 14.4489 22.5
      vertex 0 14 22.5
      vertex 0 14.4489 22.5
    endloop
  endfacet
  facet normal 0 0 1
    outer loop
      vertex 0 14 22.5
      vertex -6.5 14.4489 22.5
      vertex -6.5 14 22.5
    endloop
  endfacet
  facet normal -0 0 1
    outer loop
      vertex -16.5 20 22.5
      vertex 0 19.0677 22.5
      vertex 0 20 22.5
    endloop
  endfacet
  facet normal 0 0 1
    outer loop
      vertex 0 19.0677 22.5
      vertex -16.5 20 22.5
      vertex -16.5 19.0677 22.5
    endloop
  endfacet
  facet normal 0 1 0
    outer loop
      vertex 0 14 32.5
      vertex -8.5 14 31.7224
      vertex -16.5 14 32.5
    endloop
  endfacet
  facet normal 0 1 0
    outer loop
      vertex 0 14 32.5
      vertex -6.5 14 27.7224
      vertex -8.5 14 31.7224
    endloop
  endfacet
  facet normal 0 1 -0
    outer loop
      vertex 0 14 22.5
      vertex -6.5 14 27.7224
      vertex 0 14 32.5
    endloop
  endfacet
  facet normal 0 1 0
    outer loop
      vertex -6.5 14 27.7224
      vertex 0 14 22.5
      vertex -6.5 14 22.5
    endloop
  endfacet
  facet normal 0 1 0
    outer loop
      vertex -16.5 14 32.5
      vertex -8.5 14 31.7224
      vertex -16.5 14 31.7224
    endloop
  endfacet
  facet normal 0 1 0
    outer loop
      vertex -8.5 14 31.7224
      vertex -6.5 14 27.7224
      vertex -8.5 14 27.7224
    endloop
  endfacet
  facet normal 0 0.866026 -0.499999
    outer loop
      vertex 0 14.4489 22.5
      vertex -6.5 4.33494 4.98205
      vertex -6.5 14.4489 22.5
    endloop
  endfacet
  facet normal 0 0.866025 -0.5
    outer loop
      vertex -6.5 4.33494 4.98205
      vertex 0 3.33494 3.25
      vertex -17.5 4.33494 4.98205
    endloop
  endfacet
  facet normal 4.53912e-07 0.866026 -0.499999
    outer loop
      vertex 0 3.33494 3.25
      vertex -6.5 4.33494 4.98205
      vertex 0 14.4489 22.5
    endloop
  endfacet
  facet normal 0 0.866025 -0.5
    outer loop
      vertex -17.5 4.33494 4.98205
      vertex -25 20 32.1147
      vertex -17.5 20 32.1147
    endloop
  endfacet
  facet normal 6.86987e-08 0.866025 -0.5
    outer loop
      vertex -17.5 4.33494 4.98205
      vertex -25 3.33494 3.25
      vertex -25 20 32.1147
    endloop
  endfacet
  facet normal 0 0.866025 -0.5
    outer loop
      vertex -25 3.33494 3.25
      vertex -17.5 4.33494 4.98205
      vertex 0 3.33494 3.25
    endloop
  endfacet
  facet normal -5.95238e-08 -0.866025 0.5
    outer loop
      vertex -23 5.5 2
      vertex -2 6.25 3.29904
      vertex -23 6.5 3.73205
    endloop
  endfacet
  facet normal 0 -0.866026 0.499999
    outer loop
      vertex -2 6.25 3.29904
      vertex -23 5.5 2
      vertex -2 5.5 2
    endloop
  endfacet
  facet normal 0 -0.866026 0.499999
    outer loop
      vertex -23 6.5 3.73205
      vertex -25 14.5 17.5885
      vertex -25 6.5 3.73205
    endloop
  endfacet
  facet normal 0 -0.866026 0.499999
    outer loop
      vertex -25 14.5 17.5885
      vertex -23 6.5 3.73205
      vertex 0 14.5 17.5885
    endloop
  endfacet
  facet normal -9.3525e-08 -0.866026 0.499999
    outer loop
      vertex -2 6.25 3.29904
      vertex 0 14.5 17.5885
      vertex -23 6.5 3.73205
    endloop
  endfacet
  facet normal 0 -0.866026 0.499999
    outer loop
      vertex 0 14.5 17.5885
      vertex -2 6.25 3.29904
      vertex 0 6.25 3.29904
    endloop
  endfacet
  facet normal 0 0.499998 0.866026
    outer loop
      vertex -2 5.5 2
      vertex -23 5.5 2
      vertex -2 4.26454 2.71329
    endloop
  endfacet
  facet normal -0 0.500004 0.866023
    outer loop
      vertex -2 4.26454 2.71329
      vertex 0 3.33494 3.25
      vertex 0 4.26454 2.71329
    endloop
  endfacet
  facet normal 2.06196e-07 0.500001 0.866025
    outer loop
      vertex -23 3.85272 2.95106
      vertex -2 4.26454 2.71329
      vertex -23 5.5 2
    endloop
  endfacet
  facet normal 1.31096e-07 0.500004 0.866023
    outer loop
      vertex -2 4.26454 2.71329
      vertex -23 3.85272 2.95106
      vertex 0 3.33494 3.25
    endloop
  endfacet
  facet normal 0 0.499999 0.866026
    outer loop
      vertex -25 3.33494 3.25
      vertex -23 3.85272 2.95106
      vertex -25 3.85272 2.95106
    endloop
  endfacet
  facet normal 0 0.499999 0.866026
    outer loop
      vertex -23 3.85272 2.95106
      vertex -25 3.33494 3.25
      vertex 0 3.33494 3.25
    endloop
  endfacet
  facet normal 1 0 0
    outer loop
      vertex -25 14.5 17.5885
      vertex -25 20 24.1147
      vertex -25 20 32.1147
    endloop
  endfacet
  facet normal 1 0 0
    outer loop
      vertex -25 20 24.1147
      vertex -25 14.5 17.5885
      vertex -25 15.799 16.8385
    endloop
  endfacet
  facet normal 1 0 0
    outer loop
      vertex -25 3.33494 3.25
      vertex -25 14.5 17.5885
      vertex -25 20 32.1147
    endloop
  endfacet
  facet normal 1 0 0
    outer loop
      vertex -25 14.5 17.5885
      vertex -25 5.29094 3.98904
      vertex -25 6.5 3.73205
    endloop
  endfacet
  facet normal 1 0 0
    outer loop
      vertex -25 14.5 17.5885
      vertex -25 3.33494 3.25
      vertex -25 5.29094 3.98904
    endloop
  endfacet
  facet normal 1 0 0
    outer loop
      vertex -25 5.29094 3.98904
      vertex -25 3.33494 3.25
      vertex -25 4.16174 3.48629
    endloop
  endfacet
  facet normal 1 0 0
    outer loop
      vertex -25 4.16174 3.48629
      vertex -25 3.33494 3.25
      vertex -25 3.85272 2.95106
    endloop
  endfacet
  facet normal 0 -0.406729 0.913549
    outer loop
      vertex -2 5.34321 3.49178
      vertex 0 4.4963 3.11472
      vertex 0 5.34321 3.49178
    endloop
  endfacet
  facet normal 0 -0.406729 0.913549
    outer loop
      vertex 0 4.4963 3.11472
      vertex -2 5.34321 3.49178
      vertex -2 4.4963 3.11472
    endloop
  endfacet
  facet normal -0 0.207907 0.978149
    outer loop
      vertex -2 6.25 3.29904
      vertex 0 5.34321 3.49178
      vertex 0 6.25 3.29904
    endloop
  endfacet
  facet normal 0 0.207907 0.978149
    outer loop
      vertex 0 5.34321 3.49178
      vertex -2 6.25 3.29904
      vertex -2 5.34321 3.49178
    endloop
  endfacet
  facet normal 0 -0.866031 0.499991
    outer loop
      vertex -2 4.26454 2.71329
      vertex 0 4.4963 3.11472
      vertex -2 4.4963 3.11472
    endloop
  endfacet
  facet normal 0 -0.866031 0.499991
    outer loop
      vertex 0 4.4963 3.11472
      vertex -2 4.26454 2.71329
      vertex 0 4.26454 2.71329
    endloop
  endfacet
  facet normal -1 0 0
    outer loop
      vertex -2 5.5 2
      vertex -2 5.34321 3.49178
      vertex -2 6.25 3.29904
    endloop
  endfacet
  facet normal -1 0 0
    outer loop
      vertex -2 5.5 2
      vertex -2 4.4963 3.11472
      vertex -2 5.34321 3.49178
    endloop
  endfacet
  facet normal -1 0 -0
    outer loop
      vertex -2 4.4963 3.11472
      vertex -2 5.5 2
      vertex -2 4.26454 2.71329
    endloop
  endfacet
  facet normal -0 0.207909 0.978148
    outer loop
      vertex -25 6.5 3.73205
      vertex -23 5.29094 3.98904
      vertex -23 6.5 3.73205
    endloop
  endfacet
  facet normal 0 0.207909 0.978148
    outer loop
      vertex -23 5.29094 3.98904
      vertex -25 6.5 3.73205
      vertex -25 5.29094 3.98904
    endloop
  endfacet
  facet normal 0 -0.866022 0.500006
    outer loop
      vertex -25 3.85272 2.95106
      vertex -23 4.16174 3.48629
      vertex -25 4.16174 3.48629
    endloop
  endfacet
  facet normal 0 -0.866022 0.500006
    outer loop
      vertex -23 4.16174 3.48629
      vertex -25 3.85272 2.95106
      vertex -23 3.85272 2.95106
    endloop
  endfacet
  facet normal 0 -0.406735 0.913546
    outer loop
      vertex -25 5.29094 3.98904
      vertex -23 4.16174 3.48629
      vertex -23 5.29094 3.98904
    endloop
  endfacet
  facet normal 0 -0.406735 0.913546
    outer loop
      vertex -23 4.16174 3.48629
      vertex -25 5.29094 3.98904
      vertex -25 4.16174 3.48629
    endloop
  endfacet
  facet normal 1 0 0
    outer loop
      vertex -23 5.29094 3.98904
      vertex -23 5.5 2
      vertex -23 6.5 3.73205
    endloop
  endfacet
  facet normal 1 -0 0
    outer loop
      vertex -23 4.16174 3.48629
      vertex -23 5.5 2
      vertex -23 5.29094 3.98904
    endloop
  endfacet
  facet normal 1 0 0
    outer loop
      vertex -23 5.5 2
      vertex -23 4.16174 3.48629
      vertex -23 3.85272 2.95106
    endloop
  endfacet
  facet normal 0 0.866023 -0.500004
    outer loop
      vertex -6.5 14 27.7224
      vertex -8.5 9.45667 19.8532
      vertex -8.5 14 27.7224
    endloop
  endfacet
  facet normal -2.76452e-05 0.866026 -0.499998
    outer loop
      vertex -6.5 14 27.7224
      vertex -8.22025 9.18215 19.3777
      vertex -8.5 9.45667 19.8532
    endloop
  endfacet
  facet normal -3.32915e-05 0.866027 -0.499998
    outer loop
      vertex -6.5 14 27.7224
      vertex -8 8.48686 18.1734
      vertex -8.22025 9.18215 19.3777
    endloop
  endfacet
  facet normal -1.10438e-05 0.866022 -0.500005
    outer loop
      vertex -11.1094 6.34698 14.467
      vertex -6.5 1.73686 6.48205
      vertex -12.5 6.23686 14.2763
    endloop
  endfacet
  facet normal 1.73823e-05 0.866029 -0.499993
    outer loop
      vertex -9.85497 6.66657 15.0206
      vertex -6.5 1.73686 6.48205
      vertex -11.1094 6.34698 14.467
    endloop
  endfacet
  facet normal -2.5164e-05 0.866022 -0.500006
    outer loop
      vertex -8.85942 7.16434 15.8827
      vertex -6.5 1.73686 6.48205
      vertex -9.85497 6.66657 15.0206
    endloop
  endfacet
  facet normal 4.5032e-06 0.866025 -0.5
    outer loop
      vertex -8.22025 7.79157 16.9691
      vertex -6.5 1.73686 6.48205
      vertex -8.85942 7.16434 15.8827
    endloop
  endfacet
  facet normal 2.8909e-05 0.866027 -0.499997
    outer loop
      vertex -8 8.48686 18.1734
      vertex -6.5 1.73686 6.48205
      vertex -8.22025 7.79157 16.9691
    endloop
  endfacet
  facet normal -8.13656e-06 0.866025 -0.500001
    outer loop
      vertex -6.5 1.73686 6.48205
      vertex -8 8.48686 18.1734
      vertex -6.5 14 27.7224
    endloop
  endfacet
  facet normal 0 0.866024 -0.500002
    outer loop
      vertex -16.5 9.45667 19.8532
      vertex -17.5 20 38.1147
      vertex -16.5 20 38.1147
    endloop
  endfacet
  facet normal 3.201e-05 0.866025 -0.5
    outer loop
      vertex -16.7798 9.18215 19.3777
      vertex -17.5 20 38.1147
      vertex -16.5 9.45667 19.8532
    endloop
  endfacet
  facet normal 4.99551e-05 0.866025 -0.5
    outer loop
      vertex -17 8.48686 18.1734
      vertex -17.5 20 38.1147
      vertex -16.7798 9.18215 19.3777
    endloop
  endfacet
  facet normal 0 0.866026 -0.499999
    outer loop
      vertex -17.5 1.73686 6.48205
      vertex -12.5 6.23686 14.2763
      vertex -6.5 1.73686 6.48205
    endloop
  endfacet
  facet normal 1.12224e-05 0.866023 -0.500004
    outer loop
      vertex -12.5 6.23686 14.2763
      vertex -17.5 1.73686 6.48205
      vertex -13.8906 6.34698 14.467
    endloop
  endfacet
  facet normal -1.81835e-05 0.866029 -0.499994
    outer loop
      vertex -13.8906 6.34698 14.467
      vertex -17.5 1.73686 6.48205
      vertex -15.145 6.66657 15.0206
    endloop
  endfacet
  facet normal 2.0497e-05 0.866025 -0.5
    outer loop
      vertex -17 8.48686 18.1734
      vertex -17.5 1.73686 6.48205
      vertex -17.5 20 38.1147
    endloop
  endfacet
  facet normal -3.98742e-05 0.866026 -0.499998
    outer loop
      vertex -16.7798 7.79157 16.9691
      vertex -17.5 1.73686 6.48205
      vertex -17 8.48686 18.1734
    endloop
  endfacet
  facet normal -5.15659e-06 0.866025 -0.5
    outer loop
      vertex -16.1406 7.16434 15.8827
      vertex -17.5 1.73686 6.48205
      vertex -16.7798 7.79157 16.9691
    endloop
  endfacet
  facet normal 2.72229e-05 0.866023 -0.500004
    outer loop
      vertex -15.145 6.66657 15.0206
      vertex -17.5 1.73686 6.48205
      vertex -16.1406 7.16434 15.8827
    endloop
  endfacet
  facet normal -0 0.499999 0.866026
    outer loop
      vertex -17.5 4.33494 4.98205
      vertex -6.5 1.73686 6.48205
      vertex -6.5 4.33494 4.98205
    endloop
  endfacet
  facet normal 0 0.499999 0.866026
    outer loop
      vertex -6.5 1.73686 6.48205
      vertex -17.5 4.33494 4.98205
      vertex -17.5 1.73686 6.48205
    endloop
  endfacet
  facet normal 1 0 0
    outer loop
      vertex -17.5 1.73686 6.48205
      vertex -17.5 20 32.1147
      vertex -17.5 20 38.1147
    endloop
  endfacet
  facet normal 1 0 0
    outer loop
      vertex -17.5 20 32.1147
      vertex -17.5 1.73686 6.48205
      vertex -17.5 4.33494 4.98205
    endloop
  endfacet
  facet normal -1 0 0
    outer loop
      vertex -6.5 4.33494 4.98205
      vertex -6.5 14 22.5
      vertex -6.5 14.4489 22.5
    endloop
  endfacet
  facet normal -1 0 0
    outer loop
      vertex -6.5 1.73686 6.48205
      vertex -6.5 14 22.5
      vertex -6.5 4.33494 4.98205
    endloop
  endfacet
  facet normal -1 -0 0
    outer loop
      vertex -6.5 14 22.5
      vertex -6.5 1.73686 6.48205
      vertex -6.5 14 27.7224
    endloop
  endfacet
  facet normal 0 0.866025 -0.500001
    outer loop
      vertex -8.5 14 31.7224
      vertex -12.5 9.17981 23.3736
      vertex -16.5 14 31.7224
    endloop
  endfacet
  facet normal 2.56185e-05 0.86602 -0.50001
    outer loop
      vertex -8.5 14 31.7224
      vertex -12.2528 9.16023 23.3397
      vertex -12.5 9.17981 23.3736
    endloop
  endfacet
  facet normal -1.39301e-05 0.866027 -0.499997
    outer loop
      vertex -8.5 14 31.7224
      vertex -11.0013 9.06112 23.168
      vertex -12.2528 9.16023 23.3397
    endloop
  endfacet
  facet normal 3.54174e-05 0.866021 -0.500007
    outer loop
      vertex -8.5 14 31.7224
      vertex -9.87226 8.77349 22.6699
      vertex -11.0013 9.06112 23.168
    endloop
  endfacet
  facet normal -0.000216588 0.866038 -0.499979
    outer loop
      vertex -8.5 14 31.7224
      vertex -9.64924 8.71668 22.5714
      vertex -9.87226 8.77349 22.6699
    endloop
  endfacet
  facet normal 1.2652e-05 0.866025 -0.5
    outer loop
      vertex -8.5 14 31.7224
      vertex -8.57627 8.18019 21.6422
      vertex -9.64924 8.71668 22.5714
    endloop
  endfacet
  facet normal 0.00017215 0.866025 -0.500001
    outer loop
      vertex -8.57627 8.18019 21.6422
      vertex -8.5 14 31.7224
      vertex -8.5 8.10535 21.5126
    endloop
  endfacet
  facet normal -2.56185e-05 0.86602 -0.50001
    outer loop
      vertex -12.7472 9.16023 23.3397
      vertex -16.5 14 31.7224
      vertex -12.5 9.17981 23.3736
    endloop
  endfacet
  facet normal 1.39301e-05 0.866027 -0.499997
    outer loop
      vertex -13.9987 9.06112 23.168
      vertex -16.5 14 31.7224
      vertex -12.7472 9.16023 23.3397
    endloop
  endfacet
  facet normal -3.54185e-05 0.866021 -0.500007
    outer loop
      vertex -15.1277 8.77349 22.6699
      vertex -16.5 14 31.7224
      vertex -13.9987 9.06112 23.168
    endloop
  endfacet
  facet normal 0.000216515 0.866038 -0.499979
    outer loop
      vertex -15.3508 8.71668 22.5714
      vertex -16.5 14 31.7224
      vertex -15.1277 8.77349 22.6699
    endloop
  endfacet
  facet normal -1.26528e-05 0.866025 -0.5
    outer loop
      vertex -16.4237 8.18019 21.6422
      vertex -16.5 14 31.7224
      vertex -15.3508 8.71668 22.5714
    endloop
  endfacet
  facet normal -0.000172083 0.866025 -0.500001
    outer loop
      vertex -16.5 14 31.7224
      vertex -16.4237 8.18019 21.6422
      vertex -16.5 8.10535 21.5126
    endloop
  endfacet
  facet normal -1 0 0
    outer loop
      vertex -8.5 8.2326 21.3563
      vertex -8.5 14 27.7224
      vertex -8.5 9.45667 19.8532
    endloop
  endfacet
  facet normal -1 0 0
    outer loop
      vertex -8.5 8.10535 21.5126
      vertex -8.5 14 27.7224
      vertex -8.5 8.2326 21.3563
    endloop
  endfacet
  facet normal -1 -0 0
    outer loop
      vertex -8.5 14 27.7224
      vertex -8.5 8.10535 21.5126
      vertex -8.5 14 31.7224
    endloop
  endfacet
  facet normal -0.154218 -0.634127 -0.757694
    outer loop
      vertex -10.8165 0 30.7138
      vertex -11.0013 9.06112 23.168
      vertex -10.3753 0 30.624
    endloop
  endfacet
  facet normal -0.154172 -0.634131 -0.7577
    outer loop
      vertex -11.0013 9.06112 23.168
      vertex -10.8165 0 30.7138
      vertex -12.2528 9.16023 23.3397
    endloop
  endfacet
  facet normal 0.696804 0.200883 0.688556
    outer loop
      vertex -15.877 0 17.7061
      vertex -16.1406 7.16434 15.8827
      vertex -17.2461 0 19.0916
    endloop
  endfacet
  facet normal 0.696731 0.200898 0.688626
    outer loop
      vertex -16.1406 7.16434 15.8827
      vertex -15.877 0 17.7061
      vertex -15.145 6.66657 15.0206
    endloop
  endfacet
  facet normal -0.696771 -0.495892 -0.518267
    outer loop
      vertex -7.15453 0 27.5578
      vertex -9.64924 8.71668 22.5714
      vertex -8.57627 8.18019 21.6422
    endloop
  endfacet
  facet normal -0.696768 -0.495893 -0.518271
    outer loop
      vertex -9.64924 8.71668 22.5714
      vertex -7.15453 0 27.5578
      vertex -8.52175 0 29.3959
    endloop
  endfacet
  facet normal -0.447395 0.291486 0.845502
    outer loop
      vertex -11.1094 6.34698 14.467
      vertex -9.91467 0 17.2873
      vertex -9.85497 6.66657 15.0206
    endloop
  endfacet
  facet normal -0.447438 0.29147 0.845485
    outer loop
      vertex -9.91467 0 17.2873
      vertex -11.1094 6.34698 14.467
      vertex -10.7478 0 16.8464
    endloop
  endfacet
  facet normal 0.154136 -0.634133 -0.757705
    outer loop
      vertex -12.5 0 31.0563
      vertex -12.7472 9.16023 23.3397
      vertex -12.5 9.17981 23.3736
    endloop
  endfacet
  facet normal 0.154151 -0.634131 -0.757704
    outer loop
      vertex -12.7472 9.16023 23.3397
      vertex -12.5 0 31.0563
      vertex -14.1835 0 30.7138
    endloop
  endfacet
  facet normal 0.154172 -0.634131 -0.7577
    outer loop
      vertex -14.1835 0 30.7138
      vertex -13.9987 9.06112 23.168
      vertex -12.7472 9.16023 23.3397
    endloop
  endfacet
  facet normal 0.154218 -0.634127 -0.757694
    outer loop
      vertex -13.9987 9.06112 23.168
      vertex -14.1835 0 30.7138
      vertex -14.6247 0 30.624
    endloop
  endfacet
  facet normal -0.154034 0.339135 0.928042
    outer loop
      vertex -11.5696 0 16.71
      vertex -10.7478 0 16.8464
      vertex -11.1094 6.34698 14.467
    endloop
  endfacet
  facet normal -0.878046 -0.371132 -0.302153
    outer loop
      vertex -8.5 8.2326 21.3563
      vertex -6.6234 0 26.015
      vertex -8.5 8.10535 21.5126
    endloop
  endfacet
  facet normal -0.877957 -0.371205 -0.302321
    outer loop
      vertex -6.6234 0 26.015
      vertex -8.57627 8.18019 21.6422
      vertex -8.5 8.10535 21.5126
    endloop
  endfacet
  facet normal -0.877989 -0.37118 -0.30226
    outer loop
      vertex -8.57627 8.18019 21.6422
      vertex -6.6234 0 26.015
      vertex -7.15453 0 27.5578
    endloop
  endfacet
  facet normal 0.973253 -0.224587 -0.0483581
    outer loop
      vertex -18.6402 0 24.5795
      vertex -16.7798 9.18215 19.3777
      vertex -18.6013 0 25.3624
    endloop
  endfacet
  facet normal 0.973262 -0.22456 -0.0483083
    outer loop
      vertex -16.7798 9.18215 19.3777
      vertex -18.6402 0 24.5795
      vertex -17 8.48686 18.1734
    endloop
  endfacet
  facet normal 0.447451 0.291467 0.845479
    outer loop
      vertex -13.8906 6.34698 14.467
      vertex -15.0853 0 17.2873
      vertex -14.2522 0 16.8464
    endloop
  endfacet
  facet normal 0.447404 0.291484 0.845498
    outer loop
      vertex -15.0853 0 17.2873
      vertex -13.8906 6.34698 14.467
      vertex -15.145 6.66657 15.0206
    endloop
  endfacet
  facet normal 0.973257 -0.224578 -0.0483333
    outer loop
      vertex -18.6402 0 24.5795
      vertex -18.715 0 23.0733
      vertex -17 8.48686 18.1734
    endloop
  endfacet
  facet normal -0.877992 0.0761765 0.472575
    outer loop
      vertex -7.20994 0 20.1021
      vertex -8.22025 7.79157 16.9691
      vertex -8.85942 7.16434 15.8827
    endloop
  endfacet
  facet normal -0.877982 0.076185 0.472593
    outer loop
      vertex -8.22025 7.79157 16.9691
      vertex -7.20994 0 20.1021
      vertex -6.76818 0 20.9228
    endloop
  endfacet
  facet normal 0.97326 -0.0704411 0.218641
    outer loop
      vertex -18.715 0 23.0733
      vertex -18.4217 0 21.7677
      vertex -17 8.48686 18.1734
    endloop
  endfacet
  facet normal 0.877889 -0.371261 -0.302451
    outer loop
      vertex -16.4237 8.18019 21.6422
      vertex -18.3766 0 26.015
      vertex -16.5 8.10535 21.5126
    endloop
  endfacet
  facet normal 0.878046 -0.371132 -0.302153
    outer loop
      vertex -16.5 8.10535 21.5126
      vertex -18.3766 0 26.015
      vertex -16.5 8.2326 21.3563
    endloop
  endfacet
  facet normal 0.877995 -0.371176 -0.302245
    outer loop
      vertex -18.3766 0 26.015
      vertex -16.4237 8.18019 21.6422
      vertex -17.8455 0 27.5578
    endloop
  endfacet
  facet normal 0.15416 0.339123 0.928025
    outer loop
      vertex -13.3169 0 16.6911
      vertex -12.5 0 16.5554
      vertex -12.5 6.23686 14.2763
    endloop
  endfacet
  facet normal -0.973257 -0.224577 -0.0483381
    outer loop
      vertex -6.35984 0 24.5795
      vertex -8.22025 9.18215 19.3777
      vertex -8 8.48686 18.1734
    endloop
  endfacet
  facet normal -0.973255 -0.224581 -0.0483458
    outer loop
      vertex -8.22025 9.18215 19.3777
      vertex -6.35984 0 24.5795
      vertex -6.39873 0 25.3624
    endloop
  endfacet
  facet normal -0.877987 0.0761826 0.472584
    outer loop
      vertex -7.75385 0 19.0916
      vertex -7.20994 0 20.1021
      vertex -8.85942 7.16434 15.8827
    endloop
  endfacet
  facet normal -0.447388 -0.586488 -0.675186
    outer loop
      vertex -9.97116 0 30.3563
      vertex -9.64924 8.71668 22.5714
      vertex -8.52175 0 29.3959
    endloop
  endfacet
  facet normal -0.44756 -0.586427 -0.675125
    outer loop
      vertex -9.64924 8.71668 22.5714
      vertex -9.97116 0 30.3563
      vertex -9.87226 8.77349 22.6699
    endloop
  endfacet
  facet normal -0.154151 -0.634131 -0.757704
    outer loop
      vertex -12.5 0 31.0563
      vertex -12.2528 9.16023 23.3397
      vertex -10.8165 0 30.7138
    endloop
  endfacet
  facet normal -0.154136 -0.634133 -0.757705
    outer loop
      vertex -12.2528 9.16023 23.3397
      vertex -12.5 0 31.0563
      vertex -12.5 9.17981 23.3736
    endloop
  endfacet
  facet normal -0.44727 -0.586525 -0.675232
    outer loop
      vertex -10.3753 0 30.624
      vertex -9.87226 8.77349 22.6699
      vertex -9.97116 0 30.3563
    endloop
  endfacet
  facet normal -0.447305 -0.586512 -0.67522
    outer loop
      vertex -9.87226 8.77349 22.6699
      vertex -10.3753 0 30.624
      vertex -11.0013 9.06112 23.168
    endloop
  endfacet
  facet normal -0.696749 0.20089 0.68861
    outer loop
      vertex -9.12298 0 17.7061
      vertex -8.85942 7.16434 15.8827
      vertex -9.85497 6.66657 15.0206
    endloop
  endfacet
  facet normal -0.696797 0.20088 0.688564
    outer loop
      vertex -8.85942 7.16434 15.8827
      vertex -9.12298 0 17.7061
      vertex -7.75385 0 19.0916
    endloop
  endfacet
  facet normal 0.87801 0.0761627 0.472544
    outer loop
      vertex -17.7901 0 20.1021
      vertex -16.7798 7.79157 16.9691
      vertex -18.2318 0 20.9228
    endloop
  endfacet
  facet normal 0.877983 0.0761846 0.47259
    outer loop
      vertex -16.7798 7.79157 16.9691
      vertex -17.7901 0 20.1021
      vertex -16.1406 7.16434 15.8827
    endloop
  endfacet
  facet normal -0.877994 -0.371165 -0.302264
    outer loop
      vertex -8.22025 9.18215 19.3777
      vertex -8.5 8.2326 21.3563
      vertex -8.5 9.45667 19.8532
    endloop
  endfacet
  facet normal -0.877983 -0.371184 -0.302271
    outer loop
      vertex -6.39873 0 25.3624
      vertex -8.5 8.2326 21.3563
      vertex -8.22025 9.18215 19.3777
    endloop
  endfacet
  facet normal -0.877987 -0.371181 -0.302264
    outer loop
      vertex -8.5 8.2326 21.3563
      vertex -6.39873 0 25.3624
      vertex -6.6234 0 26.015
    endloop
  endfacet
  facet normal 0.696751 -0.495898 -0.518289
    outer loop
      vertex -17.8455 0 27.5578
      vertex -15.3508 8.71668 22.5714
      vertex -16.4782 0 29.3959
    endloop
  endfacet
  facet normal 0.696794 -0.495884 -0.518245
    outer loop
      vertex -15.3508 8.71668 22.5714
      vertex -17.8455 0 27.5578
      vertex -16.4237 8.18019 21.6422
    endloop
  endfacet
  facet normal -0.973257 -0.0704275 0.218656
    outer loop
      vertex -6.47672 0 22.2201
      vertex -8 8.48686 18.1734
      vertex -8.22025 7.79157 16.9691
    endloop
  endfacet
  facet normal -0.973258 -0.0704294 0.218652
    outer loop
      vertex -8 8.48686 18.1734
      vertex -6.47672 0 22.2201
      vertex -6.28504 0 23.0733
    endloop
  endfacet
  facet normal -0.447292 0.291501 0.845551
    outer loop
      vertex -9.91467 0 17.2873
      vertex -9.12298 0 17.7061
      vertex -9.85497 6.66657 15.0206
    endloop
  endfacet
  facet normal 0.447288 0.291502 0.845553
    outer loop
      vertex -15.877 0 17.7061
      vertex -15.0853 0 17.2873
      vertex -15.145 6.66657 15.0206
    endloop
  endfacet
  facet normal 0.877951 0.0762231 0.472643
    outer loop
      vertex -17.7901 0 20.1021
      vertex -17.2461 0 19.0916
      vertex -16.1406 7.16434 15.8827
    endloop
  endfacet
  facet normal -0.973257 -0.0704258 0.218658
    outer loop
      vertex -6.76818 0 20.9228
      vertex -6.47672 0 22.2201
      vertex -8.22025 7.79157 16.9691
    endloop
  endfacet
  facet normal -0.973258 -0.224574 -0.0483333
    outer loop
      vertex -6.28504 0 23.0733
      vertex -6.35984 0 24.5795
      vertex -8 8.48686 18.1734
    endloop
  endfacet
  facet normal 0.97324 -0.0703932 0.218746
    outer loop
      vertex -18.2318 0 20.9228
      vertex -17 8.48686 18.1734
      vertex -18.4217 0 21.7677
    endloop
  endfacet
  facet normal 0.973264 -0.0704367 0.218622
    outer loop
      vertex -17 8.48686 18.1734
      vertex -18.2318 0 20.9228
      vertex -16.7798 7.79157 16.9691
    endloop
  endfacet
  facet normal 0.154121 0.33913 0.928029
    outer loop
      vertex -13.8906 6.34698 14.467
      vertex -13.3169 0 16.6911
      vertex -12.5 6.23686 14.2763
    endloop
  endfacet
  facet normal 0.154094 0.339129 0.928034
    outer loop
      vertex -13.3169 0 16.6911
      vertex -13.8906 6.34698 14.467
      vertex -14.2522 0 16.8464
    endloop
  endfacet
  facet normal -0.154121 0.339136 0.928027
    outer loop
      vertex -12.5 6.23686 14.2763
      vertex -11.5696 0 16.71
      vertex -11.1094 6.34698 14.467
    endloop
  endfacet
  facet normal -0.154204 0.33912 0.928019
    outer loop
      vertex -11.5696 0 16.71
      vertex -12.5 6.23686 14.2763
      vertex -12.5 0 16.5554
    endloop
  endfacet
  facet normal 0.877958 -0.371217 -0.302305
    outer loop
      vertex -16.5 8.2326 21.3563
      vertex -16.7798 9.18215 19.3777
      vertex -16.5 9.45667 19.8532
    endloop
  endfacet
  facet normal 0.877969 -0.371196 -0.302298
    outer loop
      vertex -18.6013 0 25.3624
      vertex -16.5 8.2326 21.3563
      vertex -18.3766 0 26.015
    endloop
  endfacet
  facet normal 0.877969 -0.371196 -0.302297
    outer loop
      vertex -16.5 8.2326 21.3563
      vertex -18.6013 0 25.3624
      vertex -16.7798 9.18215 19.3777
    endloop
  endfacet
  facet normal 0.447431 -0.586471 -0.675172
    outer loop
      vertex -15.0288 0 30.3563
      vertex -15.3508 8.71668 22.5714
      vertex -15.1277 8.77349 22.6699
    endloop
  endfacet
  facet normal 0.447391 -0.586485 -0.675186
    outer loop
      vertex -15.3508 8.71668 22.5714
      vertex -15.0288 0 30.3563
      vertex -16.4782 0 29.3959
    endloop
  endfacet
  facet normal 0.447305 -0.586513 -0.675219
    outer loop
      vertex -15.1277 8.77349 22.6699
      vertex -14.6247 0 30.624
      vertex -15.0288 0 30.3563
    endloop
  endfacet
  facet normal 0.447318 -0.586508 -0.675215
    outer loop
      vertex -14.6247 0 30.624
      vertex -15.1277 8.77349 22.6699
      vertex -13.9987 9.06112 23.168
    endloop
  endfacet
  facet normal 0 -0.866013 0.500021
    outer loop
      vertex -25 20 24.1147
      vertex -16.5 19.0677 22.5
      vertex -16.5 20 24.1147
    endloop
  endfacet
  facet normal -3.45245e-06 -0.866021 0.500007
    outer loop
      vertex -25 15.799 16.8385
      vertex -16.5 19.0677 22.5
      vertex -25 20 24.1147
    endloop
  endfacet
  facet normal 0 -0.866023 0.500004
    outer loop
      vertex 0 15.799 16.8385
      vertex -16.5 19.0677 22.5
      vertex -25 15.799 16.8385
    endloop
  endfacet
  facet normal 0 -0.866023 0.500004
    outer loop
      vertex -16.5 19.0677 22.5
      vertex 0 15.799 16.8385
      vertex 0 19.0677 22.5
    endloop
  endfacet
  facet normal -0 0.500011 0.866019
    outer loop
      vertex -25 15.799 16.8385
      vertex 0 14.5 17.5885
      vertex 0 15.799 16.8385
    endloop
  endfacet
  facet normal 0 0.500011 0.866019
    outer loop
      vertex 0 14.5 17.5885
      vertex -25 15.799 16.8385
      vertex -25 14.5 17.5885
    endloop
  endfacet
endsolid OpenSCAD_Model
