<?xml version="1.0" encoding="UTF-8" standalone="no"?>
<svg
   version="1.1"
   id="svg2"
   xml:space="preserve"
   width="238.602mm"
   height="86.202mm"
   viewBox="0.000 0.000 238.602 86.202"
   sodipodi:docname="bottom-cutout.svg"
   inkscape:version="1.1.1 (3bf5ae0d25, 2021-09-20)"
   xmlns:inkscape="http://www.inkscape.org/namespaces/inkscape"
   xmlns:sodipodi="http://sodipodi.sourceforge.net/DTD/sodipodi-0.dtd"
   xmlns="http://www.w3.org/2000/svg"
   xmlns:svg="http://www.w3.org/2000/svg"
   xmlns:rdf="http://www.w3.org/1999/02/22-rdf-syntax-ns#"
   xmlns:cc="http://creativecommons.org/ns#"
   xmlns:dc="http://purl.org/dc/elements/1.1/"><metadata
     id="metadata8"><rdf:RDF><cc:Work
         rdf:about=""><dc:format>image/svg+xml</dc:format><dc:type
           rdf:resource="http://purl.org/dc/dcmitype/StillImage" /></cc:Work></rdf:RDF></metadata><defs
     id="defs6"><clipPath
       clipPathUnits="userSpaceOnUse"
       id="clipPath22"><path
         d="M 0,595.276 H 841.89 V 0 H 0 Z"
         id="path20" /></clipPath></defs><sodipodi:namedview
     pagecolor="#ffffff"
     bordercolor="#666666"
     borderopacity="1"
     objecttolerance="10"
     gridtolerance="10"
     guidetolerance="10"
     inkscape:pageopacity="0"
     inkscape:pageshadow="2"
     inkscape:window-width="1276"
     inkscape:window-height="514"
     id="namedview4"
     inkscape:pagecheckerboard="0"
     showgrid="false"
     inkscape:zoom="30.288023"
     inkscape:cx="739.30212"
     inkscape:cy="24.498132"
     inkscape:window-x="1280"
     inkscape:window-y="1035"
     inkscape:window-maximized="0"
     inkscape:current-layer="g10"
     inkscape:document-units="mm" /><g
     id="g10"
     inkscape:groupmode="layer"
     inkscape:label="jj40-middle-layer"
     transform="matrix(1.3333333,0,0,-1.3333333,0,793.70133)"><g
       id="g16"
       transform="matrix(0.26444602,0,0,0.26393687,-21.796001,484.52629)"><g
         id="g18"
         clip-path="url(#clipPath22)"><g
           id="g24"
           transform="translate(155.8179,350.7444)"><path
             d="m 0,0 c 0,-2.349 -1.904,-4.252 -4.252,-4.252 -2.349,0 -4.252,1.903 -4.252,4.252 0,2.348 1.903,4.252 4.252,4.252 C -1.904,4.252 0,2.348 0,0 Z"
             style="fill:none;stroke:#010101;stroke-width:1;stroke-linecap:butt;stroke-linejoin:miter;stroke-miterlimit:10;stroke-dasharray:none;stroke-opacity:1"
             id="path26" /></g><g
           id="g28"
           transform="translate(155.8179,243.1076)"><path
             d="m 0,0 c 0,-2.348 -1.904,-4.252 -4.252,-4.252 -2.349,0 -4.252,1.904 -4.252,4.252 0,2.349 1.903,4.252 4.252,4.252 C -1.904,4.252 0,2.349 0,0 Z"
             style="fill:none;stroke:#010101;stroke-width:1;stroke-linecap:butt;stroke-linejoin:miter;stroke-miterlimit:10;stroke-dasharray:none;stroke-opacity:1"
             id="path30" /></g><g
           id="g32"
           transform="translate(424.9355,297.3186)"><path
             d="m 0,0 c 0,-2.348 -1.903,-4.252 -4.252,-4.252 -2.349,0 -4.252,1.904 -4.252,4.252 0,2.349 1.903,4.252 4.252,4.252 C -1.903,4.252 0,2.349 0,0 Z"
             style="fill:none;stroke:#010101;stroke-width:1;stroke-linecap:butt;stroke-linejoin:miter;stroke-miterlimit:10;stroke-dasharray:none;stroke-opacity:1"
             id="path34" /></g><g
           id="g36"
           transform="translate(694.917,351.863)"><path
             d="m 0,0 c 0,-2.348 -1.903,-4.252 -4.252,-4.252 -2.349,0 -4.252,1.904 -4.252,4.252 0,2.348 1.903,4.252 4.252,4.252 C -1.903,4.252 0,2.348 0,0 Z"
             style="fill:none;stroke:#010101;stroke-width:1;stroke-linecap:butt;stroke-linejoin:miter;stroke-miterlimit:10;stroke-dasharray:none;stroke-opacity:1"
             id="path38" /></g><g
           id="g40"
           transform="translate(694.917,243.299)"><path
             d="m 0,0 c 0,-2.349 -1.903,-4.252 -4.252,-4.252 -2.349,0 -4.252,1.903 -4.252,4.252 0,2.349 1.903,4.252 4.252,4.252 C -1.903,4.252 0,2.349 0,0 Z"
             style="fill:none;stroke:#010101;stroke-width:1;stroke-linecap:butt;stroke-linejoin:miter;stroke-miterlimit:10;stroke-dasharray:none;stroke-opacity:1"
             id="path42" /></g><g
           id="g44"
           transform="translate(697.9824,227.3986)"><path
             d="m 0,0 v -30.782 h 28.129 l 11.272,10.128 V 8.622 H 7.838 Z"
             style="fill:none;stroke:#010101;stroke-width:0.402;stroke-linecap:butt;stroke-linejoin:miter;stroke-miterlimit:11.339;stroke-dasharray:none;stroke-opacity:1"
             id="path46" /></g><g
           id="g48"
           transform="translate(643.9824,236.0207)"><path
             d="M 0,0 V -39.404 H 39.401 V -8.949 L 30.093,0 Z"
             style="fill:none;stroke:#010101;stroke-width:0.402;stroke-linecap:butt;stroke-linejoin:miter;stroke-miterlimit:11.339;stroke-dasharray:none;stroke-opacity:1"
             id="path50" /></g><path
           d="m 589.982,196.616 h 39.401 v 39.404 h -39.401 z"
           style="fill:none;stroke:#010101;stroke-width:0.402;stroke-linecap:butt;stroke-linejoin:miter;stroke-miterlimit:11.339;stroke-dasharray:none;stroke-opacity:1"
           id="path52" /><path
           d="m 535.982,196.616 h 39.401 v 39.404 h -39.401 z"
           style="fill:none;stroke:#010101;stroke-width:0.402;stroke-linecap:butt;stroke-linejoin:miter;stroke-miterlimit:11.339;stroke-dasharray:none;stroke-opacity:1"
           id="path54" /><path
           d="m 481.982,196.616 h 39.401 v 39.404 h -39.401 z"
           style="fill:none;stroke:#010101;stroke-width:0.402;stroke-linecap:butt;stroke-linejoin:miter;stroke-miterlimit:11.339;stroke-dasharray:none;stroke-opacity:1"
           id="path56" /><path
           d="m 454.89619,196.52855 h 12.57452 v 39.57865 h -12.57452 z"
           style="fill:none;stroke:#010101;stroke-width:0.227604;stroke-linecap:butt;stroke-linejoin:miter;stroke-miterlimit:11.339;stroke-dasharray:none;stroke-opacity:1"
           id="path58" /><path
           d="m 373.8928,196.5288 h 12.57452 v 39.5784 H 373.8928 Z"
           style="fill:none;stroke:#010101;stroke-width:0.227603;stroke-linecap:butt;stroke-linejoin:miter;stroke-miterlimit:11.339;stroke-dasharray:none;stroke-opacity:1"
           id="path60" /><path
           d="m 319.98,196.616 h 39.404 V 236.02 H 319.98 Z"
           style="fill:none;stroke:#010101;stroke-width:0.402;stroke-linecap:butt;stroke-linejoin:miter;stroke-miterlimit:11.339;stroke-dasharray:none;stroke-opacity:1"
           id="path62" /><path
           d="m 265.98,196.616 h 39.404 V 236.02 H 265.98 Z"
           style="fill:none;stroke:#010101;stroke-width:0.402;stroke-linecap:butt;stroke-linejoin:miter;stroke-miterlimit:11.339;stroke-dasharray:none;stroke-opacity:1"
           id="path64" /><path
           d="m 211.98,196.616 h 39.404 V 236.02 H 211.98 Z"
           style="fill:none;stroke:#010101;stroke-width:0.402;stroke-linecap:butt;stroke-linejoin:miter;stroke-miterlimit:11.339;stroke-dasharray:none;stroke-opacity:1"
           id="path66" /><g
           id="g68"
           transform="translate(157.9829,227.6897)"><path
             d="M 0,0 V -31.073 H 39.401 V 8.331 H 8.274 Z"
             style="fill:none;stroke:#010101;stroke-width:0.402;stroke-linecap:butt;stroke-linejoin:miter;stroke-miterlimit:11.339;stroke-dasharray:none;stroke-opacity:1"
             id="path70" /></g><g
           id="g72"
           transform="translate(103.98,236.0207)"><path
             d="m 0,0 v -33.35 l 5.804,-6.29 33.6,0.236 V -8.331 L 30.567,0 Z"
             style="fill:none;stroke:#010101;stroke-width:0.402;stroke-linecap:butt;stroke-linejoin:miter;stroke-miterlimit:11.339;stroke-dasharray:none;stroke-opacity:1"
             id="path74" /></g><g
           id="g76"
           transform="translate(427.9824,344.0183)"><path
             d="m 0,0 v -38.51 l 6.201,-3.055 V -54.51 L 0,-60.183 V -93.402 H 93.401 V 0 Z"
             style="fill:none;stroke:#010101;stroke-width:0.402;stroke-linecap:butt;stroke-linejoin:miter;stroke-miterlimit:11.339;stroke-dasharray:none;stroke-opacity:1"
             id="path78" /></g><g
           id="g80"
           transform="translate(156.9473,257.9445)"><path
             d="m 0,0 h -18.327 l -4.945,-7.328 h -29.695 v 39.404 53.998 h 31.731 L -14.4,76.945 H 6.389 l 1.902,9.129 H 40.437 V 32.076 -7.328 H 3.346 Z"
             style="fill:none;stroke:#010101;stroke-width:0.402;stroke-linecap:butt;stroke-linejoin:miter;stroke-miterlimit:11.339;stroke-dasharray:none;stroke-opacity:1"
             id="path82" /></g><g
           id="g84"
           transform="translate(319.98,344.0183)"><path
             d="m 0,0 v -93.402 h 93.401 v 33.219 l -5.088,4.654 v 21.673 l 5.088,4.218 V 0 Z"
             style="fill:none;stroke:#010101;stroke-width:0.402;stroke-linecap:butt;stroke-linejoin:miter;stroke-miterlimit:11.339;stroke-dasharray:none;stroke-opacity:1"
             id="path86" /></g><g
           id="g88"
           transform="translate(704.1865,289.2893)"><path
             d="m 0,0 h 24.761 l 8.438,-8.29 V -38.674 H -4.69 l -2.633,6.311 0.073,15.327 7.284,4.218 z"
             style="fill:none;stroke:#010101;stroke-width:0.402;stroke-linecap:butt;stroke-linejoin:miter;stroke-miterlimit:11.339;stroke-dasharray:none;stroke-opacity:1"
             id="path90" /></g><g
           id="g92"
           transform="translate(704.5107,304.3445)"><path
             d="m 0,0 -5.236,1.236 -1.289,4.727 v 77.528 l 7.98,10.19 h 22.363 l 9.057,-9.427 V 8.873 l -8.947,-8.82 z"
             style="fill:none;stroke:#010101;stroke-width:0.402;stroke-linecap:butt;stroke-linejoin:miter;stroke-miterlimit:11.339;stroke-dasharray:none;stroke-opacity:1"
             id="path94" /></g><g
           id="g96"
           transform="translate(562.8018,358.615)"><path
             d="m 0,0 h -26.816 v 39.41 h 39.4 V 13.438 Z"
             style="fill:none;stroke:#010101;stroke-width:0.402;stroke-linecap:butt;stroke-linejoin:miter;stroke-miterlimit:11.339;stroke-dasharray:none;stroke-opacity:1"
             id="path98" /></g><g
           id="g100"
           transform="translate(589.9854,362.4553)"><path
             d="M 0.53936244,1.0399898 V 24.16499 l 8.37999996,12.445 H 38.369362 v 5.887112 4.263043 l 25.640729,-0.0037 2.71e-4,-10.146438 h 20.659 l 9.27,-10.26 V 4.6699898 l -8.91,-6.11 V -19.03001 l 8.91,-5.75 v -8.22 l -0.44,-26.979 13.330998,0.13 v -21.295 H 92.810362 v -21.127 l -8.18,-8.529 h -30.091 v 14.31 h -14.6 v -14.31 h -93.4 v 93.4 h 20.926 l 1.272,9.3289998 14.146,0.054 10.1090004,0.11 0.851,8.536 z"
             style="fill:none;stroke:#010101;stroke-width:0.402;stroke-linecap:butt;stroke-linejoin:miter;stroke-miterlimit:11.339;stroke-dasharray:none;stroke-opacity:1"
             id="path102"
             sodipodi:nodetypes="ccccccccccccccccccccccccccccccccc" /></g><path
           d="m 481.982,358.616 h 39.401 v 39.405 h -39.401 z"
           style="fill:none;stroke:#010101;stroke-width:0.402;stroke-linecap:butt;stroke-linejoin:miter;stroke-miterlimit:11.339;stroke-dasharray:none;stroke-opacity:1"
           id="path104" /><path
           d="m 427.982,358.616 h 39.401 v 39.405 h -39.401 z"
           style="fill:none;stroke:#010101;stroke-width:0.402;stroke-linecap:butt;stroke-linejoin:miter;stroke-miterlimit:11.339;stroke-dasharray:none;stroke-opacity:1"
           id="path106" /><path
           d="m 373.98,358.616 h 39.401 v 39.405 H 373.98 Z"
           style="fill:none;stroke:#010101;stroke-width:0.402;stroke-linecap:butt;stroke-linejoin:miter;stroke-miterlimit:11.339;stroke-dasharray:none;stroke-opacity:1"
           id="path108" /><path
           d="m 319.98,358.616 h 39.404 v 39.405 H 319.98 Z"
           style="fill:none;stroke:#010101;stroke-width:0.402;stroke-linecap:butt;stroke-linejoin:miter;stroke-miterlimit:11.339;stroke-dasharray:none;stroke-opacity:1"
           id="path110" /><path
           d="m 265.98,358.616 h 39.404 v 39.405 H 265.98 Z"
           style="fill:none;stroke:#010101;stroke-width:0.402;stroke-linecap:butt;stroke-linejoin:miter;stroke-miterlimit:11.339;stroke-dasharray:none;stroke-opacity:1"
           id="path112" /><path
           d="m 211.98,358.616 h 39.404 v 39.405 H 211.98 Z"
           style="fill:none;stroke:#010101;stroke-width:0.402;stroke-linecap:butt;stroke-linejoin:miter;stroke-miterlimit:11.339;stroke-dasharray:none;stroke-opacity:1"
           id="path114" /><g
           id="g116"
           transform="translate(157.9829,398.0212)"><path
             d="m 0,0 v -29.822 l 1.874,-9.583 H 39.401 V 0 Z"
             style="fill:none;stroke:#010101;stroke-width:0.402;stroke-linecap:butt;stroke-linejoin:miter;stroke-miterlimit:11.339;stroke-dasharray:none;stroke-opacity:1"
             id="path118" /></g><g
           id="g120"
           transform="translate(103.98,385.7263)"><path
             d="m 0,0 v -27.11 h 31.731 l 7.673,8.128 v 31.277 h -30 z"
             style="fill:none;stroke:#010101;stroke-width:0.402;stroke-linecap:butt;stroke-linejoin:miter;stroke-miterlimit:11.339;stroke-dasharray:none;stroke-opacity:1"
             id="path122" /></g><g
           id="g124"
           transform="translate(262.9111,250.6164)"><path
             d="M 0,0 H -50.931 V 39.404 93.402 H 42.473 V 39.404 0 Z"
             style="fill:none;stroke:#010101;stroke-width:0.402;stroke-linecap:butt;stroke-linejoin:miter;stroke-miterlimit:11.339;stroke-dasharray:none;stroke-opacity:1"
             id="path126" /></g><path
           d="m 400.98114,196.616 h 39.401 v 39.404 h -39.401 z"
           style="fill:none;stroke:#010101;stroke-width:0.402;stroke-linecap:butt;stroke-linejoin:miter;stroke-miterlimit:11.339;stroke-dasharray:none;stroke-opacity:1"
           id="path198" /></g></g></g></svg>
