<?xml version="1.0" encoding="UTF-8" standalone="no"?>
<svg
   version="1.1"
   id="svg2"
   xml:space="preserve"
   width="238.602mm"
   height="86.202mm"
   viewBox="0.000 0.000 238.602 86.202"
   sodipodi:docname="bottom-usb.svg"
   inkscape:version="1.1.1 (3bf5ae0d25, 2021-09-20)"
   xmlns:inkscape="http://www.inkscape.org/namespaces/inkscape"
   xmlns:sodipodi="http://sodipodi.sourceforge.net/DTD/sodipodi-0.dtd"
   xmlns="http://www.w3.org/2000/svg"
   xmlns:svg="http://www.w3.org/2000/svg"
   xmlns:rdf="http://www.w3.org/1999/02/22-rdf-syntax-ns#"
   xmlns:cc="http://creativecommons.org/ns#"
   xmlns:dc="http://purl.org/dc/elements/1.1/"><metadata
     id="metadata8"><rdf:RDF><cc:Work
         rdf:about=""><dc:format>image/svg+xml</dc:format><dc:type
           rdf:resource="http://purl.org/dc/dcmitype/StillImage" /></cc:Work></rdf:RDF></metadata><defs
     id="defs6"><clipPath
       clipPathUnits="userSpaceOnUse"
       id="clipPath22"><path
         d="M 0,595.276 H 841.89 V 0 H 0 Z"
         id="path20" /></clipPath></defs><sodipodi:namedview
     pagecolor="#ffffff"
     bordercolor="#666666"
     borderopacity="1"
     objecttolerance="10"
     gridtolerance="10"
     guidetolerance="10"
     inkscape:pageopacity="0"
     inkscape:pageshadow="2"
     inkscape:window-width="2560"
     inkscape:window-height="1600"
     id="namedview4"
     inkscape:pagecheckerboard="0"
     showgrid="false"
     inkscape:zoom="0.7536201"
     inkscape:cx="258.75106"
     inkscape:cy="72.981068"
     inkscape:window-x="0"
     inkscape:window-y="0"
     inkscape:window-maximized="0"
     inkscape:current-layer="g92"
     inkscape:document-units="mm" /><g
     id="g10"
     inkscape:groupmode="layer"
     inkscape:label="jj40-middle-layer"
     transform="matrix(1.3333333,0,0,-1.3333333,0,793.70133)"><g
       id="g100"
       transform="matrix(0.26444602,0,0,0.26393687,134.22329,580.19161)"><path
         d="m 38.49905,18.875975 v 16.097649 11.656814 l 25.381352,-0.01012 2.69e-4,-27.744299 z"
         style="fill:none;stroke:#010101;stroke-width:0.661376;stroke-linecap:butt;stroke-linejoin:miter;stroke-miterlimit:11.339;stroke-dasharray:none;stroke-opacity:1"
         id="path102"
         sodipodi:nodetypes="cccccc" /></g><g
       id="g24"
       transform="matrix(0.26444601,0,0,0.26393686,19.409422,577.10067)"><path
         d="m 0,0 c 0,-2.349 -1.904,-4.252 -4.252,-4.252 -2.349,0 -4.252,1.903 -4.252,4.252 0,2.348 1.903,4.252 4.252,4.252 C -1.904,4.252 0,2.348 0,0 Z"
         style="fill:none;stroke:#010101;stroke-width:1;stroke-linecap:butt;stroke-linejoin:miter;stroke-miterlimit:10;stroke-dasharray:none;stroke-opacity:1"
         id="path26" /></g><g
       id="g28"
       transform="matrix(0.26444601,0,0,0.26393686,19.409422,548.69135)"><path
         d="m 0,0 c 0,-2.348 -1.904,-4.252 -4.252,-4.252 -2.349,0 -4.252,1.904 -4.252,4.252 0,2.349 1.903,4.252 4.252,4.252 C -1.904,4.252 0,2.349 0,0 Z"
         style="fill:none;stroke:#010101;stroke-width:1;stroke-linecap:butt;stroke-linejoin:miter;stroke-miterlimit:10;stroke-dasharray:none;stroke-opacity:1"
         id="path30" /></g><g
       id="g32"
       transform="matrix(0.26444601,0,0,0.26393686,90.576497,562.99963)"><path
         d="m 0,0 c 0,-2.348 -1.903,-4.252 -4.252,-4.252 -2.349,0 -4.252,1.904 -4.252,4.252 0,2.349 1.903,4.252 4.252,4.252 C -1.903,4.252 0,2.349 0,0 Z"
         style="fill:none;stroke:#010101;stroke-width:1;stroke-linecap:butt;stroke-linejoin:miter;stroke-miterlimit:10;stroke-dasharray:none;stroke-opacity:1"
         id="path34" /></g><g
       id="g40"
       transform="matrix(0.26444601,0,0,0.26393686,161.97203,548.74186)"><path
         d="m 0,0 c 0,-2.349 -1.903,-4.252 -4.252,-4.252 -2.349,0 -4.252,1.903 -4.252,4.252 0,2.349 1.903,4.252 4.252,4.252 C -1.903,4.252 0,2.349 0,0 Z"
         style="fill:none;stroke:#010101;stroke-width:1;stroke-linecap:butt;stroke-linejoin:miter;stroke-miterlimit:10;stroke-dasharray:none;stroke-opacity:1"
         id="path42" /></g><g
       id="g92"
       transform="matrix(0.26444601,0,0,0.26393686,164.50904,564.85402)"><g
         id="g36"
         transform="translate(-9.59366,47.51852)"><path
           d="m 0,0 c 0,-2.348 -1.903,-4.252 -4.252,-4.252 -2.349,0 -4.252,1.904 -4.252,4.252 0,2.348 1.903,4.252 4.252,4.252 C -1.903,4.252 0,2.348 0,0 Z"
           style="fill:none;stroke:#010101;stroke-width:1;stroke-linecap:butt;stroke-linejoin:miter;stroke-miterlimit:10;stroke-dasharray:none;stroke-opacity:1"
           id="path38" /></g></g></g></svg>
