<?xml version="1.0" encoding="UTF-8" standalone="no"?>
<!-- Generated by SVGo -->

<svg
   width="238.602mm"
   height="86.202mm"
   viewBox="0.000 0.000 238.602 86.202"
   version="1.1"
   id="svg98"
   sodipodi:docname="planck-cutout.svg"
   inkscape:version="1.1.1 (3bf5ae0d25, 2021-09-20)"
   xmlns:inkscape="http://www.inkscape.org/namespaces/inkscape"
   xmlns:sodipodi="http://sodipodi.sourceforge.net/DTD/sodipodi-0.dtd"
   xmlns="http://www.w3.org/2000/svg"
   xmlns:svg="http://www.w3.org/2000/svg">
  <defs
     id="defs102" />
  <sodipodi:namedview
     id="namedview100"
     pagecolor="#ffffff"
     bordercolor="#666666"
     borderopacity="1.0"
     inkscape:pageshadow="2"
     inkscape:pageopacity="0.0"
     inkscape:pagecheckerboard="0"
     inkscape:document-units="mm"
     showgrid="false"
     inkscape:zoom="1.5315067"
     inkscape:cx="264.11898"
     inkscape:cy="122.42845"
     inkscape:window-width="1276"
     inkscape:window-height="1549"
     inkscape:window-x="1280"
     inkscape:window-y="0"
     inkscape:window-maximized="1"
     inkscape:current-layer="svg98" />
  <polygon
     points="110.775,66.146 104.025,66.146 104.025,69.376 103.2,69.376 103.2,72.176 104.025,72.176 104.025,78.446 105.751,78.446 105.751,79.646 109.051,79.646 109.051,78.446 110.775,78.446 110.775,73.976 112.301,73.976 112.301,78.676 126.301,78.676 126.301,73.976 127.826,73.976 127.826,78.446 129.551,78.446 129.551,79.646 132.851,79.646 132.851,78.446 134.576,78.446 134.576,72.176 135.401,72.176 135.401,69.376 134.576,69.376 134.576,66.146 127.826,66.146 127.826,69.376 126.301,69.376 126.301,64.676 112.301,64.676 112.301,69.376 110.775,69.376 "
     style="fill:none;stroke:#000000;stroke-width:0.05mm"
     id="polygon4"
     transform="rotate(180,119.3005,71.676)" />
  <polygon
     points="217.076,64.676 217.076,78.676 231.076,78.676 231.076,64.676"
     style="fill:none;stroke-width:0.050000mm;stroke:black"
     id="polygon6" />
  <polygon
     points="198.026,64.676 198.026,78.676 212.026,78.676 212.026,64.676"
     style="fill:none;stroke-width:0.050000mm;stroke:black"
     id="polygon8" />
  <polygon
     points="178.976,64.676 178.976,78.676 192.976,78.676 192.976,64.676"
     style="fill:none;stroke-width:0.050000mm;stroke:black"
     id="polygon10" />
  <polygon
     points="159.926,64.676 159.926,78.676 173.926,78.676 173.926,64.676"
     style="fill:none;stroke-width:0.050000mm;stroke:black"
     id="polygon12" />
  <polygon
     points="140.876,64.676 140.876,78.676 154.876,78.676 154.876,64.676"
     style="fill:none;stroke-width:0.050000mm;stroke:black"
     id="polygon14" />
  <polygon
     points="83.726,64.676 83.726,78.676 97.726,78.676 97.726,64.676"
     style="fill:none;stroke-width:0.050000mm;stroke:black"
     id="polygon16" />
  <polygon
     points="64.676,64.676 64.676,78.676 78.676,78.676 78.676,64.676"
     style="fill:none;stroke-width:0.050000mm;stroke:black"
     id="polygon18" />
  <polygon
     points="45.626,64.676 45.626,78.676 59.626,78.676 59.626,64.676"
     style="fill:none;stroke-width:0.050000mm;stroke:black"
     id="polygon20" />
  <polygon
     points="26.576,64.676 26.576,78.676 40.576,78.676 40.576,64.676"
     style="fill:none;stroke-width:0.050000mm;stroke:black"
     id="polygon22" />
  <polygon
     points="7.526,64.676 7.526,78.676 21.526,78.676 21.526,64.676"
     style="fill:none;stroke-width:0.050000mm;stroke:black"
     id="polygon24" />
  <polygon
     points="217.076,45.626 217.076,59.626 231.076,59.626 231.076,45.626"
     style="fill:none;stroke-width:0.050000mm;stroke:black"
     id="polygon26" />
  <polygon
     points="198.026,45.626 198.026,59.626 212.026,59.626 212.026,45.626"
     style="fill:none;stroke-width:0.050000mm;stroke:black"
     id="polygon28" />
  <polygon
     points="178.976,45.626 178.976,59.626 192.976,59.626 192.976,45.626"
     style="fill:none;stroke-width:0.050000mm;stroke:black"
     id="polygon30" />
  <polygon
     points="159.926,45.626 159.926,59.626 173.926,59.626 173.926,45.626"
     style="fill:none;stroke-width:0.050000mm;stroke:black"
     id="polygon32" />
  <polygon
     points="140.876,45.626 140.876,59.626 154.876,59.626 154.876,45.626"
     style="fill:none;stroke-width:0.050000mm;stroke:black"
     id="polygon34" />
  <polygon
     points="121.825,45.626 121.825,59.626 135.826,59.626 135.826,45.626"
     style="fill:none;stroke-width:0.050000mm;stroke:black"
     id="polygon36" />
  <polygon
     points="102.775,45.626 102.775,59.626 116.775,59.626 116.775,45.626"
     style="fill:none;stroke-width:0.050000mm;stroke:black"
     id="polygon38" />
  <polygon
     points="83.726,45.626 83.726,59.626 97.726,59.626 97.726,45.626"
     style="fill:none;stroke-width:0.050000mm;stroke:black"
     id="polygon40" />
  <polygon
     points="64.676,45.626 64.676,59.626 78.676,59.626 78.676,45.626"
     style="fill:none;stroke-width:0.050000mm;stroke:black"
     id="polygon42" />
  <polygon
     points="45.626,45.626 45.626,59.626 59.626,59.626 59.626,45.626"
     style="fill:none;stroke-width:0.050000mm;stroke:black"
     id="polygon44" />
  <polygon
     points="26.576,45.626 26.576,59.626 40.576,59.626 40.576,45.626"
     style="fill:none;stroke-width:0.050000mm;stroke:black"
     id="polygon46" />
  <polygon
     points="7.526,45.626 7.526,59.626 21.526,59.626 21.526,45.626"
     style="fill:none;stroke-width:0.050000mm;stroke:black"
     id="polygon48" />
  <polygon
     points="217.076,26.576 217.076,40.576 231.076,40.576 231.076,26.576"
     style="fill:none;stroke-width:0.050000mm;stroke:black"
     id="polygon50" />
  <polygon
     points="198.026,26.576 198.026,40.576 212.026,40.576 212.026,26.576"
     style="fill:none;stroke-width:0.050000mm;stroke:black"
     id="polygon52" />
  <polygon
     points="178.976,26.576 178.976,40.576 192.976,40.576 192.976,26.576"
     style="fill:none;stroke-width:0.050000mm;stroke:black"
     id="polygon54" />
  <polygon
     points="159.926,26.576 159.926,40.576 173.926,40.576 173.926,26.576"
     style="fill:none;stroke-width:0.050000mm;stroke:black"
     id="polygon56" />
  <polygon
     points="140.876,26.576 140.876,40.576 154.876,40.576 154.876,26.576"
     style="fill:none;stroke-width:0.050000mm;stroke:black"
     id="polygon58" />
  <polygon
     points="121.825,26.576 121.825,40.576 135.826,40.576 135.826,26.576"
     style="fill:none;stroke-width:0.050000mm;stroke:black"
     id="polygon60" />
  <polygon
     points="102.775,26.576 102.775,40.576 116.775,40.576 116.775,26.576"
     style="fill:none;stroke-width:0.050000mm;stroke:black"
     id="polygon62" />
  <polygon
     points="83.726,26.576 83.726,40.576 97.726,40.576 97.726,26.576"
     style="fill:none;stroke-width:0.050000mm;stroke:black"
     id="polygon64" />
  <polygon
     points="64.676,26.576 64.676,40.576 78.676,40.576 78.676,26.576"
     style="fill:none;stroke-width:0.050000mm;stroke:black"
     id="polygon66" />
  <polygon
     points="45.626,26.576 45.626,40.576 59.626,40.576 59.626,26.576"
     style="fill:none;stroke-width:0.050000mm;stroke:black"
     id="polygon68" />
  <polygon
     points="26.576,26.576 26.576,40.576 40.576,40.576 40.576,26.576"
     style="fill:none;stroke-width:0.050000mm;stroke:black"
     id="polygon70" />
  <polygon
     points="7.526,26.576 7.526,40.576 21.526,40.576 21.526,26.576"
     style="fill:none;stroke-width:0.050000mm;stroke:black"
     id="polygon72" />
  <polygon
     points="217.076,7.526 217.076,21.526 231.076,21.526 231.076,7.526"
     style="fill:none;stroke-width:0.050000mm;stroke:black"
     id="polygon74" />
  <polygon
     points="198.026,7.526 198.026,21.526 212.026,21.526 212.026,7.526"
     style="fill:none;stroke-width:0.050000mm;stroke:black"
     id="polygon76" />
  <polygon
     points="178.976,7.526 178.976,21.526 192.976,21.526 192.976,7.526"
     style="fill:none;stroke-width:0.050000mm;stroke:black"
     id="polygon78" />
  <polygon
     points="159.926,7.526 159.926,21.526 173.926,21.526 173.926,7.526"
     style="fill:none;stroke-width:0.050000mm;stroke:black"
     id="polygon80" />
  <polygon
     points="140.876,7.526 140.876,21.526 154.876,21.526 154.876,7.526"
     style="fill:none;stroke-width:0.050000mm;stroke:black"
     id="polygon82" />
  <polygon
     points="121.825,7.526 121.825,21.526 135.826,21.526 135.826,7.526"
     style="fill:none;stroke-width:0.050000mm;stroke:black"
     id="polygon84" />
  <polygon
     points="102.775,7.526 102.775,21.526 116.775,21.526 116.775,7.526"
     style="fill:none;stroke-width:0.050000mm;stroke:black"
     id="polygon86" />
  <polygon
     points="83.726,7.526 83.726,21.526 97.726,21.526 97.726,7.526"
     style="fill:none;stroke-width:0.050000mm;stroke:black"
     id="polygon88" />
  <polygon
     points="64.676,7.526 64.676,21.526 78.676,21.526 78.676,7.526"
     style="fill:none;stroke-width:0.050000mm;stroke:black"
     id="polygon90" />
  <polygon
     points="45.626,7.526 45.626,21.526 59.626,21.526 59.626,7.526"
     style="fill:none;stroke-width:0.050000mm;stroke:black"
     id="polygon92" />
  <polygon
     points="26.576,7.526 26.576,21.526 40.576,21.526 40.576,7.526"
     style="fill:none;stroke-width:0.050000mm;stroke:black"
     id="polygon94" />
  <polygon
     points="7.526,7.526 7.526,21.526 21.526,21.526 21.526,7.526"
     style="fill:none;stroke-width:0.050000mm;stroke:black"
     id="polygon96" />
  <circle
     style="fill:none;stroke:#000000;stroke-width:0.399814"
     id="path100"
     cx="24.052"
     cy="24.052"
     r="2.5500929" />
  <ellipse
     style="fill:none;stroke:#000000;stroke-width:0.399814"
     id="circle336"
     cx="24.052"
     cy="62.146999"
     rx="2.5500927"
     ry="2.5500929" />
  <ellipse
     style="fill:none;stroke:#000000;stroke-width:0.399814"
     id="circle480"
     cx="214.547"
     cy="24.052"
     rx="2.5500927"
     ry="2.5500929" />
  <circle
     style="fill:none;stroke:#000000;stroke-width:0.399875"
     id="circle558"
     cx="214.547"
     cy="62.146999"
     r="2.5500624" />
  <circle
     style="fill:none;stroke:#000000;stroke-width:0.399875"
     id="circle695"
     cx="119.296"
     cy="43.097"
     r="2.5500624" />
  <circle
     style="fill:none;stroke:#000000;stroke-width:0.399814"
     id="path100-3"
     cx="24.052"
     cy="24.052"
     r="2.5500929" />
  <ellipse
     style="fill:none;stroke:#000000;stroke-width:0.399814"
     id="circle336-6"
     cx="24.052"
     cy="62.146999"
     rx="2.5500927"
     ry="2.5500929" />
  <ellipse
     style="fill:none;stroke:#000000;stroke-width:0.399814"
     id="circle480-7"
     cx="214.547"
     cy="24.052"
     rx="2.5500927"
     ry="2.5500929" />
  <circle
     style="fill:none;stroke:#000000;stroke-width:0.399875"
     id="circle558-5"
     cx="214.547"
     cy="62.146999"
     r="2.5500624" />
  <circle
     style="fill:none;stroke:#000000;stroke-width:0.399875"
     id="circle695-3"
     cx="119.296"
     cy="43.097"
     r="2.5500624" />
</svg>
